<svg id="Layer_1" data-name="Layer 1" xmlns="http://www.w3.org/2000/svg" viewBox="0 0 316.35 356.15"><defs><style>.cls-1{fill:#eee;}.cls-2{fill:#3587e9;}.cls-3{fill:#66dae9;}</style></defs><path class="cls-1" d="M-1581.23-1525.89v-24.91c0-6.11.14-12.23-.11-18.33a5.46,5.46,0,0,0-2.38-3.9q-27.26-14.43-54.7-28.51a4.77,4.77,0,0,0-3.72-.28c-12,6.11-23.89,12.38-35.81,18.62-.2.11-.32.36-.47.54,3,18-3.56,30.94-18.17,35.86a28.27,28.27,0,0,1-33.91-13.45,28.24,28.24,0,0,1,7.76-35.91c9.46-7.32,26-9.32,38.9,4.09l22.68-11.78c4.31-2.24,8.71-4.33,12.88-6.82a5.52,5.52,0,0,0,2.4-3.9c.14-21.83.07-43.66.15-65.5a4.16,4.16,0,0,0-2.64-4.31c-11.76-6-23.45-12.15-35.49-18.41-6.81,7.26-15.23,10.83-25.35,9.73a27.51,27.51,0,0,1-16.82-8.18,28.58,28.58,0,0,1-3.49-36.07,28.47,28.47,0,0,1,34.33-10.6c13.93,5.58,20,18.44,16.68,36.06,6.17,3.22,12.44,6.5,18.71,9.76,5.52,2.88,11,5.89,16.62,8.54a6.55,6.55,0,0,0,5,.09q27.3-13.95,54.39-28.29a5,5,0,0,0,2.42-3.51c.16-14.22.1-28.44.08-42.66a5.15,5.15,0,0,0-.22-1c-17-6-25.1-18-22.38-33.09a28.42,28.42,0,0,1,28.36-23.42c14.2.3,25.6,10.63,27.7,25.12,2,14-7,26.39-23,31.36v19.65c0,7.86-.11,15.72.11,23.58a5.36,5.36,0,0,0,2.31,3.93q27.24,14.44,54.68,28.53c1,.51,2.55,1,3.39.53,12.32-6.26,24.55-12.67,36.71-19-2.81-18.9,3.66-31.53,18.4-36.31a28.2,28.2,0,0,1,33.53,13.57,28.26,28.26,0,0,1-7.62,35.65c-9.27,7.2-25.54,9.75-38.88-3.9-9.28,4.83-18.38,10.33-28.09,14.38-8.09,3.36-10.6,8.07-10.23,16.78.78,18.68.28,37.42.19,56.13,0,2.52.59,4,3,5.22,11.67,5.91,23.23,12,35.11,18.22,6.65-7.12,14.81-10.69,24.68-9.77a27.46,27.46,0,0,1,16.68,7.64,28.27,28.27,0,0,1,4.38,35.62,28.38,28.38,0,0,1-34.07,11.39c-13.91-5.29-20-18-17-35.85-8.28-4.31-16.64-8.71-25-13-4.3-2.21-8.66-5.93-13-6s-8.45,3.79-12.64,6c-14.6,7.57-29.21,15.13-43.75,22.82-1.19.63-2.65,2.2-2.67,3.35-.18,14.59-.12,29.18-.12,44.06,9.06,2.25,16.09,7.16,20.24,15.65a27.78,27.78,0,0,1,2,19.3c-3.16,12.92-15.73,22.26-28.86,21.47-14-.84-24.9-11-26.88-25.17C-1606.16-1508.49-1597.47-1520.47-1581.23-1525.89ZM-1635-1677.35a15.38,15.38,0,0,0-.29,1.87c0,20.46-.06,40.92.11,61.38,0,1.25,1.47,3,2.71,3.67,16.08,8.52,32.23,16.88,48.37,25.27.83.42,1.72.71,2.86,1.18v-2.62c0-20.21,0-40.41-.11-60.62,0-1.17-1.35-2.82-2.49-3.43-13.87-7.35-27.82-14.55-41.75-21.8Zm118.3.17a20.79,20.79,0,0,0-2,.71c-16.69,8.68-33.34,17.41-50.07,26-2,1-2,2.47-2,4.23q0,29,0,58v4.16a6.74,6.74,0,0,0,1.38-.33c16.92-8.77,33.85-17.51,50.69-26.43,1-.56,1.89-2.5,1.91-3.82.15-10.59.08-21.19.08-31.79Zm-112.5-9c15.18,7.91,29.87,15,44,23.16,6.73,3.86,11.86,3.85,18.58,0,14.11-8.14,28.8-15.26,43.48-22.92a9.74,9.74,0,0,0-1.3-1.1c-16.56-8.63-33.11-17.29-49.75-25.77-1.13-.58-3.14-.25-4.38.37-7.58,3.78-15,7.76-22.56,11.68Zm53-93a18,18,0,0,0,18-17.64,18.07,18.07,0,0,0-18-18.15,18.09,18.09,0,0,0-17.85,17.88A18,18,0,0,0-1576.14-1779.18Zm-129.65,75.8a17.79,17.79,0,0,0,18.08-17.6,17.85,17.85,0,0,0-17.73-18,17.77,17.77,0,0,0-18,17.61A17.74,17.74,0,0,0-1705.79-1703.38Zm259.21-35.55a17.78,17.78,0,0,0-17.75,17.85,17.94,17.94,0,0,0,17.94,17.71,17.78,17.78,0,0,0,17.89-18.08A17.73,17.73,0,0,0-1446.58-1738.93Zm-258.93,183a17.8,17.8,0,0,0,17.86-17.75,18,18,0,0,0-17.85-17.82,17.78,17.78,0,0,0-18,18A17.73,17.73,0,0,0-1705.51-1555.89Zm147.43,57.92a18,18,0,0,0-18-17.67,18,18,0,0,0-17.81,17.87,18.07,18.07,0,0,0,17.81,17.91A18.12,18.12,0,0,0-1558.08-1498Zm111.86-57.89a17.84,17.84,0,0,0,17.75-17.86,17.69,17.69,0,0,0-17.83-17.72,17.81,17.81,0,0,0-18,18A17.88,17.88,0,0,0-1446.22-1555.86Z" transform="translate(1734.35 1825.48)"/><path class="cls-2" d="M-1635-1677.35l9.41,4.9c13.93,7.25,27.88,14.45,41.75,21.8,1.14.61,2.48,2.26,2.49,3.43.15,20.21.11,40.41.11,60.62v2.62c-1.14-.47-2-.76-2.86-1.18-16.14-8.39-32.29-16.75-48.37-25.27-1.24-.66-2.7-2.42-2.71-3.67-.17-20.46-.12-40.92-.11-61.38A15.38,15.38,0,0,1-1635-1677.35Z" transform="translate(1734.35 1825.48)"/><path class="cls-2" d="M-1516.69-1677.18v30.72c0,10.6.07,21.2-.08,31.79,0,1.32-.87,3.26-1.91,3.82-16.84,8.92-33.77,17.66-50.69,26.43a6.74,6.74,0,0,1-1.38.33v-4.16q0-29,0-58c0-1.76,0-3.18,2-4.23,16.73-8.59,33.38-17.32,50.07-26A20.79,20.79,0,0,1-1516.69-1677.18Z" transform="translate(1734.35 1825.48)"/><path class="cls-2" d="M-1629.19-1686.18l28.06-14.61c7.51-3.92,15-7.9,22.56-11.68,1.24-.62,3.25-1,4.38-.37,16.64,8.48,33.19,17.14,49.75,25.77a9.74,9.74,0,0,1,1.3,1.1c-14.68,7.66-29.37,14.78-43.48,22.92-6.72,3.88-11.85,3.89-18.58,0C-1599.32-1671.13-1614-1678.27-1629.19-1686.18Z" transform="translate(1734.35 1825.48)"/><path class="cls-3" d="M-1576.14-1779.18a18,18,0,0,1-17.76-17.91A18.09,18.09,0,0,1-1576-1815a18.07,18.07,0,0,1,18,18.15A18,18,0,0,1-1576.14-1779.18Z" transform="translate(1734.35 1825.48)"/><path class="cls-3" d="M-1705.79-1703.38a17.74,17.74,0,0,1-17.7-18,17.77,17.77,0,0,1,18-17.61,17.85,17.85,0,0,1,17.73,18A17.79,17.79,0,0,1-1705.79-1703.38Z" transform="translate(1734.35 1825.48)"/><path class="cls-3" d="M-1446.58-1738.93a17.73,17.73,0,0,1,18.08,17.48,17.78,17.78,0,0,1-17.89,18.08,17.94,17.94,0,0,1-17.94-17.71A17.78,17.78,0,0,1-1446.58-1738.93Z" transform="translate(1734.35 1825.48)"/><path class="cls-3" d="M-1705.51-1555.89a17.73,17.73,0,0,1-18-17.59,17.78,17.78,0,0,1,18-18,18,18,0,0,1,17.85,17.82A17.8,17.8,0,0,1-1705.51-1555.89Z" transform="translate(1734.35 1825.48)"/><path class="cls-3" d="M-1558.08-1498a18.12,18.12,0,0,1-18,18.11,18.07,18.07,0,0,1-17.81-17.91,18,18,0,0,1,17.81-17.87A18,18,0,0,1-1558.08-1498Z" transform="translate(1734.35 1825.48)"/><path class="cls-3" d="M-1446.22-1555.86a17.88,17.88,0,0,1-18.06-17.58,17.81,17.81,0,0,1,18-18,17.69,17.69,0,0,1,17.83,17.72A17.84,17.84,0,0,1-1446.22-1555.86Z" transform="translate(1734.35 1825.48)"/></svg>