<svg id="Layer_1" data-name="Layer 1" xmlns="http://www.w3.org/2000/svg" viewBox="0 0 383.84 359.41"><defs><style>.cls-1{fill:#eee;}.cls-2{fill:#3587e9;}</style></defs><path class="cls-1" d="M-6178.68,1862.59c1.9-7.23,4.88-13.88,11-18.6,9.59-7.43,20.16-9.14,31.25-4.09,11.36,5.18,17.39,14.45,17.59,26.9.3,18.58.08,37.16.09,55.75v4.39c10.91,0,18.65,5.7,25.57,13.15,9.37,10.07,19.14,19.58,32.43,24.65a129.78,129.78,0,0,0,28.74,7.85c20.56,2.82,37.06,20.69,37.34,41.48.43,33.17.17,66.35.14,99.52,0,5-3,8-8,8q-39.11.08-78.21,0c-5.15,0-8.06-3-8.09-8.22-.06-12.1-.11-24.2.05-36.29,0-2.53-.81-3.73-3-4.8-10.64-5.17-21.24-10.41-31.76-15.81-31.46-16.15-49.75-41.68-54.48-76.81a20.58,20.58,0,0,0-.65-2.51Zm104.8,243.76h64.3c0-30.94.28-61.61-.14-92.28-.18-13.22-10.7-24-23.81-26.64-6.34-1.25-12.71-2.58-18.9-4.42-15.77-4.69-30.83-10.74-42.38-23.25-4.39-4.76-9-9.36-13.79-13.71a14.85,14.85,0,0,0-24.83,7.93c-1.23,5.76.93,10.45,5,14.5q18.43,18.35,36.76,36.79c3.62,3.64,3.71,8.15.47,11.24-3.07,2.91-7.57,2.71-11-.71-12.64-12.58-25.36-25.09-37.8-37.86-13.19-13.54-11.24-34.26,3.9-45.53a6,6,0,0,0,2.25-4.09q.21-30.49.06-61a14.88,14.88,0,0,0-15.13-15.22,14.9,14.9,0,0,0-14.75,15.22c0,34.42-.6,68.85.18,103.26.72,31.4,15.57,55.17,43.06,70.46,12.94,7.2,26.38,13.52,39.72,20,4.88,2.35,7.09,5.51,6.93,11.05C-6074.1,2083.4-6073.88,2094.74-6073.88,2106.35Z" transform="translate(6178.68 -1762.19)"/><path class="cls-1" d="M-5988.56,1786.42c4.91-4,9.88-8,14.73-12.09,23.91-20.23,67.68-15.77,86.33,18,15.43,27.91,13.47,55.45-3.2,82.18-9.4,15.06-21.95,27.46-35.09,39.16-18.25,16.25-36.87,32.1-55.36,48.09-4.12,3.57-7.48,3.73-11.35.34-22.59-19.81-45.38-39.4-67.56-59.67-12.74-11.65-23.65-25.06-30.4-41.26-10.3-24.74-8.49-48.67,5.47-71.56,19.29-31.62,68.16-38.88,94.32-5.58,1.08,1.37,2.18,2.72,3.27,4.08Zm1.25,160.49a18.12,18.12,0,0,0,1.64-1.09c18.77-16.42,37.73-32.63,56.21-49.37,11.94-10.82,23-22.62,30.19-37.31,10-20.47,10.13-40.92-1.94-60.63-13.82-22.55-44.35-28.47-63.48-12-6,5.17-10.5,12.22-15.07,18.84-4.39,6.35-10.37,6.57-14.45.06a122.8,122.8,0,0,0-9.15-13.18c-18.94-22.73-48.58-16.69-62.41-2.54-14.06,14.38-18.35,31.84-15.19,51.32,2.49,15.3,10.6,27.81,20.62,39.17C-6038.45,1905-6012,1924.8-5987.31,1946.91Z" transform="translate(6178.68 -1762.19)"/><path class="cls-1" d="M-5794.83,1977.12a20.58,20.58,0,0,0-.65,2.51c-4.73,35.13-23,60.66-54.48,76.81-10.52,5.4-21.12,10.64-31.76,15.81-2.2,1.07-3,2.27-3,4.8.16,12.09.11,24.19,0,36.29,0,5.21-2.94,8.21-8.09,8.22q-39.1.08-78.2,0c-5,0-8-3-8-8,0-33.17-.29-66.35.14-99.52.28-20.79,16.78-38.66,37.34-41.48a129.78,129.78,0,0,0,28.74-7.85c13.29-5.07,23.06-14.58,32.43-24.65,6.92-7.45,14.66-13.1,25.57-13.15v-4.39c0-18.59-.2-37.17.09-55.75.2-12.45,6.24-21.72,17.59-26.9,11.09-5.05,21.67-3.34,31.25,4.09,6.08,4.72,9.06,11.37,11,18.6Zm-104.89,95c-.16-5.54,2.05-8.7,6.93-11.05,13.35-6.44,26.78-12.76,39.72-20,27.49-15.29,42.34-39.06,43.06-70.46.78-34.41.23-68.84.18-103.26a14.9,14.9,0,0,0-14.75-15.22,14.88,14.88,0,0,0-15.13,15.22q-.14,30.48.06,61a6,6,0,0,0,2.25,4.09c15.14,11.27,17.09,32,3.9,45.53-12.44,12.77-25.16,25.28-37.8,37.86-3.43,3.42-7.94,3.62-11,.71-3.25-3.09-3.16-7.6.46-11.24q18.32-18.45,36.76-36.79c4.08-4,6.23-8.74,5-14.5a14.85,14.85,0,0,0-24.83-7.93c-4.8,4.35-9.4,9-13.79,13.71-11.55,12.51-26.61,18.56-42.38,23.25-6.19,1.84-12.56,3.17-18.9,4.42-13.11,2.59-23.63,13.42-23.81,26.64-.42,30.67-.14,61.34-.14,92.28h64.3C-5899.63,2094.74-5899.41,2083.4-5899.72,2072.07Z" transform="translate(6178.68 -1762.19)"/><path class="cls-2" d="M-5987.31,1946.91c-24.69-22.11-51.14-41.92-73-66.72-10-11.36-18.13-23.87-20.62-39.17-3.16-19.48,1.13-36.94,15.19-51.32,13.83-14.15,43.47-20.19,62.41,2.54a122.8,122.8,0,0,1,9.15,13.18c4.08,6.51,10.06,6.29,14.45-.06,4.57-6.62,9.08-13.67,15.07-18.84,19.13-16.48,49.66-10.56,63.48,12,12.07,19.71,12,40.16,1.94,60.63-7.2,14.69-18.25,26.49-30.19,37.31-18.48,16.74-37.44,33-56.21,49.37A18.12,18.12,0,0,1-5987.31,1946.91Z" transform="translate(6178.68 -1762.19)"/></svg>