<svg id="Layer_1" data-name="Layer 1" xmlns="http://www.w3.org/2000/svg" viewBox="0 0 264.22 377.67"><defs><style>.cls-1{fill:#eee;}.cls-2{fill:#3587e9;}.cls-3{fill:#66dae9;}</style></defs><path class="cls-1" d="M-5369,1456.23a4.23,4.23,0,0,1-.09-5.19c8.24-13.72,5.47-30-6.64-40.51a6.63,6.63,0,0,1-2.16-2.63c-2.92-10.08-9.25-17.14-18.86-21.45,2.81-14.69-1.14-26.9-13.87-34.93s-25.59-6.16-37.52,2.65c-.9-1.72-1.56-3.15-2.35-4.51a31.18,31.18,0,0,0-42.69-11.42c-2.48,1.45-4,1.55-6.53.08-18.64-10.91-42.53-.16-46.29,21.1-1.05,5.94.1,12.28.25,18.51l-9.47.9c-.32-.49-.57-.8-.75-1.15-8.78-17-27.41-23.32-43.45-14.73s-21.12,27.93-11.7,44.74c.6,1.07.26,3.16-.39,4.35-6.44,11.65-6.12,23,1,34.2.56.87,1.12,1.72,1.85,2.83-.69.49-1,.75-1.32.93-14.24,7.54-20.09,18.72-18.1,34.52a19.16,19.16,0,0,1,0,2.73c-.11,6.4-.91,12.89-.2,19.2,2.73,24.08,6,48.11,9,72.16q7.92,63.2,15.79,126.38c.6,4.74,2.71,6.67,7.53,6.67q99.49,0,199,0c4.81,0,6.91-1.93,7.53-6.67q1.35-10.53,2.66-21.07,5.32-42.5,10.64-85c3.57-28.47,7.38-56.91,10.55-85.42,1-9.16.31-18.5.39-27.76,0-1.77-.45-3.6-.08-5.27C-5363.34,1471.85-5364.36,1463.74-5369,1456.23Zm-82.58-58.45c.74-.22,1.52-.39,2.28-.56,6.23-1.45,7.88-4.8,5.24-10.62-4.35-9.6-1.29-19.93,7.36-24.9a18.77,18.77,0,0,1,21.91,2.28c6.22,5.56,7.94,14,4.71,21.9-.86,2.08-1.89,4.79-1.22,6.61s3.17,3.43,5.21,4.46c3.58,1.83,7.42,3.15,11,5.39-6.67,1-13.11,2.11-18.07,6.31-4.7,4-8.6,8.86-13.55,14.1-16.68-.33-19.75.53-29.31,8.63-5.92-2.92-9.57-10-8.94-17.29A19.11,19.11,0,0,1-5451.55,1397.78Zm-19.09,55c5.19,5.54,6.82,11.9,4.62,19.29-10.12,1.81-21.23-2.79-30.18,4.92a9.29,9.29,0,0,1-6.33-7.42c-1.32-6.77-4.52-8.18-11-5.28-10.51,4.67-22.5-.33-25.95-11-2.39-7.4-.81-14.1,4.75-19.51s12.26-6.7,19.62-4.19c1,.33,1.92.85,2.87,1.27,4.91,2.1,8.42.28,9.64-5,2.39-10.38,9.6-16.55,19.13-16.37,5.48.1,5.92.55,5.91,5.88,0,8.26,2,13.16,9.43,23.33-.77.94-1.55,2-2.41,2.93C-5474.55,1446.05-5474.61,1448.58-5470.64,1452.81Zm-32.14,95h-34.35c-.54-8.52-1.09-16.85-1.59-25.18-.59-9.67-1.18-19.33-1.69-29-.34-6.27,1.89-8.53,8.24-8.54,7.46,0,14.92,0,22.37,0,4.3,0,6.95,2.29,7,6.31C-5502.73,1510.11-5502.78,1528.8-5502.78,1547.79Zm56.47,13.09v49.87h-100.18v-49.87Zm-6.21-68c-1,18.16-2.16,36.3-3.28,54.92-1.05.09-1.8.2-2.56.2h-31.59c-.09-1.38-.22-2.52-.22-3.65q0-25.52,0-51c0-6.16,2.09-8.22,8.24-8.24,7.34,0,14.66,0,22,0C-5454.66,1485.12-5452.22,1487.59-5452.52,1492.88Zm-71.25-144.25c7.3-3.68,15.33-2.39,21.71,3.51,4.33,4,6.82,4,11.11,0,6.41-5.91,14.41-7.23,21.73-3.6a19,19,0,0,1,10.38,19.11c-1,8-6.74,14.23-15,16.21-7.15,1.72-8.48,4.35-5.69,11.21a15.42,15.42,0,0,1,.45,2c-14.57-1.15-25.38,4.31-32.91,16.7-4-6.19-4.34-12.27-1.58-18.57,2.94-6.71,1.58-9.58-5.48-11.28-8.41-2-14.16-8.34-15.08-16.55A19,19,0,0,1-5523.77,1348.63Zm-77.46,33.29a19,19,0,0,1,18.93-10.06,18.81,18.81,0,0,1,16,14.26c.73,2.91.9,6.48,4.35,7.28,2.16.51,4.86-.15,7-1,7.2-2.85,14-2.36,20,2.55,5.84,4.77,8.18,11.14,6.41,18.59-.37,1.53-2.06,2.94-3.47,4-4.39,3.2-9.09,6-13.37,9.32-2,1.57-3.18,2.51-4.92-.19-11.77-18.3-27.64-21.91-47.91-10.39,4.51-6.66,4.43-7.61-.39-13.08A18.62,18.62,0,0,1-5601.23,1381.92Zm-1.73,78.92a24.24,24.24,0,0,1,2.67-.67c6.24-1.45,7.89-4.8,5.23-10.61-5.13-11.23.25-23.56,11.75-26.68,7.38-2,13.84-.1,18.93,5.49s6.29,12.18,3.67,19.37c-.26.74-.63,1.44-.95,2.15-2.4,5.37-.73,9.28,5,10.08,8.24,1.13,10.78,8.22,16,13.23l-5.6,3.55c-12.9-6.23-25.57-6.25-38.68-.12-7.8-5.25-12.38-4.48-29.95-3.78C-5612.88,1466.68-5608.75,1462.94-5603,1460.84Zm11.41,238.11c-1.06-8.24-2.14-16.49-3.18-24.75q-6.21-49.5-12.39-99c-2.92-23.38-5.93-46.77-8.7-70.18a92.62,92.62,0,0,1-.13-13.74c.11-3.71,2.54-6,6.31-6.16,4.06-.15,8.12-.13,12.18,0s6.33,2.35,6.57,6.35c1.1,17.78,2.12,35.57,3.17,53.36q3,50.82,6,101.63c1,17.37,2,34.76,3,52.51Zm25.56-.08c-.35-5.24-.74-10.44-1.05-15.65q-2.9-50.06-5.79-100.11-2.55-43.38-5.19-86.75a48.42,48.42,0,0,1-.2-5.1,6,6,0,0,1,6-6.12q6.67-.29,13.37,0c3.08.15,5.4,2.12,5.6,5.14,1.29,19.07,2.35,38.15,3.5,57.51-8.22.56-9.61,2-9.61,9.69v56.64c0,7.73,1.68,9.39,9.48,9.4h4.57c1.48,25.27,2.94,50.18,4.42,75.33Zm62.94,0h-25.25c-1.48-25.06-2.94-50-4.42-75.11H-5503Zm38.4,0H-5490v-75h29.76C-5461.71,1648.94-5463.17,1673.76-5464.65,1698.83Zm49.88-205.95c-.79,14.65-1.69,29.31-2.56,44q-2.19,37.1-4.42,74.19-2.46,42.39-4.92,84.8c-.06,1-.31,2-.47,3H-5452c1.47-25.07,2.92-49.88,4.41-75.32,2.51,0,4.94.08,7.36,0,4.17-.17,6.63-2.49,6.65-6.67q.11-31.08,0-62.15c0-4.78-2.28-6.33-9.52-6.93.67-11.77,1.3-23.27,2-34.75.4-7,.86-13.87,1.29-20.81.3-4.93,2.46-7.06,7.42-7.13q5.11-.07,10.22,0C-5416.91,1485.14-5414.49,1487.58-5414.77,1492.88Zm37.76-.31c-.93,13-1.94,26.1-3.48,39.07-3.36,28.49-7.05,56.93-10.61,85.39q-5,39.95-10,79.9c-.09.63-.21,1.24-.34,2h-12.71c.46-8.63.87-17.08,1.36-25.53,1.45-24.45,3-48.9,4.4-73.37q3.19-54.15,6.35-108.3c.26-4.4,2.58-6.54,7.1-6.63,3.54-.07,7.09,0,10.62,0C-5379.26,1485.15-5376.64,1487.44-5377,1492.57Zm-4.72-45.38c-5.1,5.82-5.08,6.92,0,12.85a18,18,0,0,1,4.63,13.17c-15.48-1.35-24.26-1.81-31.7,4.12-2.52-2.13-5.2-4.29-7.79-6.54s-5.22-2-8-.63a18.76,18.76,0,0,1-13.31,1.76,18.86,18.86,0,0,1-13.57-24.39,18.9,18.9,0,0,1,25.24-11.27c.61.25,1.18.56,1.78.83,5.12,2.25,8.63.47,9.88-5,2.18-9.52,8.65-15.6,17.26-16.22a19,19,0,0,1,18.34,10.45A18.67,18.67,0,0,1-5381.73,1447.19Z" transform="translate(5628.56 -1334)"/><rect class="cls-2" x="82.07" y="226.88" width="100.18" height="49.86"/><path class="cls-3" d="M-5549.78,1547.82c-8.23.55-9.61,2-9.62,9.68v56.64c0,7.73,1.69,9.39,9.48,9.41h4.57c1.48,25.26,2.94,50.17,4.42,75.32H-5566c-.35-5.24-.74-10.44-1-15.65q-2.91-50.06-5.8-100.11-2.55-43.38-5.19-86.75a45.85,45.85,0,0,1-.19-5.1,6,6,0,0,1,5.95-6.12c4.45-.18,8.91-.19,13.36,0,3.1.15,5.4,2.12,5.61,5.14C-5552,1509.37-5550.94,1528.45-5549.78,1547.82Z" transform="translate(5628.56 -1334)"/><path class="cls-2" d="M-5443.12,1547.77c.66-11.77,1.29-23.27,2-34.76.4-6.93.86-13.87,1.29-20.8.3-4.93,2.46-7.06,7.42-7.13q5.11-.07,10.23,0c5.3.06,7.74,2.5,7.45,7.79-.79,14.66-1.69,29.32-2.56,44q-2.2,37.1-4.41,74.19-2.49,42.39-4.93,84.79c-.06,1-.31,2-.47,3H-5452c1.47-25.06,2.92-49.89,4.41-75.32,2.51,0,4.94.08,7.36,0,4.18-.17,6.64-2.49,6.65-6.67q.11-31.08,0-62.15C-5433.62,1549.93-5435.88,1548.36-5443.12,1547.77Z" transform="translate(5628.56 -1334)"/><path class="cls-2" d="M-5578.71,1699h-12.83c-1.07-8.24-2.16-16.49-3.19-24.75q-6.21-49.5-12.38-99c-2.93-23.39-5.94-46.77-8.71-70.18a91.26,91.26,0,0,1-.14-13.74c.12-3.72,2.55-6,6.32-6.16,4.05-.14,8.12-.13,12.18,0s6.33,2.36,6.57,6.34c1.1,17.79,2.12,35.58,3.17,53.37q3,50.82,6,101.63C-5580.69,1663.82-5579.72,1681.2-5578.71,1699Z" transform="translate(5628.56 -1334)"/><path class="cls-3" d="M-5401.49,1698.91h-12.72c.47-8.63.88-17.08,1.38-25.52q2.16-36.69,4.38-73.38,3.21-54.15,6.36-108.3c.26-4.41,2.57-6.54,7.11-6.63,3.53-.07,7.07,0,10.61,0,5.11.07,7.73,2.36,7.36,7.49-.93,13-1.95,26.09-3.48,39.08-3.36,28.48-7,56.92-10.61,85.38q-5,39.95-10,79.9C-5401.23,1697.55-5401.36,1698.17-5401.49,1698.91Z" transform="translate(5628.56 -1334)"/><path class="cls-2" d="M-5502.79,1547.79h-34.34c-.54-8.52-1.09-16.85-1.59-25.18-.59-9.67-1.18-19.33-1.7-29-.33-6.27,1.9-8.53,8.25-8.54,7.46,0,14.92-.06,22.38,0,4.29,0,6.94,2.29,7,6.31C-5502.73,1510.1-5502.79,1528.8-5502.79,1547.79Z" transform="translate(5628.56 -1334)"/><path class="cls-3" d="M-5455.8,1547.8c-1.05.09-1.81.2-2.56.2h-31.59c-.09-1.39-.22-2.52-.23-3.65q0-25.53,0-51c0-6.16,2.08-8.22,8.25-8.24,7.33,0,14.65,0,22,0,5.29,0,7.73,2.51,7.43,7.8C-5453.55,1511-5454.68,1529.19-5455.8,1547.8Z" transform="translate(5628.56 -1334)"/><path class="cls-2" d="M-5528.31,1698.84c-1.47-25.06-2.93-50-4.41-75.1h29.66v75.1Z" transform="translate(5628.56 -1334)"/><path class="cls-3" d="M-5460.23,1623.83c-1.48,25.11-2.94,49.93-4.42,75H-5490v-75Z" transform="translate(5628.56 -1334)"/></svg>