<svg width="160" height="176" viewBox="0 0 160 176" fill="none" xmlns="http://www.w3.org/2000/svg">
<g clip-path="url(#clip0_480_358)">
<path d="M73.1183 0H86.1428C86.2985 0.447196 86.6891 0.300723 87.0006 0.324055C91.24 0.667892 95.4428 1.36816 99.5643 2.41744C101.606 2.92685 102.111 3.65013 102.042 5.81093C100.932 7.61138 100.263 7.85637 98.0498 7.3327C80.5429 3.18479 63.5524 4.69619 47.3795 12.6174C18.4534 26.7838 2.24291 56.0083 5.59117 88.0367C7.75326 108.72 17.3931 125.473 33.5089 138.557C33.8982 138.873 34.2499 139.302 34.8158 139.303C37.5151 139.303 40.2145 139.303 43.1656 139.303C42.9752 139.11 42.7747 138.927 42.5648 138.755C24.0442 126.527 13.1611 109.468 10.7135 87.4002C8.59811 68.3277 13.8398 51.2149 25.7469 36.1529C27.0901 34.4535 27.8026 34.3382 29.8907 35.2701C31.0587 36.7945 30.7849 38.1594 29.5922 39.5775C27.4223 42.1595 25.5626 44.9684 23.9015 47.9031C23.2435 49.0697 22.64 50.2544 21.9224 51.5986C22.9152 51.4858 23.2643 50.9142 23.7263 50.537C33.4959 42.5471 47.0174 41.1614 57.7617 47.0281C70.2048 53.8216 75.0299 68.1332 68.6059 80.0053C68.1245 80.8945 68.4463 81.1563 69.2172 81.4843C72.3773 82.8285 74.7976 85.0359 76.3744 88.0742C76.9234 89.1333 77.2829 88.8105 77.9616 88.2713C87.3899 80.8284 99.9381 80.9671 109.172 88.6601C110.157 89.4806 110.47 89.5675 111.192 88.3413C114.085 83.4545 118.453 81.0306 124.164 81.3676C127.957 81.5906 127.918 81.6852 129.163 78.0545C129.538 76.9592 129.5 76.3526 128.384 75.6021C124.985 73.309 123.443 69.9738 123.856 65.8881C124.245 62.0086 126.299 59.1154 129.861 57.5703C131.317 56.9391 131.523 56.1743 131.339 54.8483C130.394 48.0898 128.679 41.5555 125.724 35.379C125.308 34.5106 124.928 33.6291 124.183 32.9395C112.403 22.0409 98.4872 16.0887 82.461 15.4846C65.7275 14.8573 50.8939 20.0992 38.0589 30.8604C36.6521 32.04 35.3336 32.4664 33.7659 31.3257C32.7419 29.2881 32.8431 28.5363 34.468 27.1545C46.754 16.7018 60.9867 10.9919 77.0869 10.3594C95.1727 9.64776 111.218 15.2565 125.105 26.8862C149.487 47.3017 156.738 82.7041 142.365 111.072C141.279 113.213 140.548 113.553 138.29 112.973C136.871 111.677 136.992 110.286 137.812 108.667C143.232 97.9242 145.254 86.502 144.344 74.5599C144.112 71.5138 143.842 68.4404 142.787 65.5213V65.406C142.766 64.8719 142.78 64.3288 142.417 63.8777L142.304 63.3359L142.113 62.7721C141.274 58.0655 137.036 48.5875 135.301 47.6685C136.142 51.2111 136.522 54.7653 136.795 58.3299C136.956 60.4285 136.121 61.3955 134.053 61.6495C131.227 61.9969 129.206 63.8764 128.976 66.3678C128.716 69.1378 130.168 71.2286 132.99 72.1683C135.131 72.8812 135.683 73.8534 135.113 76.0505C134.318 79.1425 133.249 82.1577 131.919 85.0605C130.485 88.1805 129.843 88.4385 126.68 87.1202C121.421 84.9309 115.312 88.3115 114.595 93.8295C114.398 95.3513 114.541 97.026 112.634 97.621C110.615 98.2522 109.806 96.663 108.799 95.4549C102.043 87.3471 90.7109 85.5428 82.4921 91.2643C75.3063 96.2638 73.6815 105.646 78.9141 111.904C82.3701 116.04 88.1569 116.949 92.2812 113.958C94.6458 112.244 95.8527 109.901 95.2856 106.985C94.7418 104.19 93.0794 102.492 90.0231 102.259C88.6176 102.151 87.7909 101.079 87.8896 99.6158C87.9882 98.1524 88.8798 97.341 90.332 97.2385C90.9588 97.2038 91.5875 97.2544 92.2008 97.3889C99.5981 98.934 102.961 107.888 98.665 114.577C94.8612 120.506 86.7592 122.561 80.1548 119.276C71.9633 115.2 68.4022 104.723 72.2955 95.8749C72.9574 94.37 72.934 93.031 72.3695 91.6052C71.2793 88.852 69.3327 86.9725 66.5515 85.9368C65.2862 85.4663 64.2869 85.5376 63.115 86.4799C56.6586 91.6726 47.6715 91.9072 41.145 87.1928C33.6101 81.7487 32.5537 71.2091 38.9466 65.1208C41.1878 62.9859 43.8483 61.8051 46.9811 61.8608C48.4359 61.8867 49.3677 62.6385 49.4988 64.1279C49.6286 65.5862 48.9057 66.5117 47.4717 66.85C47.1931 66.9132 46.9103 66.9565 46.6255 66.9796C43.5446 67.2557 41.6044 69.0393 40.5467 71.7924C39.1386 75.4594 39.9692 78.7739 42.5803 81.6074C46.9928 86.3879 54.8391 86.6718 60.1587 82.3204C66.8825 76.8192 68.2737 66.4831 63.311 58.8976C58.0991 50.9298 47.7948 46.9452 38.0628 49.1358C25.8326 51.8864 16.2096 63.5407 15.5555 76.7842C14.6302 95.4977 20.8919 111.603 33.8333 125.097C38.5183 129.982 43.8716 134.053 50.027 136.986C52.363 138.464 54.7703 139.398 57.6838 139.376C73.043 139.262 88.4048 139.316 103.764 139.336C104.786 139.344 105.797 139.122 106.723 138.688C116.672 134.115 124.955 127.472 131.57 118.758C133.035 116.836 133.656 116.638 135.766 117.37C137.147 119.098 137.173 119.851 135.859 121.597C131.685 127.184 126.693 132.11 121.049 136.211C119.701 137.188 118.335 138.142 116.691 139.309H124.088C124.316 139.294 124.545 139.294 124.772 139.309C125.407 139.39 125.846 139.049 126.293 138.676C149.147 119.55 158.727 95.1685 153.36 65.9037C148.644 40.1932 133.39 22.0681 109.549 11.2408C107.844 10.4631 107.008 9.40406 107.367 7.52843C108.786 5.76686 109.443 5.58409 111.471 6.45515C144.242 20.4543 164.836 55.0258 159.021 92.4373C156.202 110.569 147.795 125.859 134.459 138.46C134.079 138.819 133.55 139.096 133.377 139.747C138.774 141.481 141.728 145.214 142.85 150.539C143.074 151.596 143.482 152.613 143.672 153.675C143.839 154.609 144.321 154.911 145.212 155.165C149.902 156.491 153.009 159.503 154.371 164.214C155.049 166.564 155.683 168.93 156.298 171.298C156.983 173.933 155.967 175.266 153.264 175.266C104.381 175.271 55.4949 175.271 6.60603 175.266C4.00269 175.266 2.97226 173.932 3.62114 171.398C4.25316 168.916 4.90075 166.436 5.6275 163.981C6.74359 160.222 9.01729 157.06 12.7354 155.998C15.8501 155.107 16.6287 153.225 17.07 150.639C17.0895 150.529 17.1543 150.426 17.1777 150.315C18.2497 145.074 21.2657 141.53 26.3621 139.793C26.436 139.768 26.4672 139.615 26.5398 139.481C26.0986 139.053 25.6509 138.62 25.2057 138.185C4.52699 117.856 -3.59319 93.3745 1.45646 64.8356C4.78136 46.0521 14.3044 30.6543 28.894 18.4309C39.5929 9.46499 51.8802 3.78366 65.6535 1.29233C68.1426 0.838651 70.7096 0.87106 73.1183 0ZM21.2929 154.723H48.323C48.7798 154.723 49.2379 154.703 49.6934 154.732C51.2936 154.839 52.2994 155.859 52.2786 157.331C52.2579 158.804 51.23 159.763 49.6117 159.854C49.2133 159.876 48.8123 159.86 48.4125 159.86C38.36 159.86 28.3066 159.86 18.2523 159.86C14.3758 159.86 11.4805 162.086 10.4384 165.784C10.206 166.606 10.0763 167.469 9.75183 168.247C9.10294 169.819 9.58961 170.155 11.2209 170.154C57.0324 170.112 102.844 170.101 148.655 170.12H150.638C150.29 168.809 149.989 167.657 149.681 166.515C148.383 161.784 145.844 159.852 140.906 159.852H61.3942C60.8232 159.852 60.2405 159.906 59.685 159.808C58.3288 159.572 57.5177 158.691 57.4918 157.346C57.4645 155.92 58.2847 154.994 59.7214 154.753C60.2768 154.659 60.8608 154.716 61.4318 154.716H138.63C138.278 153.402 137.981 152.253 137.663 151.108C136.365 146.372 133.835 144.448 128.889 144.448H31.0366C30.5798 144.448 30.1204 144.424 29.6662 144.459C26.4049 144.706 24.0468 146.324 22.8243 149.332C22.1495 151.014 21.8211 152.824 21.2929 154.723Z" fill="#EEEEEE"/>
<path d="M142.778 65.4134C142.778 65.4134 142.778 65.5287 142.778 65.53C142.76 66.2702 142.637 67.0246 142.738 67.7478C143.415 72.5374 143.532 77.3894 143.086 82.2059C142.355 90.1854 140.346 97.7956 136.887 104.988C131.187 116.834 122.672 126.197 111.58 133.277C107.659 135.779 103.573 137.065 98.8617 136.98C88.8689 136.8 78.876 136.918 68.8832 136.929C62.6019 136.935 56.3207 136.971 50.0382 136.993C43.8828 134.06 38.5295 129.994 33.8446 125.104C20.9032 111.611 14.6375 95.5051 15.5667 76.7916C16.2156 63.5481 25.8438 51.8938 38.074 49.1432C47.8073 46.9526 58.1103 50.9372 63.3222 58.9051C68.2849 66.4905 66.8937 76.8266 60.1699 82.3278C54.849 86.6792 46.9975 86.3953 42.5916 81.6149C39.9804 78.7813 39.1499 75.4669 40.5579 71.7999C41.6156 69.0467 43.5558 67.2631 46.6367 66.987C46.9215 66.964 47.2043 66.9206 47.4829 66.8574C48.9104 66.5152 49.6398 65.5897 49.51 64.1353C49.3802 62.6524 48.4471 61.8941 46.9923 61.8682C43.8595 61.8125 41.199 62.9933 38.9578 65.1282C32.565 71.2205 33.6213 81.7523 41.1562 87.2003C47.6762 91.9146 56.6698 91.68 63.1262 86.4874C64.2942 85.545 65.2974 85.4737 66.5627 85.9442C69.3439 86.9812 71.2905 88.8594 72.3807 91.6126C72.9452 93.0385 72.9685 94.3774 72.3067 95.8824C68.4134 104.736 71.9745 115.213 80.1634 119.288C86.7678 122.574 94.8698 120.518 98.6736 114.589C102.969 107.896 99.6093 98.9466 92.2093 97.4015C91.5961 97.2669 90.9674 97.2164 90.3406 97.2512C88.8883 97.3536 87.9968 98.1818 87.8981 99.6284C87.7995 101.075 88.6262 102.164 90.0317 102.271C93.084 102.505 94.7504 104.203 95.2942 106.997C95.8613 109.914 94.6544 112.256 92.2898 113.971C88.1655 116.961 82.3787 116.053 78.9227 111.917C73.6927 105.658 75.3175 96.2764 82.4955 91.2782C90.7143 85.5567 102.046 87.361 108.803 95.4689C109.81 96.6769 110.62 98.2661 112.638 97.6348C114.544 97.0399 114.401 95.3652 114.599 93.8434C115.315 88.3254 121.425 84.9448 126.683 87.1341C129.85 88.4524 130.488 88.1945 131.923 85.0745C133.25 82.1671 134.316 79.1475 135.107 76.0514C135.677 73.8479 135.125 72.8822 132.984 72.1693C130.163 71.2295 128.716 69.1387 128.97 66.3687C129.2 63.8774 131.222 61.9978 134.047 61.6505C136.116 61.3912 136.95 60.4294 136.789 58.3308C136.517 54.7662 136.14 51.212 135.295 47.6694C137.031 48.5885 141.265 58.0664 142.107 62.7743L142.298 63.3368L142.411 63.8786C142.35 64.4321 142.253 64.9947 142.778 65.4134Z" fill="#66DAE9"/>
<path d="M138.287 112.974C137.447 114.443 136.606 115.908 135.765 117.369C133.655 116.636 133.04 116.834 131.569 118.757C124.938 127.454 116.655 134.098 106.722 138.686C105.797 139.12 104.786 139.342 103.763 139.334C88.4042 139.315 73.0424 139.26 57.6832 139.374C54.7697 139.396 52.3624 138.467 50.0264 136.984C56.3089 136.962 62.5901 136.926 68.8714 136.919C78.8642 136.909 88.8649 136.79 98.8564 136.971C103.569 137.056 107.655 135.77 111.575 133.268C122.672 126.188 131.187 116.825 136.881 104.979C140.341 97.7866 142.35 90.1764 143.081 82.1969C143.528 77.3832 143.414 72.5339 142.739 67.7467C142.638 67.0234 142.761 66.269 142.78 65.5288C143.839 68.4466 144.109 71.5199 144.337 74.5661C145.245 86.512 143.225 97.9305 137.805 108.674C136.993 110.287 136.868 111.677 138.287 112.974Z" fill="#3ACBD6"/>
<path d="M142.778 65.4135C142.252 65.0013 142.35 64.4387 142.408 63.8853C142.772 64.3299 142.764 64.873 142.778 65.4135Z" fill="#9C65D4"/>
<path d="M142.295 63.3397L142.104 62.7771L142.295 63.3397Z" fill="#9C65D4"/>
<path d="M123.186 48.8221C123.186 50.6524 122.086 51.5338 120.763 52.1923C118.817 53.1658 116.7 53.7115 114.591 54.1703C112.892 54.541 112.149 55.4302 111.866 57.1127C111.408 59.8594 110.798 62.5867 110.129 65.2919C109.436 68.1021 108.198 69.4398 106.496 69.4865C104.722 69.5383 103.429 68.2162 102.702 65.2815C101.976 62.3469 101.393 59.3941 100.811 56.4348C100.589 55.3032 100.068 54.6538 98.9011 54.3855C97.2931 54.0148 95.7085 53.53 94.1408 53.0128C93.2169 52.7255 92.3287 52.3342 91.4934 51.8462C88.951 50.2907 88.9809 47.5129 91.5479 45.9704C93.479 44.8038 95.667 44.2646 97.8317 43.8278C99.8666 43.4169 100.767 42.4019 101.042 40.3552C101.376 37.882 102.043 35.4529 102.584 33.0082C102.806 32.005 103.112 31.0237 103.654 30.1397C105.098 27.7819 107.677 27.7728 109.172 30.1202C109.856 31.1987 110.146 32.4275 110.418 33.6473C110.95 36.0349 111.493 38.4251 111.888 40.8374C112.147 42.4356 112.855 43.3002 114.503 43.6735C116.709 44.1778 118.949 44.7105 120.98 45.7967C122.26 46.4747 123.228 47.3768 123.186 48.8221ZM113.842 49.0373C108.08 46.9983 108.08 46.9983 106.346 40.1867C105.861 44.7235 104.356 48.3853 98.8466 48.9271C104.275 49.4858 105.886 53.075 106.439 57.6818C106.962 53.0024 108.585 49.5324 113.846 49.0334L113.842 49.0373Z" fill="#EEEEEE"/>
<path d="M98.5558 29.1195C98.5648 31.1368 97.7729 33.0754 96.3535 34.5106C94.9341 35.9458 93.003 36.7605 90.9833 36.7762C86.7409 36.8203 83.1967 33.3607 83.1551 29.1402C83.1149 24.9495 86.65 21.4018 90.8782 21.3836C95.1063 21.3655 98.5662 24.8419 98.5558 29.1195ZM93.3855 29.0961C93.3855 27.6703 92.3589 26.6113 90.9444 26.5866C90.6026 26.5762 90.2622 26.6358 89.9443 26.7615C89.6264 26.8873 89.3375 27.0767 89.0955 27.318C88.8536 27.5593 88.6635 27.8475 88.5371 28.1649C88.4107 28.4823 88.3506 28.8221 88.3605 29.1635C88.3809 29.8237 88.6623 30.4489 89.1432 30.9022C89.6241 31.3555 90.2652 31.6001 90.9262 31.5823C92.3499 31.5693 93.3829 30.5246 93.3855 29.0987V29.0961Z" fill="#EEEEEE"/>
<path d="M73.4912 22.668C74.9382 22.6926 76.2101 24.007 76.1828 25.4471C76.1756 25.8035 76.0979 26.1549 75.9542 26.4812C75.8105 26.8076 75.6037 27.1023 75.3456 27.3485C75.0876 27.5947 74.7833 27.7875 74.4504 27.9159C74.1174 28.0443 73.7623 28.1057 73.4056 28.0966C73.0488 28.096 72.6956 28.0243 72.3669 27.8859C72.0381 27.7474 71.7403 27.5448 71.4907 27.2901C71.2412 27.0353 71.0451 26.7334 70.9137 26.4021C70.7823 26.0707 70.7184 25.7166 70.7257 25.3603C70.7464 23.8916 72.0364 22.6382 73.4912 22.668Z" fill="#EEEEEE"/>
<path d="M90.8236 69.787C92.3498 69.7559 93.6009 70.9172 93.6385 72.3975C93.6748 73.8299 92.4017 75.1689 90.9651 75.2078C90.2449 75.2162 89.5504 74.9415 89.0313 74.4429C88.5122 73.9443 88.2102 73.2618 88.1904 72.5427C88.1736 72.187 88.2292 71.8315 88.354 71.4978C88.4787 71.1642 88.67 70.8592 88.9162 70.6016C89.1623 70.3439 89.4584 70.1389 89.7862 69.9988C90.1141 69.8588 90.467 69.7868 90.8236 69.787Z" fill="#EEEEEE"/>
<path d="M49.9315 36.9552C49.2128 36.9331 48.5306 36.6336 48.0282 36.1198C47.5258 35.6059 47.2423 34.9176 47.2373 34.1994C47.2528 33.4828 47.5471 32.8004 48.0578 32.2969C48.5685 31.7933 49.2554 31.5082 49.973 31.502C50.329 31.5048 50.6809 31.5784 51.008 31.7186C51.3352 31.8588 51.6311 32.0627 51.8784 32.3185C52.1258 32.5742 52.3196 32.8766 52.4486 33.208C52.5775 33.5394 52.6391 33.8932 52.6296 34.2487C52.6313 34.6036 52.5627 34.9553 52.4279 35.2837C52.2931 35.6121 52.0946 35.9106 51.8438 36.1621C51.5931 36.4137 51.2951 36.6132 50.9669 36.7493C50.6387 36.8854 50.2868 36.9553 49.9315 36.9552Z" fill="#EEEEEE"/>
<path d="M118.119 64.0966C116.575 64.0694 115.471 62.9158 115.499 61.359C115.499 61.0024 115.57 60.6494 115.708 60.3206C115.846 59.9919 116.049 59.694 116.304 59.4445C116.559 59.1949 116.861 58.9989 117.193 58.8677C117.525 58.7365 117.88 58.6729 118.237 58.6806C118.594 58.6882 118.945 58.7671 119.271 58.9124C119.597 59.0578 119.891 59.2667 120.135 59.527C120.379 59.7872 120.569 60.0936 120.692 60.428C120.816 60.7624 120.872 61.1182 120.856 61.4744C120.832 63.0195 119.677 64.1239 118.119 64.0966Z" fill="#EEEEEE"/>
</g>
<defs>
<clipPath id="clip0_480_358">
<rect width="160" height="175.27" fill="white"/>
</clipPath>
</defs>
</svg>
