<svg id="Layer_1" data-name="Layer 1" xmlns="http://www.w3.org/2000/svg" viewBox="0 0 380.39 380.51"><defs><style>.cls-1{fill:#66dae9;}.cls-2{fill:#eee;}.cls-3{fill:#3587e9;}</style></defs><circle class="cls-1" cx="190.16" cy="267.6" r="103.55"/><path class="cls-2" d="M-4873.26,1596.1q-.21,11.84-.4,23.66c-2.24,3.83-5.63,4.91-10,4.88-21.32-.15-42.64-.08-63.95,0-1.86,0-4.13-.85-4.81,2.3-3.57,16.63-11.11,31.43-21,45.1a123.4,123.4,0,0,1-51.12,37.26c-13.32,4.13-26.88,6.85-40.91,6.68l-15.19-1.1a126.12,126.12,0,0,1-51.36-21.65c-18.18-14.38-31.73-32.1-39.24-54.19-1.07-3.14-2.36-6.3-2.73-9.55-.51-4.43-2.85-5-6.68-5-20.74.16-41.48.08-62.22.07-8.5,0-10.78-2.23-10.78-10.58q0-28,0-56c0-42.06,23.11-76.89,61.91-93.39.72-.31,1.43-.65,2.56-1.17-21.74-14.05-33.8-33.61-34-59.55a65,65,0,0,1,20.33-48.54c28.53-27.71,72.63-26.11,99.14,3.21,25.85,28.61,24.34,78.82-16.14,104.77l17.24,8.58c6.66,4.79,13.31,9.61,18.92,15.66,1.41,1.52,3,1.45,4.75,1.26,9.13-1,18.31-1.94,27.39-.14,5.89,1.16,9.61-1.27,12.69-5.72a110,110,0,0,1,32.05-19.42l-13-10a82,82,0,0,1-17.17-26.67c-6.35-20.21-4.87-39.7,6-58,14.78-24.85,44.16-37.78,72-32a68.25,68.25,0,0,1,54.28,57.6c3.15,22-3.71,40.82-18.23,57.18a98.26,98.26,0,0,1-15.21,11.8,111.13,111.13,0,0,1,24.74,13.35c13.07,9.51,22.55,22,30.27,36a121.13,121.13,0,0,1,9.69,36.75Zm-207.39,102.64a36.74,36.74,0,0,0,15.19,1.68c5.57.69,11.09-.17,16.54-1,65.85-9.47,103.77-82,73.9-141.5-12-23.93-30.62-40.69-56.2-49.36a46.93,46.93,0,0,0-14.25-3.76c-20.57-4.2-40.3-1.58-59.25,7.32-10.56,4.28-19.51,10.95-27.68,18.76-39.74,38-39.92,104.36-.38,141.08a77.47,77.47,0,0,0,17.35,13.84C-5104.66,1692.31-5093.31,1697.33-5080.65,1698.74Zm140.78-252.81c12.7-9.46,19.31-22.4,20.61-37.9a53.15,53.15,0,0,0-32.83-53.23,53.21,53.21,0,0,0-61.34,15.58c-14.45,17.5-16.15,44.24-3.9,61.4a35.4,35.4,0,0,0,10.64,12.48,36,36,0,0,0,13.38,8.35C-4974.2,1460.72-4956.4,1458.4-4939.87,1445.93Zm51,105.47a78.63,78.63,0,0,0-8.9-33.12c-14.64-27.61-37.82-42.9-68.78-45.53-21.31-1.82-40.59,4.61-57.55,17.76-2.27,1.77-3.5,2.89.45,4.46,46.49,18.4,74.65,60.16,74.05,109.85,0,4,1.23,4.64,4.78,4.61,16.62-.17,33.24,0,49.85-.11,6.89,0,6.33,1.67,6.33-6.64a7.8,7.8,0,0,0-.12-.94Q-4888.84,1576.57-4888.89,1551.4Zm-218.28-62.93c-.22-2.16-2.2-2.59-3.59-3.42-16.68-10-34.62-14.17-54.07-11.84-41.21,4.94-72.94,39.8-73.54,81.26-.24,16.94,0,33.88-.15,50.82,0,3.44,1.05,4.17,4.28,4.14,17.1-.16,34.21-.28,51.3.06,4.83.09,5.52-1.43,5.48-5.83-.29-31.74,10.89-59,32.83-81.89,10.66-11.14,23.47-19.16,37.36-25.6l8.42-2.87C-5102.46,1491.52-5103.82,1488.53-5107.17,1488.47Zm5.6-84.53a53.35,53.35,0,0,0-53.32-53.1,53.37,53.37,0,0,0-53.12,53.3,53.46,53.46,0,0,0,53.33,53.13A53.38,53.38,0,0,0-5101.57,1403.94Z" transform="translate(5253.66 -1335.44)"/><path class="cls-3" d="M-5080.75,1678.71c-3.38,3.22-7.07,3.35-11.36,1.75-16.33-6.08-29.37-16.44-39.88-30.16-9.45-14.46-15-30.14-15.2-47.57,0-3.47,1.14-6.17,4.34-7.76a7.05,7.05,0,0,1,8,.91,7.92,7.92,0,0,1,2.91,6.69,45.64,45.64,0,0,0,1.57,12.62c5.05,24.31,19.4,40.85,42.19,50.27,2.92,1.21,6,2.15,7.92,4.88A10.52,10.52,0,0,1-5080.75,1678.71Z" transform="translate(5253.66 -1335.44)"/></svg>