<svg id="Layer_1" data-name="Layer 1" xmlns="http://www.w3.org/2000/svg" viewBox="0 0 359.52 359.39"><defs><style>.cls-1{fill:#eee;}.cls-2{fill:#66dae9;}.cls-3{fill:#3587e9;}</style></defs><path class="cls-1" d="M-5480.13,2569.73c.56-3.19,1-6.41,1.68-9.59,7.92-38.15,42.15-71,80.49-77.17a102.49,102.49,0,0,1,15.38-1c20-.11,40,0,60,0h4.09v-23.88h11.73c0-5.23.42-10-.11-14.74-.62-5.37-5.68-9.17-11.58-9.23-9.7-.11-19.41,0-29.12-.06-12.08-.13-21.37-7.37-24.1-18.61-3.27-13.48,6.2-27.3,19.93-29a54.68,54.68,0,0,1,6.65-.38q45.6,0,91.22,0c7.39,0,12.51-4.11,13.15-10.4.78-7.65-4.46-13.43-12.55-13.54-9.24-.12-18.48,0-27.72,0-15.33,0-25.32-9.83-25.42-25.12-.05-7.58.23-15.16.35-22.74h11.23c.14,2,.36,3.93.38,5.89.05,5.85-.07,11.7.05,17.55.16,7.73,4.92,12.4,12.6,12.44,9.7.05,19.41-.14,29.12.07,9.52.2,16.93,4.43,21.34,13,4.18,8.09,3.77,16.31-1.16,24a22.63,22.63,0,0,1-18,10.77c-1.74.15-3.5.15-5.26.15q-44.9,0-89.81,0a24.13,24.13,0,0,0-6.59.68c-5.19,1.49-8.39,6.52-8.08,12.16a11.62,11.62,0,0,0,9.39,10.78,25.41,25.41,0,0,0,4.53.37c9,0,18-.07,27,0,14.71.17,24.5,10,24.82,24.7.08,3.6,0,7.2,0,11.13h11.93v24h4.19c20.24,0,40.47.35,60.7-.07,47.9-1,89.81,40.75,96,82.71,7.25,48.83-26.57,97.15-75.15,106.91-25,5-48.28.85-70.12-12.15q-33.63-20-67.31.08c-57.95,34.65-130.57,2.66-144.25-63.59-.68-3.3-1.14-6.65-1.71-10Zm179.69-75.81c-27.37,0-54.75.13-82.12-.06-16.81-.11-32.22,4.31-45.78,14.09-28.71,20.71-44.35,47.66-38.49,84.24,7.33,45.87,53.72,77.48,99.19,67.75,10.29-2.21,19.67-6.4,28.77-11.61,25.45-14.58,51.27-14.9,76.59-.07,20.08,11.76,41.07,16.21,63.92,11.34,42.26-9,71.27-51,64.83-93.63-5.42-35.92-42.67-72.92-83.75-72.15C-5245,2494.34-5272.72,2493.92-5300.44,2493.92Zm-5.8-12.2h11.54v-11.57h-11.54Z" transform="translate(5480.13 -2314.2)"/><path class="cls-2" d="M-5300.44,2493.92c27.72,0,55.45.42,83.16-.1,41.08-.77,78.33,36.23,83.75,72.15,6.44,42.67-22.57,84.64-64.83,93.63-22.85,4.87-43.84.42-63.92-11.34-25.32-14.83-51.14-14.51-76.59.07-9.1,5.21-18.48,9.4-28.77,11.61-45.47,9.73-91.86-21.88-99.19-67.75-5.86-36.58,9.78-63.53,38.49-84.24,13.56-9.78,29-14.2,45.78-14.09C-5355.19,2494.05-5327.81,2493.92-5300.44,2493.92Zm-101.79,65.93c-8.06,0-15.65,0-23.23,0-4.16,0-6.63,2.06-6.71,6q-.27,11.92,0,23.86c.08,3.77,2.54,5.9,6.42,6,6,.09,11.93,0,17.89,0h5.62c0,7.55,0,14.56,0,21.57,0,6.65,1.83,8.45,8.61,8.47q9.46,0,18.95,0c6.46,0,8.3-1.88,8.31-8.39,0-7.1,0-14.2,0-21.64,8,0,15.54,0,23.11,0,4.48,0,6.83-2.24,6.89-6.62q.16-11.4,0-22.81c-.07-4.17-2.46-6.33-6.68-6.43-1.4,0-2.81,0-4.21,0h-19.11c0-7.81,0-15.15,0-22.5,0-5.38-2.07-7.5-7.36-7.53q-10.53-.06-21.05,0c-5.33,0-7.43,2.14-7.45,7.46C-5402.25,2544.64-5402.23,2552-5402.23,2559.85Zm185.48,30a24,24,0,0,0-23.84,24,24.18,24.18,0,0,0,24,23.92,24.09,24.09,0,0,0,24-24.22A23.9,23.9,0,0,0-5216.75,2589.81Zm-65.65-12.13a23.89,23.89,0,0,0,23.72,24,24.08,24.08,0,0,0,24.14-23.7,24.14,24.14,0,0,0-24-24.24A24,24,0,0,0-5282.4,2577.68Zm65.69-12a23.88,23.88,0,0,0,24.06-23.69,24.07,24.07,0,0,0-23.66-24.17,24.13,24.13,0,0,0-24.27,24A24,24,0,0,0-5216.71,2565.71Zm65.9,12.15a23.93,23.93,0,0,0-23.68-24.08,24.09,24.09,0,0,0-24.14,23.71,24,24,0,0,0,23.93,24.23A23.88,23.88,0,0,0-5150.81,2577.86Z" transform="translate(5480.13 -2314.2)"/><path class="cls-1" d="M-5402.23,2559.85c0-7.86,0-15.21,0-22.57,0-5.32,2.12-7.44,7.45-7.46q10.53-.06,21.05,0c5.29,0,7.35,2.15,7.36,7.53,0,7.35,0,14.69,0,22.5h19.11c1.4,0,2.81,0,4.21,0,4.22.1,6.61,2.26,6.68,6.43q.16,11.41,0,22.81c-.06,4.38-2.41,6.58-6.89,6.62-7.57.05-15.14,0-23.11,0,0,7.44,0,14.54,0,21.64,0,6.51-1.85,8.38-8.31,8.39s-12.64,0-18.95,0c-6.78,0-8.61-1.82-8.61-8.47,0-7,0-14,0-21.57h-5.62c-6,0-11.93.06-17.89,0-3.88-.06-6.34-2.19-6.42-6q-.27-11.92,0-23.86c.08-4,2.55-6,6.71-6C-5417.88,2559.82-5410.29,2559.85-5402.23,2559.85Zm23.91,53.75c0-7.41,0-14.62,0-21.84,0-6,1.95-8,8-8h21.81v-11.95h-18.77c-10.11,0-11-.91-11-11V2542h-12c0,7.27,0,14.36,0,21.46,0,6.52-1.85,8.38-8.3,8.39H-5420v11.95h18.1c11.11,0,11.65.55,11.65,11.65v18.18Z" transform="translate(5480.13 -2314.2)"/><path class="cls-1" d="M-5216.75,2589.81a23.9,23.9,0,0,1,24.1,23.66,24.09,24.09,0,0,1-24,24.22,24.18,24.18,0,0,1-24-23.92A24,24,0,0,1-5216.75,2589.81Zm12.08,23.92a11.83,11.83,0,0,0-12-11.92,11.9,11.9,0,0,0-11.91,11.71,12.13,12.13,0,0,0,11.88,12.19A12,12,0,0,0-5204.67,2613.73Z" transform="translate(5480.13 -2314.2)"/><path class="cls-1" d="M-5282.4,2577.68a24,24,0,0,1,23.88-23.9,24.14,24.14,0,0,1,24,24.24,24.08,24.08,0,0,1-24.14,23.7A23.89,23.89,0,0,1-5282.4,2577.68Zm12,.15a11.79,11.79,0,0,0,12.05,11.86,12,12,0,0,0,11.85-11.82,12.13,12.13,0,0,0-12-12.09A11.91,11.91,0,0,0-5270.41,2577.83Z" transform="translate(5480.13 -2314.2)"/><path class="cls-1" d="M-5216.71,2565.71a24,24,0,0,1-23.87-23.91,24.13,24.13,0,0,1,24.27-24,24.07,24.07,0,0,1,23.66,24.17A23.88,23.88,0,0,1-5216.71,2565.71Zm.22-12a11.82,11.82,0,0,0,11.81-12.11,12,12,0,0,0-11.86-11.8,12.13,12.13,0,0,0-12.05,12A11.94,11.94,0,0,0-5216.49,2553.73Z" transform="translate(5480.13 -2314.2)"/><path class="cls-1" d="M-5150.81,2577.86a23.88,23.88,0,0,1-23.89,23.86,24,24,0,0,1-23.93-24.23,24.09,24.09,0,0,1,24.14-23.71A23.93,23.93,0,0,1-5150.81,2577.86Zm-12,0a11.93,11.93,0,0,0-11.86-12.12,12.08,12.08,0,0,0-12,12,12,12,0,0,0,11.76,11.89A11.82,11.82,0,0,0-5162.78,2577.9Z" transform="translate(5480.13 -2314.2)"/><path class="cls-3" d="M-5378.32,2613.6h-12v-18.18c0-11.1-.54-11.65-11.65-11.65H-5420v-11.95h21.45c6.45,0,8.29-1.87,8.3-8.39,0-7.1,0-14.19,0-21.46h12v18.9c0,10,.91,11,11,11h18.77v11.95h-21.81c-6,0-8,1.94-8,8C-5378.33,2599-5378.32,2606.19-5378.32,2613.6Z" transform="translate(5480.13 -2314.2)"/></svg>