<svg id="Layer_1" data-name="Layer 1" xmlns="http://www.w3.org/2000/svg" viewBox="0 0 405.47 365.11"><defs><style>.cls-1,.cls-5{fill:#3587e9;}.cls-1,.cls-4{stroke:#eee;stroke-miterlimit:10;}.cls-1{stroke-width:12px;}.cls-2{fill:#66dae9;}.cls-3{fill:#eee;}.cls-4{fill:none;stroke-width:14px;}</style></defs><circle class="cls-1" cx="201.35" cy="261.65" r="71.97"/><path class="cls-2" d="M-3296,2476.1c-.95,0-1.91,0-2.86-.13-14.11-1.32-25.35-12.88-25.59-26.33-.36-20.39-.46-41.11-.56-61.15q0-11.09-.11-22.17a9.12,9.12,0,0,1,.38-2.49,3.84,3.84,0,0,0,.11-.4l.86-3.94h48.58l1.37,13.58c.68,6.7,1.35,13.35,2,20,.38,3.82.78,7.63,1.17,11.45,1,10.06,2.12,20.45,2.88,30.74.41,5.49.69,12.68-.77,19.57C-3271.15,2467.36-3282.44,2476.1-3296,2476.1Z" transform="translate(3497.59 -2309.75)"/><path class="cls-3" d="M-3279.67,2364.49c1,9.8,2,19.44,2.93,29.08,1.39,14,3,28,4,42.07.45,6,.56,12.31-.68,18.16-2.22,10.5-11.81,17.3-22.57,17.3-.79,0-1.59,0-2.39-.11-11.2-1-20.86-10.32-21.06-21.44-.49-27.75-.49-55.51-.67-83.26a8.87,8.87,0,0,1,.37-1.8h40m9-10h-57.14l-1.71,7.87,0,.16a13.4,13.4,0,0,0-.56,3.84q.06,11.08.11,22.19c.1,20,.2,40.77.56,61.18.29,15.95,13.52,29.67,30.13,31.22,1.1.1,2.22.15,3.32.15,15.9,0,29.21-10.37,32.36-25.22,1.59-7.51,1.3-15.16.87-21-.77-10.36-1.85-20.79-2.89-30.88q-.6-5.71-1.17-11.43c-.66-6.66-1.33-13.31-2-20l-.92-9.09-.91-9Z" transform="translate(3497.59 -2309.75)"/><path class="cls-2" d="M-3409,2476.14a28.88,28.88,0,0,1-20.8-8.77,27,27,0,0,1-7.49-20.06c.44-10,2.07-20.07,3.64-29.76l.72-4.42c1.8-11.3,3.85-22.73,5.84-33.79.75-4.21,1.51-8.43,2.25-12.65a22.74,22.74,0,0,1,.67-2.6l.27-.93,1-3.66h49.25l-.44,5.4c-.22,2.67-.44,5.31-.66,7.94-.48,5.8-.94,11.28-1.35,16.88q-.51,7-1,14.07c-1.09,14.46-2.21,29.41-3.07,44.11-.94,16.1-13.31,28.24-28.75,28.24Z" transform="translate(3497.59 -2309.75)"/><path class="cls-3" d="M-3379.07,2364.5c-.68,8.43-1.4,16.64-2,24.85-1.43,19.42-3,38.83-4.12,58.26-.78,13.33-10.77,23.53-23.76,23.53h-.05c-13.09,0-23.88-10.23-23.3-23.62.48-11.24,2.51-22.45,4.29-33.6,2.48-15.49,5.36-30.91,8.09-46.36.17-1,.52-1.95.83-3.06h40m10.85-10h-58.48l-2,7.33q-.12.42-.24.81a26.11,26.11,0,0,0-.8,3.18q-1.12,6.33-2.26,12.65c-2,11.07-4,22.52-5.85,33.87-.23,1.47-.47,2.93-.71,4.4-1.6,9.84-3.26,20-3.7,30.35a32,32,0,0,0,8.86,23.73,34,34,0,0,0,24.41,10.32h.07c18.13,0,32.64-14.16,33.74-32.95.86-14.65,2-29.59,3.06-44,.35-4.69.71-9.38,1.05-14.08.41-5.58.87-11.06,1.35-16.87.22-2.62.44-5.25.65-7.91l.88-10.8Z" transform="translate(3497.59 -2309.75)"/><path class="cls-2" d="M-3352.72,2476.1a32.63,32.63,0,0,1-3.93-.24c-14.41-1.75-24.8-13.93-24.72-29,0-8.28.72-16.61,1.37-24.65l.28-3.52c1-12.76,2.14-25.71,3.22-38.24l1.06-12.14c.09-1.12.25-2.18.4-3.2.07-.43.13-.86.19-1.29l.59-4.33H-3325l.31,4.67c0,.32.05.62.07.91,0,.67.11,1.36.11,2.11q.06,11.1.13,22.19c.11,18.73.22,38.09.19,57.14C-3324.25,2463.67-3336.23,2476.1-3352.72,2476.1Z" transform="translate(3497.59 -2309.75)"/><path class="cls-3" d="M-3329.72,2364.52c.07,1,.17,1.88.17,2.71.13,26.44.37,52.87.32,79.3,0,14.49-10.1,24.57-23.49,24.57a27.07,27.07,0,0,1-3.33-.21c-11.65-1.41-20.39-11.32-20.32-24,.06-9.28.91-18.55,1.64-27.81,1.32-16.79,2.82-33.56,4.27-50.34.12-1.42.37-2.82.56-4.25h40.18m9.37-10h-58.28l-1.17,8.65-.18,1.23c-.16,1-.34,2.24-.45,3.51q-.51,6-1,12.08c-1.09,12.56-2.22,25.54-3.23,38.33-.09,1.17-.19,2.34-.28,3.51-.66,8.14-1.34,16.56-1.39,25-.1,17.62,12.14,31.9,29.11,34a38.82,38.82,0,0,0,4.54.28c19.07,0,33.46-14.85,33.49-34.55,0-19.07-.08-38.44-.19-57.18q-.07-11.09-.13-22.18c0-.94-.07-1.76-.13-2.49,0-.26,0-.54-.06-.83l-.61-9.35Z" transform="translate(3497.59 -2309.75)"/><path class="cls-2" d="M-3238.09,2476l-1,0a28.25,28.25,0,0,1-27.35-25.43c-2-21.65-3.88-43.66-5.74-65l-1.72-19.64a6.34,6.34,0,0,1,.37-2.61.75.75,0,0,0,.05-.16l1-3.69h47.88s5.35,27.75,6.69,34.75c.71,3.69,1.45,7.39,2.18,11.08,1.81,9.14,3.69,18.59,5.19,28a66.71,66.71,0,0,1,.48,19.13C-3211.8,2465.92-3223.86,2476-3238.09,2476Z" transform="translate(3497.59 -2309.75)"/><path class="cls-3" d="M-3228.71,2364.53q3,15.33,5.91,30.69c2.5,13,5.26,25.89,7.34,38.92a62.18,62.18,0,0,1,.46,17.7c-1.47,11.23-11.61,19.2-23.09,19.2h-.81a23.25,23.25,0,0,1-22.54-20.89c-2.56-28.19-5-56.39-7.46-84.58a4.34,4.34,0,0,1,.27-1h39.92m8.25-10h-55.83l-2,7.26a11.2,11.2,0,0,0-.61,4.64q.87,9.9,1.73,19.81c1.86,21.24,3.77,43.2,5.74,64.81a33.24,33.24,0,0,0,32.16,30l1.14,0c16.73,0,30.92-12,33-27.9a71.64,71.64,0,0,0-.49-20.57c-1.52-9.5-3.4-19-5.23-28.2-.72-3.62-1.46-7.36-2.17-11q-2-10.48-4-21l-1.87-9.74-1.57-8.1Z" transform="translate(3497.59 -2309.75)"/><path class="cls-2" d="M-3463.95,2476c-15.58,0-28.15-12-28.61-27.21a57.64,57.64,0,0,1,1.72-16c4.41-17.12,9.1-34.51,13.63-51.33q2.46-9.14,4.93-18.32l1-3.7h49.93l-2.54,14.5c-1.13,6.48-2.25,12.88-3.39,19.28q-1.12,6.36-2.27,12.7c-1.71,9.44-3.47,19.2-5,28.81a78,78,0,0,0-.72,10.15q0,1.79-.12,3.57a28.25,28.25,0,0,1-28.38,27.53Z" transform="translate(3497.59 -2309.75)"/><path class="cls-3" d="M-3427.31,2364.46c-1.66,9.46-3.26,18.69-4.9,27.91-2.45,13.86-5.07,27.69-7.32,41.58-.76,4.7-.69,9.54-.89,14.32a23.28,23.28,0,0,1-23.41,22.73h-.12c-12.85,0-23.22-9.57-23.61-22.37a52.57,52.57,0,0,1,1.56-14.57c6-23.17,12.29-46.25,18.55-69.6h40.14m11.91-10h-59.73l-2,7.41q-2.44,9.14-4.9,18.23c-4.55,16.86-9.25,34.29-13.68,51.46a63.12,63.12,0,0,0-1.87,17.38c.55,18,15.31,32.06,33.61,32.06h.17a33.19,33.19,0,0,0,33.35-32.32c0-1.21.09-2.43.12-3.65a76.62,76.62,0,0,1,.65-9.48c1.56-9.58,3.32-19.33,5-28.76q1.16-6.33,2.28-12.68c1.13-6.36,2.24-12.73,3.37-19.18l1.53-8.75,2.06-11.72Z" transform="translate(3497.59 -2309.75)"/><path class="cls-2" d="M-3182.71,2476.13c-15.37,0-27.78-11.55-28.24-26.31-.42-13.17-3.12-26.35-5.72-39.1-1.39-6.78-2.82-13.78-3.92-20.79-.87-5.49-1.92-10.89-3-16.6-.51-2.61-1-5.23-1.52-7.88l-1.11-5.92h49.86l4.76,16.74,9.33,32.88c.58,2,1.18,4.08,1.77,6.12,1.56,5.31,3.17,10.8,4.44,16.35a72,72,0,0,1,2,16.1,28.09,28.09,0,0,1-27.51,28.4Z" transform="translate(3497.59 -2309.75)"/><path class="cls-3" d="M-3180.18,2364.53q6.53,23,13.06,46c2.1,7.4,4.43,14.74,6.15,22.23a67.05,67.05,0,0,1,1.85,15,23.1,23.1,0,0,1-22.69,23.4h-.9c-12.14,0-22.85-9-23.25-21.46-.65-20.66-6.53-40.34-9.69-60.51-1.28-8.16-3-16.25-4.58-24.63h40.05m7.55-10h-59.66l2.23,11.84c.5,2.67,1,5.3,1.52,7.92,1.11,5.66,2.16,11,3,16.42,1.11,7.12,2.56,14.18,4,21,2.68,13.12,5.22,25.51,5.62,38.26.55,17.47,15.15,31.15,33.24,31.15.42,0,.84,0,1.26,0a33,33,0,0,0,32.33-33.38,76.72,76.72,0,0,0-2.11-17.23c-1.3-5.69-2.93-11.26-4.51-16.64-.59-2-1.18-4.05-1.76-6.07q-4.59-16.2-9.19-32.37l-3.87-13.63-2.07-7.26Z" transform="translate(3497.59 -2309.75)"/><path class="cls-2" d="M-3127,2475.91c-13.14,0-23.81-8.41-27.17-21.44,0-.12-.07-.24-.1-.36a9.4,9.4,0,0,1-.5-3.26c.56-11.11-2.67-21.52-6.1-32.54-1.39-4.49-2.84-9.14-4-13.83-2.2-8.85-4.66-17.48-7.27-26.63-1.15-4-2.32-8.1-3.46-12.21l-1.76-6.34h21.69c6.79,0,14.82,0,22.82.11,3.27,0,6.24,2.76,7.23,5.37,2.49,6.6,5.11,13.3,7.63,19.77,6.69,17.14,13.6,34.86,19.1,52.78,2.72,8.84,2.22,17.09-1.45,23.86-3.49,6.46-9.66,11.11-17.84,13.46A32,32,0,0,1-3127,2475.91Z" transform="translate(3497.59 -2309.75)"/><path class="cls-3" d="M-3155.69,2364.29c7.67,0,15.24,0,22.82.11a3.76,3.76,0,0,1,2.61,2.13c9.08,24,19.1,47.76,26.63,72.26,4.49,14.59-1.19,26.82-15.89,31.05a27.19,27.19,0,0,1-7.44,1.07c-10.6,0-19.5-6.75-22.33-17.69a7.29,7.29,0,0,1-.44-2.12c.84-16.85-6.32-32-10.25-47.82-3.21-12.93-7.07-25.7-10.76-39h15m0-10h-28.21l3.52,12.68c1.16,4.14,2.33,8.27,3.47,12.26,2.6,9.1,5,17.68,7.23,26.44,1.19,4.84,2.66,9.55,4.08,14.11,3.29,10.59,6.39,20.58,5.88,30.81a14.05,14.05,0,0,0,.7,4.94l.06.2c3.88,15.05,16.74,25.17,32,25.17a37,37,0,0,0,10.2-1.46c9.5-2.73,16.71-8.23,20.86-15.88,4.32-8,5-17.56,1.83-27.72-5.56-18.1-12.5-35.91-19.22-53.13-2.52-6.46-5.13-13.15-7.61-19.72-1.6-4.23-6.18-8.54-11.86-8.6-8-.09-16.1-.11-22.93-.11Z" transform="translate(3497.59 -2309.75)"/><path class="cls-3" d="M-3327.28,2568.83v-21.58h10.82c.06,1,.16,1.83.16,2.71,0,13.14,0,26.29,0,39.44,0,3-.65,5.6-3.79,6.44s-5.42-.64-7-3.47c-3.41-6.09-6.93-12.14-11-18.08V2596h-11v-41.17c0-4.69,1.13-6.87,4.15-7.57,4-.92,5.68,1.8,7.31,4.68,3.12,5.53,6.31,11,9.49,16.5C-3328,2568.56-3327.75,2568.6-3327.28,2568.83Z" transform="translate(3497.59 -2309.75)"/><path class="cls-3" d="M-3299.9,2579.57v16.24h-10.94v-10.26q0-15.83,0-31.64c0-4.9,1.92-6.86,6.76-6.89,8.5,0,17,0,25.74,0v10.83h-21.34v10.87h21.31v10.86Z" transform="translate(3497.59 -2309.75)"/><path class="cls-3" d="M-3272.48,2558v-10.78h32.31v10.64h-10.55v37.91h-11V2558Z" transform="translate(3497.59 -2309.75)"/><path class="cls-4" d="M-3133.16,2475.4v144.08c0,26.72-25,48.38-55.89,48.38h-211.68c-30.87,0-55.89-21.66-55.89-48.38V2475.1" transform="translate(3497.59 -2309.75)"/><path class="cls-5" d="M-3470.38,2357.3V2343a28.3,28.3,0,0,1,28.26-28.26h285.69a28.3,28.3,0,0,1,28.27,28.26v14.29Z" transform="translate(3497.59 -2309.75)"/><path class="cls-3" d="M-3156.43,2319.75a23.27,23.27,0,0,1,23.27,23.26v9.29h-332.22V2343a23.27,23.27,0,0,1,23.26-23.26h285.69m0-10h-285.69a33.3,33.3,0,0,0-33.26,33.26v19.29h352.22V2343a33.31,33.31,0,0,0-33.27-33.26Z" transform="translate(3497.59 -2309.75)"/></svg>