<?xml version="1.0" standalone="no"?>
<!DOCTYPE svg PUBLIC "-//W3C//DTD SVG 20010904//EN"
 "http://www.w3.org/TR/2001/REC-SVG-20010904/DTD/svg10.dtd">
<svg version="1.0" xmlns="http://www.w3.org/2000/svg"
 width="374.000000pt" height="374.000000pt" viewBox="0 0 374.000000 374.000000"
 preserveAspectRatio="xMidYMid meet">
<metadata>
Created by potrace 1.14, written by Peter Selinger 2001-2017
</metadata>
<g transform="translate(0.000000,374.000000) scale(0.100000,-0.100000)"
fill="#000000" stroke="none">
<path d="M1675 3732 c-36 -5 -68 -26 -72 -49 -10 -50 -9 -103 1 -103 8 0 8 -2
0 -8 -11 -8 -12 -52 0 -70 4 -7 4 -12 -1 -12 -11 0 -10 -101 1 -119 6 -9 5
-12 -2 -7 -7 4 -7 -3 1 -24 10 -26 17 -33 30 -29 1 0 14 -4 28 -10 15 -5 30
-7 33 -3 9 9 197 10 222 1 11 -4 28 -3 37 2 9 6 17 6 17 2 0 -4 12 -8 28 -9
32 -1 107 -11 142 -19 14 -3 34 -8 45 -9 11 -2 32 -9 48 -15 15 -6 27 -9 27
-7 0 3 24 -5 53 -15 28 -11 60 -22 70 -24 9 -2 23 -7 30 -12 6 -4 14 -8 17 -8
8 -2 125 -60 130 -65 3 -3 17 -11 33 -19 15 -8 27 -18 27 -23 0 -4 5 -8 10 -8
13 0 69 -38 91 -62 9 -10 20 -18 24 -18 4 0 30 -22 57 -50 27 -27 54 -50 59
-50 5 0 9 -3 9 -7 0 -5 16 -25 36 -47 47 -51 114 -143 114 -156 0 -5 4 -10 10
-10 5 0 17 -15 25 -32 9 -18 33 -62 53 -98 21 -36 52 -102 69 -145 41 -105 45
-117 49 -135 5 -25 12 -55 14 -55 3 0 9 -39 12 -67 1 -16 5 -28 8 -28 11 0 18
-287 9 -360 -4 -30 -10 -73 -13 -95 -3 -22 -9 -55 -15 -73 -5 -18 -10 -35 -10
-37 -1 -25 -15 -75 -20 -75 -4 0 -8 -6 -9 -12 -5 -60 -115 -301 -159 -350 -9
-10 -12 -18 -7 -18 5 0 4 -4 -2 -8 -6 -4 -35 -38 -65 -77 -79 -104 -185 -206
-284 -275 -27 -19 -52 -38 -55 -41 -7 -9 -166 -96 -187 -103 -10 -3 -21 -5
-24 -3 -4 1 -16 -7 -28 -17 -12 -11 -21 -16 -21 -13 0 4 -21 -3 -46 -13 -25
-11 -60 -22 -77 -25 -16 -3 -34 -8 -39 -11 -10 -7 -64 -17 -90 -18 -10 0 -18
-4 -18 -9 0 -4 -8 -4 -17 1 -15 9 -17 29 -15 172 1 167 7 232 23 261 9 18 79
55 119 63 46 9 71 15 90 21 10 3 27 7 37 9 27 6 137 48 149 57 6 5 14 6 17 2
4 -3 7 -1 7 5 0 7 5 12 11 12 29 0 259 173 259 195 0 3 10 16 23 28 28 28 74
89 75 101 0 5 4 12 9 15 10 6 66 117 69 136 1 5 8 24 15 40 7 17 13 37 14 45
0 8 5 26 10 40 4 14 9 41 11 60 1 19 3 35 4 35 1 0 3 33 4 73 1 45 -2 72 -8
72 -6 0 -5 4 3 9 8 5 10 14 5 22 -4 7 -9 25 -10 39 -4 42 -16 94 -25 111 -4 9
-6 19 -2 22 3 4 0 13 -7 22 -7 8 -9 15 -5 15 4 0 2 7 -5 15 -7 8 -9 15 -5 15
4 0 2 7 -5 15 -7 8 -9 15 -6 15 4 0 0 7 -8 16 -9 8 -14 19 -11 24 3 4 -2 13
-10 20 -8 7 -12 16 -9 21 3 5 1 9 -4 9 -5 0 -15 14 -22 30 -7 17 -17 30 -23
30 -6 0 -8 3 -4 6 6 6 -10 25 -89 107 -76 78 -103 99 -193 149 -20 11 -40 23
-46 26 -5 4 -12 7 -15 8 -5 1 -45 16 -80 31 -18 7 -39 13 -65 16 -12 2 -25 6
-30 9 -6 3 -35 9 -65 13 -30 3 -73 9 -95 12 -71 9 -460 8 -472 -1 -8 -5 -13
-4 -13 2 0 5 -9 8 -20 5 -27 -7 -69 -62 -65 -85 2 -10 -1 -18 -6 -18 -6 0 -6
-8 1 -20 6 -11 7 -20 2 -20 -4 0 -7 -60 -7 -132 1 -141 9 -173 48 -187 12 -5
109 -8 215 -7 107 0 196 -3 199 -7 3 -4 11 -3 19 4 8 6 14 8 14 3 0 -5 21 -10
48 -10 58 -2 85 -7 142 -30 53 -21 130 -71 130 -84 0 -6 7 -10 15 -10 8 0 15
-4 15 -9 0 -5 6 -16 13 -23 18 -19 53 -87 67 -131 13 -42 22 -186 12 -202 -3
-5 -7 -16 -8 -25 -5 -32 -13 -60 -25 -82 -7 -13 -12 -26 -11 -29 0 -4 -23 -33
-52 -65 -62 -67 -159 -123 -228 -130 -10 -1 -19 -3 -20 -4 -2 -1 -42 -3 -91
-5 -48 -1 -90 -5 -93 -8 -3 -3 -19 -1 -35 3 -16 5 -29 5 -29 1 0 -5 -18 -5
-40 -1 -25 5 -40 4 -40 -3 0 -6 -5 -5 -13 1 -7 6 -18 7 -27 2 -7 -4 -23 -5
-34 -1 -30 10 -120 5 -145 -8 -48 -26 -48 -24 -46 -696 1 -347 3 -631 5 -632
1 -2 3 -8 4 -15 2 -21 67 -58 105 -59 136 -5 294 1 401 16 19 3 49 7 65 9 17
2 50 9 75 15 25 7 55 14 67 16 12 3 34 10 48 15 14 5 25 8 25 5 0 -2 27 7 59
20 33 13 62 20 65 17 3 -3 6 0 6 6 0 7 7 12 16 12 26 0 226 104 321 167 87 57
104 69 149 108 12 11 39 34 60 50 37 30 166 157 194 191 8 11 31 39 50 64 19
25 37 47 40 50 3 3 20 28 38 55 17 28 35 55 39 60 5 6 15 24 23 40 8 17 17 32
20 35 13 12 122 250 114 250 -2 0 2 14 11 30 9 17 13 30 9 30 -4 0 -1 6 5 13
6 8 12 22 14 33 2 10 9 37 15 59 6 22 13 51 16 65 3 14 8 36 11 50 11 45 25
141 29 195 1 17 5 36 10 43 4 7 2 12 -4 12 -7 0 -8 6 -2 18 15 30 -2 417 -18
417 -1 0 -4 20 -6 45 -3 25 -9 47 -12 50 -4 3 -8 14 -9 25 -3 23 -11 60 -13
60 -1 0 -3 11 -6 25 -2 14 -8 34 -13 45 -5 11 -24 58 -41 105 -18 47 -38 88
-44 92 -6 4 -7 8 -3 8 9 0 -64 143 -75 148 -5 2 -8 8 -8 14 0 13 -100 162
-112 166 -4 2 -8 8 -8 14 0 5 -6 15 -12 23 -7 7 -29 32 -48 56 -78 98 -255
262 -354 328 -28 19 -53 37 -56 40 -8 10 -64 42 -82 48 -10 3 -18 9 -18 13 0
4 -11 11 -24 14 -14 3 -32 13 -40 22 -9 8 -25 17 -36 19 -11 2 -32 11 -47 19
-35 18 -66 30 -75 28 -5 -1 -8 3 -8 8 0 6 -6 10 -12 9 -7 -1 -26 4 -43 11 -16
7 -34 14 -40 15 -5 2 -35 10 -65 19 -30 9 -58 16 -62 17 -4 0 -22 5 -40 10
-39 11 -130 26 -213 35 -66 7 -333 11 -380 6z"/>
<path d="M1406 3673 c-3 -4 -14 -8 -24 -9 -9 -1 -28 -5 -42 -9 -14 -3 -29 -7
-35 -9 -22 -5 -91 -29 -100 -35 -5 -3 -14 -6 -20 -7 -21 -3 -160 -69 -167 -79
-4 -5 -8 -6 -8 -2 0 5 -13 -1 -29 -12 -16 -12 -32 -21 -36 -21 -3 0 -31 -16
-61 -35 -30 -19 -57 -35 -59 -35 -3 0 -13 -8 -23 -17 -10 -10 -29 -25 -42 -33
-12 -8 -28 -21 -36 -27 -7 -7 -15 -13 -17 -13 -3 0 -28 -21 -57 -47 -81 -74
-182 -173 -176 -173 3 0 -9 -15 -27 -33 -34 -36 -54 -61 -117 -146 -22 -30
-38 -56 -36 -59 3 -2 -3 -12 -12 -23 -23 -27 -54 -81 -95 -164 -54 -110 -121
-278 -107 -270 5 3 2 -8 -6 -25 -9 -16 -13 -34 -9 -40 3 -5 2 -10 -3 -10 -5 0
-13 -19 -18 -42 -10 -52 -11 -753 -1 -788 4 -14 9 -34 11 -45 3 -11 9 -35 15
-53 5 -18 10 -36 10 -40 1 -17 35 -118 44 -129 5 -7 6 -17 2 -23 -3 -5 -1 -10
4 -10 6 0 11 -5 11 -11 0 -12 23 -67 51 -120 10 -20 16 -39 12 -43 -3 -3 -1
-6 5 -6 7 0 12 -7 12 -15 0 -8 5 -15 12 -15 6 0 9 -3 5 -6 -6 -6 11 -37 82
-144 42 -65 42 -65 117 -155 84 -102 232 -245 254 -245 5 0 10 -4 10 -8 0 -10
82 -70 92 -68 4 0 15 -9 23 -22 9 -12 21 -20 26 -17 5 4 9 1 9 -4 0 -6 5 -11
12 -11 6 0 19 -6 27 -14 33 -29 298 -156 326 -156 7 0 17 -5 20 -10 3 -6 17
-10 31 -10 13 0 24 -5 24 -12 0 -6 3 -8 6 -5 4 3 15 2 26 -4 11 -6 29 -12 41
-15 126 -25 139 -3 139 213 0 131 -20 170 -107 212 -35 17 -66 31 -69 31 -2 0
-15 4 -28 9 -13 5 -27 9 -32 9 -5 0 -12 4 -15 9 -3 4 -31 20 -61 35 -97 49
-200 117 -275 183 -48 42 -148 142 -170 170 -11 14 -28 36 -39 48 -34 40 -103
151 -144 232 -71 139 -120 299 -139 450 -12 98 -5 364 11 435 4 14 8 36 11 50
3 14 9 39 14 57 5 17 7 34 3 37 -3 3 1 6 8 6 7 0 11 3 7 6 -15 15 131 344 153
344 5 0 12 9 15 20 9 29 57 100 67 100 4 0 8 5 8 11 0 6 15 27 33 46 57 62
148 153 153 153 2 0 24 20 50 45 25 25 50 45 55 45 25 0 38 -29 36 -79 -1 -28
3 -53 8 -55 7 -3 7 -5 0 -5 -15 -1 -10 -1214 4 -1219 6 -2 9 -7 6 -11 -2 -5 6
-13 18 -19 37 -17 87 -31 87 -24 0 4 217 7 483 6 490 0 557 4 579 39 4 6 8 8
8 4 0 -14 59 52 77 86 10 20 17 54 16 92 0 116 -74 194 -199 211 -27 3 -51 8
-54 9 -3 2 -12 0 -20 -5 -9 -5 -19 -5 -27 2 -9 7 -13 7 -13 -1 0 -9 -5 -9 -20
-1 -14 8 -20 8 -20 0 0 -6 -5 -8 -10 -5 -15 9 -170 12 -170 3 0 -4 -10 -4 -22
1 -13 4 -35 5 -50 0 -15 -4 -30 -4 -32 0 -6 9 -37 8 -52 -1 -5 -4 -16 -3 -23
1 -7 5 -25 7 -39 5 -46 -5 -72 24 -77 85 -3 29 -7 57 -11 62 -3 5 -2 9 3 9 9
0 9 62 0 76 -3 6 -2 16 3 24 4 7 4 24 -1 37 -5 12 -5 23 -1 23 4 0 5 27 2 60
-3 33 -2 60 2 60 5 0 4 9 -2 20 -6 11 -7 20 -3 20 9 0 9 62 0 76 -3 6 -2 16 3
24 4 7 4 24 -1 37 -5 12 -5 23 0 23 5 0 5 18 1 40 -4 22 -3 40 2 40 5 0 4 9
-2 20 -8 15 -8 20 1 20 9 0 9 3 0 14 -8 10 -9 16 -1 21 7 4 7 12 0 26 -6 10
-7 19 -3 19 4 0 6 36 3 80 -3 44 -1 80 3 80 4 0 3 9 -3 20 -6 11 -7 20 -3 20
4 0 6 36 3 80 -3 44 -1 80 3 80 4 0 3 9 -3 20 -8 15 -8 20 1 20 9 0 9 3 0 14
-8 10 -9 16 -1 21 7 4 7 12 0 26 -6 10 -7 19 -2 19 5 0 6 18 2 40 -4 22 -3 40
2 40 5 0 4 9 -2 20 -6 11 -7 20 -2 20 5 0 6 22 2 50 -3 27 -5 56 -4 64 1 8 -3
20 -10 25 -15 13 -71 23 -80 14z"/>
</g>
</svg>
