<svg width="1142" height="740" viewBox="0 0 1142 740" fill="none" xmlns="http://www.w3.org/2000/svg">
<path d="M639.31 94.03C715.79 96.2 782.54 122.92 838.82 174.63C887.49 219.36 918.67 274.52 930.66 339.57C948.73 437.57 924.85 524.94 859.26 599.85C810.74 655.26 748.83 687.49 675.95 698.44C661.61 700.6 647.21 701.95 632.69 701.25C631.1 699.48 631.1 697.25 631.1 695.11C631.06 648.443 631.06 601.807 631.1 555.2C631.047 553.703 631.202 552.205 631.56 550.75C632.56 547.86 635.05 548.07 637.35 547.99C672.18 546.65 703.26 535.15 729.68 512.44C758.43 487.74 776.13 456.44 781.25 418.74C787.25 374.29 775.73 334.46 746.75 300.29C721.6 270.63 689.21 253.54 650.52 248.56C645.904 247.947 641.256 247.613 636.6 247.56C634.6 247.56 632.51 247.42 631.6 245.03C631.055 242.587 630.866 240.077 631.04 237.58C631.04 192.78 631.04 147.983 631.04 103.19C631.04 102.69 631.04 102.19 631.04 101.69C631.18 93.91 631.41 93.7 639.31 94.03Z" fill="#591CF5"/>
<path d="M632.65 549.7C632.65 600.22 632.65 650.737 632.65 701.25C589.742 701.949 547.232 692.934 508.3 674.88C428.014 637.907 373.38 577.54 344.4 493.78C344.179 492.99 343.999 492.189 343.86 491.38C349.66 487.19 356.67 486 363.26 483.98C379.79 478.91 396.12 473.27 412.57 467.98C435.5 460.59 458.48 453.34 481.29 445.56C483.62 444.76 485.96 443.62 488.52 444.76C491.83 448.1 492.52 452.76 494.18 456.84C501.036 473.366 510.931 488.461 523.35 501.34C548.45 527.15 578.88 542.88 614.92 547.15C619.378 547.726 623.866 548.043 628.36 548.1C629.9 548.05 631.8 547.67 632.65 549.7Z" fill="#3382E8"/>
<path d="M387.61 218.32C400.764 199.893 416.11 183.133 433.31 168.41C463.086 142.42 497.711 122.579 535.19 110.03C536.28 109.67 537.43 109.47 538.55 109.19C540.81 109.97 541.12 112.08 541.72 113.94C552.66 147.847 563.66 181.727 574.72 215.58C578.32 226.49 581.49 237.58 585.27 248.39C585.849 249.774 586.151 251.259 586.16 252.76C585.55 255.1 583.43 255.5 581.6 256.15C561.24 263.42 543.54 274.97 527.74 289.57C523.21 293.76 519.56 298.74 515.48 303.34C513.74 305.34 512.48 307.79 509.88 308.86C507.17 308.79 505.31 306.95 503.34 305.52C466.12 278.44 428.72 251.6 391.67 224.29C389.78 222.87 386.57 221.94 387.61 218.32Z" fill="#D267D2"/>
<path d="M488.45 445.35C482.87 445.61 477.93 448.19 472.75 449.87C430.904 463.39 389.074 476.953 347.26 490.56C346.17 490.92 345.02 491.11 343.9 491.38C338.5 477.38 335.43 462.73 332.95 448.02C329.53 427.82 327.81 407.42 328.95 386.94C329.83 371.58 330.27 356.11 334.61 341.15C336.61 339.74 338.76 340.39 340.87 340.79C385.74 349.27 430.57 357.95 475.45 366.35C478.35 366.89 481.45 367.21 483.87 369.16C485.01 374.16 483.43 379.08 482.87 383.96C480.87 402.75 483.14 421.05 488 439.16C488.61 441.15 489.86 443.2 488.45 445.35Z" fill="#5ECFE8"/>
<path d="M483.47 369.52L337.11 341.45C336.3 341.3 335.47 341.25 334.64 341.15C336.13 327.15 340.38 313.91 344.79 300.69C354.568 271.121 369.025 243.311 387.61 218.32C389.79 222.96 394.49 224.77 398.26 227.54C429.146 250.16 460.096 272.703 491.11 295.17C497.28 299.64 503.58 303.92 509.83 308.29C510.59 310.74 508.9 312.38 507.74 314.09C497.618 329.076 490.343 345.799 486.28 363.42C485.77 365.6 485.72 368.15 483.47 369.52Z" fill="#FE98CB"/>
<path d="M585.82 253.21C580.12 236.08 574.33 218.98 568.74 201.81C559.086 172.19 549.5 142.553 539.98 112.9C539.57 111.64 539.03 110.43 538.55 109.19C553.49 103.45 569.1 100.32 584.79 97.6801C602.03 94.7801 619.46 93.9901 636.91 93.6801C637.72 93.7359 638.524 93.8665 639.31 94.0701C632.66 94.5001 632.66 94.5001 632.66 101.45C632.66 147.65 632.66 193.847 632.66 240.04C632.66 242.04 632.75 244.04 632.8 246.04C631.51 248.13 629.34 247.87 627.43 247.83C615.3 247.55 603.64 250.29 591.98 253.09C589.98 253.51 587.92 254.84 585.82 253.21Z" fill="#BB32B6"/>
<path d="M626.34 504.15C622.34 503.61 618.24 503.15 614.23 502.51C592.932 498.773 573.273 488.648 557.862 473.48C542.451 458.312 532.015 438.816 527.94 417.58C517.21 362.23 552.33 307.34 607.06 294.15C630.404 288.305 655.044 290.62 676.89 300.71C677.2 300.85 677.52 300.99 677.83 301.16C677.94 301.22 678.01 301.35 678.23 301.6L675.63 307.04C663.2 301.116 649.674 297.843 635.91 297.43V314.45C655.979 315.284 675.069 323.346 689.66 337.15L702 324.77L684.57 311.36L687.57 306.36C693.565 309.908 699.169 314.078 704.29 318.8C719.29 332.58 729.79 349.22 735.1 368.91C736.84 375.36 737.55 382.09 738.73 388.7C738.88 389.57 739.01 390.45 739.14 391.32V403.81C739.02 404.54 738.86 405.27 738.77 406.01C738.26 409.85 737.96 413.74 737.24 417.54C733.18 438.777 722.753 458.275 707.345 473.443C691.937 488.612 672.278 498.732 650.98 502.46C646.98 503.15 642.91 503.56 638.87 504.1L626.34 504.15ZM709.5 397.73C709.18 355.39 675.8 320.89 632.7 320.78C612.473 320.979 593.139 329.145 578.895 343.509C564.651 357.872 556.645 377.273 556.614 397.501C556.584 417.73 564.532 437.155 578.733 451.56C592.934 465.966 612.243 474.191 632.47 474.45C674.81 474.51 708.97 440.79 709.5 397.68V397.73ZM560.06 466.63L572.14 454.55C565.327 447.357 559.863 438.998 556.01 429.87C552.15 420.663 549.949 410.845 549.51 400.87H532.4C533.52 426.47 542.92 448.31 560.06 466.63ZM629.45 297.34C604.13 298.49 582.58 307.64 564.3 324.29L576.3 336.37C577.05 335.74 577.94 334.99 578.82 334.23C587.614 326.539 598.034 320.939 609.3 317.85C615.15 316.28 621.3 315.7 627.3 314.63C628.13 314.49 629.45 314.95 629.46 313.38C629.44 308.15 629.43 302.87 629.43 297.34H629.45ZM549.45 394.34C550.236 374.639 557.99 355.858 571.33 341.34L559.26 329.28C542.6 347.6 533.45 369.18 532.37 394.28L549.45 394.34ZM705.8 465.95C722.54 447.51 731.7 425.95 732.8 400.83H715.65C714.898 420.564 707.117 439.379 693.71 453.88L705.8 465.95ZM635.8 497.78C660.001 496.958 683.088 487.411 700.8 470.9L688.76 458.82C674.243 472.161 655.461 479.914 635.76 480.7L635.8 497.78ZM694.51 342.15C700.893 349.279 706.004 357.451 709.62 366.31C713.195 375.2 715.247 384.628 715.69 394.2H732.69C731.61 369.48 722.924 348.073 706.63 329.98C702.61 334.05 698.66 338.01 694.51 342.15ZM565.13 471.61C582.743 487.664 605.484 496.942 629.3 497.79V480.63C619.689 480.274 610.214 478.244 601.3 474.63C592.44 471.015 584.265 465.908 577.13 459.53L565.13 471.61Z" fill="#3586E8"/>
<path d="M604.18 438.37L607.66 433.37C616.824 439.683 628.056 442.251 639.054 440.549C650.051 438.847 659.981 433.003 666.808 424.216C673.636 415.428 676.844 404.362 675.775 393.285C674.706 382.209 669.442 371.96 661.06 364.64C645.37 350.73 620.06 350.79 604.18 364.5C587.26 379.12 582.3 408.01 601.24 428L597.13 432.3C580.63 416.42 576.74 387.22 594.13 365.98C598.25 360.929 603.325 356.74 609.065 353.651C614.805 350.563 621.097 348.636 627.582 347.98C634.067 347.324 640.618 347.953 646.86 349.83C653.102 351.707 658.912 354.796 663.96 358.92C685.1 375.97 688.67 406.83 671.48 428.73C655.7 448.81 624.46 453.5 604.18 438.37Z" fill="#3586E8"/>
<path d="M609.06 397.49H603.06C602.06 383.39 615.06 367.55 632.47 367.9V373.99C626.271 374.071 620.35 376.575 615.974 380.968C611.599 385.36 609.117 391.291 609.06 397.49V397.49Z" fill="#3586E8"/>
<path d="M632.67 427.24V421.33C646.92 419.75 654.8 411.88 656.34 397.64H662.12C663.15 411.56 650.34 427.55 632.67 427.24Z" fill="#3586E8"/>
<path d="M566.06 394.54H572.54V400.54H566.06V394.54Z" fill="#3586E8"/>
<path d="M699.06 400.58H692.67V394.58H699.06V400.58Z" fill="#3586E8"/>
<path d="M635.8 337.15H629.41V331.15H635.8V337.15Z" fill="#3586E8"/>
<path d="M582.69 353.83V347.83H589.06V353.83H582.69Z" fill="#3586E8"/>
<path d="M679.42 351.15H685.74V357.15H679.42V351.15Z" fill="#3586E8"/>
<path d="M579.37 437.94H585.8V443.94H579.37V437.94Z" fill="#3586E8"/>
<path d="M679.32 443.94V438H685.79V443.94H679.32Z" fill="#3586E8"/>
<path d="M635.81 464H629.41V458H635.81V464Z" fill="#3586E8"/>
<path d="M113.554 85L120.934 62.89H124.774L132.154 85H129.004L127.054 79.21H118.594L116.674 85H113.554ZM119.314 76.48H126.304L122.824 65.5L119.314 76.48ZM139.896 85.18C137.956 85.18 136.506 84.54 135.546 83.26C134.606 81.98 134.136 79.93 134.136 77.11C134.136 75.13 134.326 73.53 134.706 72.31C135.106 71.07 135.746 70.17 136.626 69.61C137.506 69.03 138.696 68.74 140.196 68.74C141.036 68.74 141.866 68.83 142.686 69.01C143.506 69.19 144.236 69.39 144.876 69.61V62.11H147.876V85H145.416L144.876 83.41C144.556 83.69 144.116 83.97 143.556 84.25C142.996 84.51 142.396 84.73 141.756 84.91C141.116 85.09 140.496 85.18 139.896 85.18ZM140.856 82.72C141.676 82.72 142.416 82.59 143.076 82.33C143.756 82.07 144.356 81.8 144.876 81.52V71.77C144.256 71.59 143.646 71.43 143.046 71.29C142.466 71.13 141.816 71.05 141.096 71.05C140.136 71.05 139.366 71.22 138.786 71.56C138.226 71.9 137.816 72.5 137.556 73.36C137.296 74.22 137.166 75.42 137.166 76.96C137.166 79.1 137.446 80.6 138.006 81.46C138.566 82.3 139.516 82.72 140.856 82.72ZM156.221 85L150.401 68.95H153.491L158.021 82.21L162.671 68.95H165.731L159.701 85H156.221ZM168.758 66.25C168.398 66.25 168.218 66.08 168.218 65.74V63.22C168.218 62.86 168.398 62.68 168.758 62.68H170.978C171.298 62.68 171.458 62.86 171.458 63.22V65.74C171.458 66.08 171.298 66.25 170.978 66.25H168.758ZM168.338 85V68.95H171.338V85H168.338ZM181.155 85.18C180.595 85.18 179.895 85.16 179.055 85.12C178.235 85.08 177.445 85.02 176.685 84.94C175.925 84.86 175.355 84.77 174.975 84.67V82.87H181.725C182.585 82.87 183.265 82.75 183.765 82.51C184.285 82.27 184.545 81.71 184.545 80.83V80.17C184.545 79.57 184.345 79.1 183.945 78.76C183.545 78.42 182.885 78.25 181.965 78.25H179.625C178.685 78.25 177.845 78.13 177.105 77.89C176.385 77.63 175.815 77.2 175.395 76.6C174.995 76 174.795 75.19 174.795 74.17V73.3C174.795 71.78 175.235 70.65 176.115 69.91C177.015 69.17 178.535 68.8 180.675 68.8C181.275 68.8 181.945 68.83 182.685 68.89C183.425 68.93 184.135 68.99 184.815 69.07C185.515 69.15 186.075 69.24 186.495 69.34V71.14H180.135C179.255 71.14 178.575 71.29 178.095 71.59C177.635 71.89 177.405 72.46 177.405 73.3V73.9C177.405 74.7 177.645 75.21 178.125 75.43C178.625 75.65 179.295 75.76 180.135 75.76H182.535C184.035 75.76 185.175 76.12 185.955 76.84C186.755 77.54 187.155 78.53 187.155 79.81V81.04C187.155 82.12 186.905 82.96 186.405 83.56C185.925 84.16 185.235 84.58 184.335 84.82C183.435 85.06 182.375 85.18 181.155 85.18ZM197.115 85.18C195.475 85.18 194.135 84.95 193.095 84.49C192.055 84.01 191.285 83.18 190.785 82C190.285 80.8 190.035 79.12 190.035 76.96C190.035 74.72 190.285 73.01 190.785 71.83C191.305 70.65 192.085 69.84 193.125 69.4C194.165 68.96 195.495 68.74 197.115 68.74C198.715 68.74 200.035 68.97 201.075 69.43C202.135 69.87 202.915 70.68 203.415 71.86C203.935 73.04 204.195 74.74 204.195 76.96C204.195 79.16 203.945 80.85 203.445 82.03C202.945 83.21 202.175 84.03 201.135 84.49C200.095 84.95 198.755 85.18 197.115 85.18ZM197.115 82.72C197.775 82.72 198.355 82.66 198.855 82.54C199.375 82.42 199.805 82.17 200.145 81.79C200.505 81.39 200.765 80.81 200.925 80.05C201.105 79.27 201.195 78.23 201.195 76.93C201.195 75.65 201.105 74.63 200.925 73.87C200.765 73.09 200.505 72.51 200.145 72.13C199.805 71.75 199.375 71.5 198.855 71.38C198.355 71.24 197.775 71.17 197.115 71.17C196.435 71.17 195.835 71.24 195.315 71.38C194.815 71.5 194.395 71.75 194.055 72.13C193.715 72.51 193.465 73.09 193.305 73.87C193.145 74.63 193.065 75.65 193.065 76.93C193.065 78.23 193.145 79.27 193.305 80.05C193.465 80.81 193.715 81.39 194.055 81.79C194.395 82.17 194.815 82.42 195.315 82.54C195.835 82.66 196.435 82.72 197.115 82.72ZM207.86 85V68.95H210.17L210.86 71.65C211.54 70.83 212.3 70.14 213.14 69.58C213.98 69.02 214.96 68.74 216.08 68.74C216.64 68.74 217.12 68.8 217.52 68.92V72.01C217.24 71.97 216.94 71.94 216.62 71.92C216.32 71.88 216.02 71.86 215.72 71.86C214.7 71.86 213.82 72.05 213.08 72.43C212.36 72.79 211.62 73.33 210.86 74.05V85H207.86ZM225.95 85.18C225.39 85.18 224.69 85.16 223.85 85.12C223.03 85.08 222.24 85.02 221.48 84.94C220.72 84.86 220.15 84.77 219.77 84.67V82.87H226.52C227.38 82.87 228.06 82.75 228.56 82.51C229.08 82.27 229.34 81.71 229.34 80.83V80.17C229.34 79.57 229.14 79.1 228.74 78.76C228.34 78.42 227.68 78.25 226.76 78.25H224.42C223.48 78.25 222.64 78.13 221.9 77.89C221.18 77.63 220.61 77.2 220.19 76.6C219.79 76 219.59 75.19 219.59 74.17V73.3C219.59 71.78 220.03 70.65 220.91 69.91C221.81 69.17 223.33 68.8 225.47 68.8C226.07 68.8 226.74 68.83 227.48 68.89C228.22 68.93 228.93 68.99 229.61 69.07C230.31 69.15 230.87 69.24 231.29 69.34V71.14H224.93C224.05 71.14 223.37 71.29 222.89 71.59C222.43 71.89 222.2 72.46 222.2 73.3V73.9C222.2 74.7 222.44 75.21 222.92 75.43C223.42 75.65 224.09 75.76 224.93 75.76H227.33C228.83 75.76 229.97 76.12 230.75 76.84C231.55 77.54 231.95 78.53 231.95 79.81V81.04C231.95 82.12 231.7 82.96 231.2 83.56C230.72 84.16 230.03 84.58 229.13 84.82C228.23 85.06 227.17 85.18 225.95 85.18ZM236.12 87.46C235.86 87.46 235.63 87.43 235.43 87.37C235.25 87.33 235.16 87.31 235.16 87.31V86.38C235.4 86.38 235.57 86.34 235.67 86.26C235.79 86.2 235.85 86.06 235.85 85.84V84.82H235.58C235.24 84.82 235.07 84.63 235.07 84.25V81.97C235.07 81.57 235.24 81.37 235.58 81.37H237.26C237.6 81.37 237.77 81.57 237.77 81.97V85.75C237.77 86.47 237.58 86.93 237.2 87.13C236.84 87.35 236.48 87.46 236.12 87.46ZM249.156 85L251.676 62.89H254.676L260.316 81.34L265.866 62.89H268.896L271.476 85H268.566L266.556 67.84L261.696 85H258.906L253.986 67.96L252.066 85H249.156ZM278.072 85.18C276.892 85.18 275.912 84.83 275.132 84.13C274.372 83.41 273.992 82.42 273.992 81.16V79.9C273.992 78.66 274.412 77.65 275.252 76.87C276.112 76.07 277.402 75.67 279.122 75.67H284.132V73.99C284.132 73.37 284.022 72.85 283.802 72.43C283.602 71.99 283.212 71.66 282.632 71.44C282.072 71.22 281.252 71.11 280.172 71.11H275.252V69.34C275.972 69.18 276.812 69.04 277.772 68.92C278.752 68.8 279.892 68.73 281.192 68.71C283.172 68.71 284.662 69.1 285.662 69.88C286.662 70.64 287.162 71.94 287.162 73.78V85H284.792L284.282 83.2C284.182 83.3 283.932 83.46 283.532 83.68C283.152 83.88 282.662 84.1 282.062 84.34C281.482 84.56 280.842 84.76 280.142 84.94C279.462 85.1 278.772 85.18 278.072 85.18ZM279.452 82.99C279.852 83.01 280.302 82.96 280.802 82.84C281.322 82.72 281.832 82.59 282.332 82.45C282.832 82.29 283.252 82.15 283.592 82.03C283.932 81.89 284.112 81.81 284.132 81.79V77.17L279.932 77.35C278.892 77.41 278.142 77.68 277.682 78.16C277.242 78.62 277.022 79.21 277.022 79.93V80.65C277.022 81.53 277.272 82.14 277.772 82.48C278.292 82.82 278.852 82.99 279.452 82.99ZM291.239 85V68.95H293.549L294.239 71.65C294.919 70.83 295.679 70.14 296.519 69.58C297.359 69.02 298.339 68.74 299.459 68.74C300.019 68.74 300.499 68.8 300.899 68.92V72.01C300.619 71.97 300.319 71.94 299.999 71.92C299.699 71.88 299.399 71.86 299.099 71.86C298.079 71.86 297.199 72.05 296.459 72.43C295.739 72.79 294.999 73.33 294.239 74.05V85H291.239ZM303.719 85V62.11H306.719V75.1H308.909L313.379 68.95H316.499L311.129 76.45L316.889 85H313.769L308.819 77.8H306.719V85H303.719ZM325.694 85.18C323.994 85.18 322.634 84.93 321.614 84.43C320.614 83.93 319.894 83.09 319.454 81.91C319.034 80.71 318.824 79.06 318.824 76.96C318.824 74.82 319.034 73.16 319.454 71.98C319.894 70.78 320.614 69.94 321.614 69.46C322.614 68.98 323.964 68.74 325.664 68.74C327.124 68.74 328.314 68.9 329.234 69.22C330.154 69.54 330.824 70.09 331.244 70.87C331.684 71.65 331.904 72.73 331.904 74.11C331.904 75.61 331.474 76.66 330.614 77.26C329.754 77.84 328.594 78.13 327.134 78.13H321.824C321.844 79.29 321.974 80.22 322.214 80.92C322.474 81.6 322.924 82.1 323.564 82.42C324.224 82.72 325.184 82.87 326.444 82.87H331.454V84.67C330.594 84.79 329.714 84.9 328.814 85C327.934 85.12 326.894 85.18 325.694 85.18ZM321.794 76.24H326.864C327.664 76.24 328.254 76.09 328.634 75.79C329.014 75.47 329.204 74.92 329.204 74.14C329.204 72.92 328.934 72.09 328.394 71.65C327.854 71.19 326.944 70.96 325.664 70.96C324.664 70.96 323.884 71.11 323.324 71.41C322.764 71.71 322.364 72.25 322.124 73.03C321.904 73.79 321.794 74.86 321.794 76.24ZM341.115 85C339.475 85 338.265 84.6 337.485 83.8C336.725 83 336.365 81.62 336.405 79.66L336.525 71.41H333.975V69.46L336.585 68.95L337.035 64.45H339.405V68.95H343.755V71.41H339.405V79.63C339.405 80.45 339.515 81.07 339.735 81.49C339.955 81.89 340.235 82.17 340.575 82.33C340.915 82.47 341.245 82.56 341.565 82.6L343.545 82.78V85H341.115ZM347.206 66.25C346.846 66.25 346.666 66.08 346.666 65.74V63.22C346.666 62.86 346.846 62.68 347.206 62.68H349.426C349.746 62.68 349.906 62.86 349.906 63.22V65.74C349.906 66.08 349.746 66.25 349.426 66.25H347.206ZM346.786 85V68.95H349.786V85H346.786ZM353.993 85V68.95H356.393L356.993 70.69C357.693 70.17 358.543 69.71 359.543 69.31C360.543 68.89 361.573 68.68 362.633 68.68C363.833 68.68 364.793 68.94 365.513 69.46C366.253 69.96 366.783 70.63 367.103 71.47C367.423 72.31 367.583 73.22 367.583 74.2V85H364.583V74.56C364.583 73.62 364.313 72.86 363.773 72.28C363.233 71.7 362.493 71.41 361.553 71.41C360.653 71.41 359.853 71.54 359.153 71.8C358.453 72.06 357.733 72.41 356.993 72.85V85H353.993ZM375.678 92.38C374.138 92.38 372.868 92.05 371.868 91.39C370.888 90.73 370.398 89.75 370.398 88.45V87.79C370.398 86.91 370.648 86.16 371.148 85.54C371.648 84.94 372.258 84.48 372.978 84.16C371.938 83.62 371.418 82.8 371.418 81.7C371.418 80.9 371.648 80.26 372.108 79.78C372.588 79.28 373.258 78.94 374.118 78.76C373.038 78.28 372.298 77.61 371.898 76.75C371.518 75.89 371.328 75.01 371.328 74.11C371.328 72.29 371.878 70.97 372.978 70.15C374.098 69.33 375.658 68.92 377.658 68.92H386.298V70.63L383.028 70.96C383.268 71.14 383.528 71.38 383.808 71.68C384.088 71.96 384.328 72.35 384.528 72.85C384.728 73.35 384.828 74.01 384.828 74.83C384.828 75.69 384.638 76.49 384.258 77.23C383.898 77.97 383.298 78.57 382.458 79.03C381.638 79.49 380.518 79.72 379.098 79.72H376.458C375.698 79.72 375.098 79.83 374.658 80.05C374.218 80.27 373.998 80.66 373.998 81.22C373.998 81.68 374.168 82 374.508 82.18C374.848 82.36 375.208 82.45 375.588 82.45H380.658C382.498 82.45 383.888 82.81 384.828 83.53C385.768 84.25 386.238 85.4 386.238 86.98V87.55C386.238 89.07 385.738 90.25 384.738 91.09C383.758 91.95 382.268 92.38 380.268 92.38H375.678ZM376.998 77.41H378.768C379.648 77.41 380.328 77.28 380.808 77.02C381.288 76.74 381.618 76.38 381.798 75.94C381.978 75.48 382.068 74.99 382.068 74.47C382.068 73.27 381.788 72.43 381.228 71.95C380.668 71.47 379.918 71.23 378.978 71.23H377.298C376.278 71.23 375.478 71.46 374.898 71.92C374.338 72.38 374.058 73.17 374.058 74.29C374.058 75.39 374.318 76.19 374.838 76.69C375.358 77.17 376.078 77.41 376.998 77.41ZM376.458 90.22H379.968C381.028 90.22 381.868 90.01 382.488 89.59C383.108 89.19 383.418 88.56 383.418 87.7V87.13C383.418 86.41 383.178 85.83 382.698 85.39C382.238 84.97 381.408 84.76 380.208 84.76H376.338C375.518 84.76 374.798 84.96 374.178 85.36C373.558 85.76 373.248 86.39 373.248 87.25V87.82C373.248 88.66 373.528 89.27 374.088 89.65C374.668 90.03 375.458 90.22 376.458 90.22ZM400.24 85.18C399.06 85.18 398.08 84.83 397.3 84.13C396.54 83.41 396.16 82.42 396.16 81.16V79.9C396.16 78.66 396.58 77.65 397.42 76.87C398.28 76.07 399.57 75.67 401.29 75.67H406.3V73.99C406.3 73.37 406.19 72.85 405.97 72.43C405.77 71.99 405.38 71.66 404.8 71.44C404.24 71.22 403.42 71.11 402.34 71.11H397.42V69.34C398.14 69.18 398.98 69.04 399.94 68.92C400.92 68.8 402.06 68.73 403.36 68.71C405.34 68.71 406.83 69.1 407.83 69.88C408.83 70.64 409.33 71.94 409.33 73.78V85H406.96L406.45 83.2C406.35 83.3 406.1 83.46 405.7 83.68C405.32 83.88 404.83 84.1 404.23 84.34C403.65 84.56 403.01 84.76 402.31 84.94C401.63 85.1 400.94 85.18 400.24 85.18ZM401.62 82.99C402.02 83.01 402.47 82.96 402.97 82.84C403.49 82.72 404 82.59 404.5 82.45C405 82.29 405.42 82.15 405.76 82.03C406.1 81.89 406.28 81.81 406.3 81.79V77.17L402.1 77.35C401.06 77.41 400.31 77.68 399.85 78.16C399.41 78.62 399.19 79.21 399.19 79.93V80.65C399.19 81.53 399.44 82.14 399.94 82.48C400.46 82.82 401.02 82.99 401.62 82.99ZM413.407 85V68.95H415.807L416.407 70.69C417.107 70.17 417.957 69.71 418.957 69.31C419.957 68.89 420.987 68.68 422.047 68.68C423.247 68.68 424.207 68.94 424.927 69.46C425.667 69.96 426.197 70.63 426.517 71.47C426.837 72.31 426.997 73.22 426.997 74.2V85H423.997V74.56C423.997 73.62 423.727 72.86 423.187 72.28C422.647 71.7 421.907 71.41 420.967 71.41C420.067 71.41 419.267 71.54 418.567 71.8C417.867 72.06 417.147 72.41 416.407 72.85V85H413.407ZM436.322 85.18C434.382 85.18 432.932 84.54 431.972 83.26C431.032 81.98 430.562 79.93 430.562 77.11C430.562 75.13 430.752 73.53 431.132 72.31C431.532 71.07 432.172 70.17 433.052 69.61C433.932 69.03 435.122 68.74 436.622 68.74C437.462 68.74 438.292 68.83 439.112 69.01C439.932 69.19 440.662 69.39 441.302 69.61V62.11H444.302V85H441.842L441.302 83.41C440.982 83.69 440.542 83.97 439.982 84.25C439.422 84.51 438.822 84.73 438.182 84.91C437.542 85.09 436.922 85.18 436.322 85.18ZM437.282 82.72C438.102 82.72 438.842 82.59 439.502 82.33C440.182 82.07 440.782 81.8 441.302 81.52V71.77C440.682 71.59 440.072 71.43 439.472 71.29C438.892 71.13 438.242 71.05 437.522 71.05C436.562 71.05 435.792 71.22 435.212 71.56C434.652 71.9 434.242 72.5 433.982 73.36C433.722 74.22 433.592 75.42 433.592 76.96C433.592 79.1 433.872 80.6 434.432 81.46C434.992 82.3 435.942 82.72 437.282 82.72ZM139.175 125V107.51C139.175 106.33 139.405 105.4 139.865 104.72C140.325 104.04 140.905 103.57 141.605 103.31C142.305 103.03 143.025 102.89 143.765 102.89C144.585 102.91 145.515 102.93 146.555 102.95C147.595 102.95 148.675 102.97 149.795 103.01C150.915 103.05 152.015 103.12 153.095 103.22V105.68H144.515C143.775 105.68 143.205 105.88 142.805 106.28C142.405 106.68 142.205 107.26 142.205 108.02V113.15L151.745 113.33V115.67L142.205 115.85V125H139.175ZM160.67 125.18C159.15 125.18 157.98 124.78 157.16 123.98C156.34 123.16 155.93 121.92 155.93 120.26V108.95H158.93V119.45C158.93 120.65 159.2 121.46 159.74 121.88C160.3 122.3 161.08 122.51 162.08 122.51C162.88 122.51 163.64 122.39 164.36 122.15C165.08 121.91 165.8 121.56 166.52 121.1V108.95H169.52V125H167.12L166.52 123.26C165.74 123.78 164.84 124.23 163.82 124.61C162.82 124.99 161.77 125.18 160.67 125.18ZM179.206 125C177.566 125 176.356 124.6 175.576 123.8C174.816 123 174.456 121.62 174.496 119.66L174.616 111.41H172.066V109.46L174.676 108.95L175.126 104.45H177.496V108.95H181.846V111.41H177.496V119.63C177.496 120.45 177.606 121.07 177.826 121.49C178.046 121.89 178.326 122.17 178.666 122.33C179.006 122.47 179.336 122.56 179.656 122.6L181.636 122.78V125H179.206ZM189.586 125.18C188.066 125.18 186.896 124.78 186.076 123.98C185.256 123.16 184.846 121.92 184.846 120.26V108.95H187.846V119.45C187.846 120.65 188.116 121.46 188.656 121.88C189.216 122.3 189.996 122.51 190.996 122.51C191.796 122.51 192.556 122.39 193.276 122.15C193.996 121.91 194.716 121.56 195.436 121.1V108.95H198.436V125H196.036L195.436 123.26C194.656 123.78 193.756 124.23 192.736 124.61C191.736 124.99 190.686 125.18 189.586 125.18ZM202.572 125V108.95H204.882L205.572 111.65C206.252 110.83 207.012 110.14 207.852 109.58C208.692 109.02 209.672 108.74 210.792 108.74C211.352 108.74 211.832 108.8 212.232 108.92V112.01C211.952 111.97 211.652 111.94 211.332 111.92C211.032 111.88 210.732 111.86 210.432 111.86C209.412 111.86 208.532 112.05 207.792 112.43C207.072 112.79 206.332 113.33 205.572 114.05V125H202.572ZM221.382 125.18C219.682 125.18 218.322 124.93 217.302 124.43C216.302 123.93 215.582 123.09 215.142 121.91C214.722 120.71 214.512 119.06 214.512 116.96C214.512 114.82 214.722 113.16 215.142 111.98C215.582 110.78 216.302 109.94 217.302 109.46C218.302 108.98 219.652 108.74 221.352 108.74C222.812 108.74 224.002 108.9 224.922 109.22C225.842 109.54 226.512 110.09 226.932 110.87C227.372 111.65 227.592 112.73 227.592 114.11C227.592 115.61 227.162 116.66 226.302 117.26C225.442 117.84 224.282 118.13 222.822 118.13H217.512C217.532 119.29 217.662 120.22 217.902 120.92C218.162 121.6 218.612 122.1 219.252 122.42C219.912 122.72 220.872 122.87 222.132 122.87H227.142V124.67C226.282 124.79 225.402 124.9 224.502 125C223.622 125.12 222.582 125.18 221.382 125.18ZM217.482 116.24H222.552C223.352 116.24 223.942 116.09 224.322 115.79C224.702 115.47 224.892 114.92 224.892 114.14C224.892 112.92 224.622 112.09 224.082 111.65C223.542 111.19 222.632 110.96 221.352 110.96C220.352 110.96 219.572 111.11 219.012 111.41C218.452 111.71 218.052 112.25 217.812 113.03C217.592 113.79 217.482 114.86 217.482 116.24ZM239.341 125V102.89H248.281C250.121 102.89 251.581 103.33 252.661 104.21C253.741 105.09 254.511 106.36 254.971 108.02C255.451 109.66 255.691 111.64 255.691 113.96C255.691 117.5 255.071 120.23 253.831 122.15C252.591 124.05 250.741 125 248.281 125H239.341ZM242.371 122.3H248.011C249.651 122.3 250.831 121.56 251.551 120.08C252.291 118.6 252.661 116.56 252.661 113.96C252.661 111.84 252.491 110.18 252.151 108.98C251.831 107.76 251.331 106.89 250.651 106.37C249.971 105.85 249.091 105.59 248.011 105.59H242.371V122.3ZM265.474 125.18C263.774 125.18 262.414 124.93 261.394 124.43C260.394 123.93 259.674 123.09 259.234 121.91C258.814 120.71 258.604 119.06 258.604 116.96C258.604 114.82 258.814 113.16 259.234 111.98C259.674 110.78 260.394 109.94 261.394 109.46C262.394 108.98 263.744 108.74 265.444 108.74C266.904 108.74 268.094 108.9 269.014 109.22C269.934 109.54 270.604 110.09 271.024 110.87C271.464 111.65 271.684 112.73 271.684 114.11C271.684 115.61 271.254 116.66 270.394 117.26C269.534 117.84 268.374 118.13 266.914 118.13H261.604C261.624 119.29 261.754 120.22 261.994 120.92C262.254 121.6 262.704 122.1 263.344 122.42C264.004 122.72 264.964 122.87 266.224 122.87H271.234V124.67C270.374 124.79 269.494 124.9 268.594 125C267.714 125.12 266.674 125.18 265.474 125.18ZM261.574 116.24H266.644C267.444 116.24 268.034 116.09 268.414 115.79C268.794 115.47 268.984 114.92 268.984 114.14C268.984 112.92 268.714 112.09 268.174 111.65C267.634 111.19 266.724 110.96 265.444 110.96C264.444 110.96 263.664 111.11 263.104 111.41C262.544 111.71 262.144 112.25 261.904 113.03C261.684 113.79 261.574 114.86 261.574 116.24ZM279.282 125L273.462 108.95H276.552L281.082 122.21L285.732 108.95H288.792L282.762 125H279.282ZM297.144 125.18C295.444 125.18 294.084 124.93 293.064 124.43C292.064 123.93 291.344 123.09 290.904 121.91C290.484 120.71 290.274 119.06 290.274 116.96C290.274 114.82 290.484 113.16 290.904 111.98C291.344 110.78 292.064 109.94 293.064 109.46C294.064 108.98 295.414 108.74 297.114 108.74C298.574 108.74 299.764 108.9 300.684 109.22C301.604 109.54 302.274 110.09 302.694 110.87C303.134 111.65 303.354 112.73 303.354 114.11C303.354 115.61 302.924 116.66 302.064 117.26C301.204 117.84 300.044 118.13 298.584 118.13H293.274C293.294 119.29 293.424 120.22 293.664 120.92C293.924 121.6 294.374 122.1 295.014 122.42C295.674 122.72 296.634 122.87 297.894 122.87H302.904V124.67C302.044 124.79 301.164 124.9 300.264 125C299.384 125.12 298.344 125.18 297.144 125.18ZM293.244 116.24H298.314C299.114 116.24 299.704 116.09 300.084 115.79C300.464 115.47 300.654 114.92 300.654 114.14C300.654 112.92 300.384 112.09 299.844 111.65C299.304 111.19 298.394 110.96 297.114 110.96C296.114 110.96 295.334 111.11 294.774 111.41C294.214 111.71 293.814 112.25 293.574 113.03C293.354 113.79 293.244 114.86 293.244 116.24ZM311.485 125.03C310.005 125.03 308.885 124.64 308.125 123.86C307.385 123.08 307.015 121.74 307.015 119.84V102.11H310.015V119.45C310.015 120.71 310.195 121.55 310.555 121.97C310.915 122.37 311.425 122.61 312.085 122.69L313.585 122.87V125.03H311.485ZM322.549 125.18C320.909 125.18 319.569 124.95 318.529 124.49C317.489 124.01 316.719 123.18 316.219 122C315.719 120.8 315.469 119.12 315.469 116.96C315.469 114.72 315.719 113.01 316.219 111.83C316.739 110.65 317.519 109.84 318.559 109.4C319.599 108.96 320.929 108.74 322.549 108.74C324.149 108.74 325.469 108.97 326.509 109.43C327.569 109.87 328.349 110.68 328.849 111.86C329.369 113.04 329.629 114.74 329.629 116.96C329.629 119.16 329.379 120.85 328.879 122.03C328.379 123.21 327.609 124.03 326.569 124.49C325.529 124.95 324.189 125.18 322.549 125.18ZM322.549 122.72C323.209 122.72 323.789 122.66 324.289 122.54C324.809 122.42 325.239 122.17 325.579 121.79C325.939 121.39 326.199 120.81 326.359 120.05C326.539 119.27 326.629 118.23 326.629 116.93C326.629 115.65 326.539 114.63 326.359 113.87C326.199 113.09 325.939 112.51 325.579 112.13C325.239 111.75 324.809 111.5 324.289 111.38C323.789 111.24 323.209 111.17 322.549 111.17C321.869 111.17 321.269 111.24 320.749 111.38C320.249 111.5 319.829 111.75 319.489 112.13C319.149 112.51 318.899 113.09 318.739 113.87C318.579 114.63 318.499 115.65 318.499 116.93C318.499 118.23 318.579 119.27 318.739 120.05C318.899 120.81 319.149 121.39 319.489 121.79C319.829 122.17 320.249 122.42 320.749 122.54C321.269 122.66 321.869 122.72 322.549 122.72ZM333.294 132.11V108.95H335.754L336.294 110.57C336.854 110.17 337.584 109.77 338.484 109.37C339.404 108.95 340.344 108.74 341.304 108.74C342.684 108.74 343.794 109.11 344.634 109.85C345.474 110.57 346.084 111.56 346.464 112.82C346.844 114.06 347.034 115.44 347.034 116.96C347.034 119.62 346.594 121.66 345.714 123.08C344.834 124.5 343.364 125.21 341.304 125.21C340.464 125.21 339.604 125.09 338.724 124.85C337.844 124.59 337.034 124.25 336.294 123.83V132.11H333.294ZM340.404 122.69C341.084 122.69 341.694 122.52 342.234 122.18C342.774 121.84 343.204 121.26 343.524 120.44C343.864 119.6 344.034 118.44 344.034 116.96C344.034 115.54 343.864 114.41 343.524 113.57C343.184 112.73 342.744 112.13 342.204 111.77C341.664 111.39 341.074 111.2 340.434 111.2C339.594 111.2 338.824 111.33 338.124 111.59C337.444 111.85 336.834 112.12 336.294 112.4V121.55C336.894 121.89 337.554 122.17 338.274 122.39C338.994 122.59 339.704 122.69 340.404 122.69ZM350.697 125V108.95H353.097L353.697 110.69C354.477 110.15 355.337 109.68 356.277 109.28C357.217 108.88 358.297 108.68 359.517 108.68C360.537 108.68 361.387 108.9 362.067 109.34C362.747 109.78 363.277 110.34 363.657 111.02C364.137 110.66 364.717 110.3 365.397 109.94C366.077 109.58 366.807 109.28 367.587 109.04C368.367 108.8 369.117 108.68 369.837 108.68C371.037 108.68 372.007 108.93 372.747 109.43C373.487 109.91 374.027 110.58 374.367 111.44C374.707 112.28 374.877 113.23 374.877 114.29V125H371.877V114.56C371.877 113.62 371.607 112.86 371.067 112.28C370.527 111.7 369.777 111.41 368.817 111.41C368.017 111.41 367.197 111.57 366.357 111.89C365.517 112.19 364.747 112.56 364.047 113C364.207 113.54 364.287 114.07 364.287 114.59V125H361.287V114.56C361.287 113.62 361.017 112.86 360.477 112.28C359.937 111.7 359.197 111.41 358.257 111.41C357.357 111.41 356.557 111.54 355.857 111.8C355.157 112.06 354.437 112.41 353.697 112.85V125H350.697ZM385.327 125.18C383.627 125.18 382.267 124.93 381.247 124.43C380.247 123.93 379.527 123.09 379.087 121.91C378.667 120.71 378.457 119.06 378.457 116.96C378.457 114.82 378.667 113.16 379.087 111.98C379.527 110.78 380.247 109.94 381.247 109.46C382.247 108.98 383.597 108.74 385.297 108.74C386.757 108.74 387.947 108.9 388.867 109.22C389.787 109.54 390.457 110.09 390.877 110.87C391.317 111.65 391.537 112.73 391.537 114.11C391.537 115.61 391.107 116.66 390.247 117.26C389.387 117.84 388.227 118.13 386.767 118.13H381.457C381.477 119.29 381.607 120.22 381.847 120.92C382.107 121.6 382.557 122.1 383.197 122.42C383.857 122.72 384.817 122.87 386.077 122.87H391.087V124.67C390.227 124.79 389.347 124.9 388.447 125C387.567 125.12 386.527 125.18 385.327 125.18ZM381.427 116.24H386.497C387.297 116.24 387.887 116.09 388.267 115.79C388.647 115.47 388.837 114.92 388.837 114.14C388.837 112.92 388.567 112.09 388.027 111.65C387.487 111.19 386.577 110.96 385.297 110.96C384.297 110.96 383.517 111.11 382.957 111.41C382.397 111.71 381.997 112.25 381.757 113.03C381.537 113.79 381.427 114.86 381.427 116.24ZM395.199 125V108.95H397.599L398.199 110.69C398.899 110.17 399.749 109.71 400.749 109.31C401.749 108.89 402.779 108.68 403.839 108.68C405.039 108.68 405.999 108.94 406.719 109.46C407.459 109.96 407.989 110.63 408.309 111.47C408.629 112.31 408.789 113.22 408.789 114.2V125H405.789V114.56C405.789 113.62 405.519 112.86 404.979 112.28C404.439 111.7 403.699 111.41 402.759 111.41C401.859 111.41 401.059 111.54 400.359 111.8C399.659 112.06 398.939 112.41 398.199 112.85V125H395.199ZM418.444 125C416.804 125 415.594 124.6 414.814 123.8C414.054 123 413.694 121.62 413.734 119.66L413.854 111.41H411.304V109.46L413.914 108.95L414.364 104.45H416.734V108.95H421.084V111.41H416.734V119.63C416.734 120.45 416.844 121.07 417.064 121.49C417.284 121.89 417.564 122.17 417.904 122.33C418.244 122.47 418.574 122.56 418.894 122.6L420.874 122.78V125H418.444ZM255.372 165V145.62L251.022 146.61V144.69L255.672 142.68H258.402V165H255.372ZM268.459 165.09C266.779 165.09 265.429 164.65 264.409 163.77C263.389 162.89 262.879 161.53 262.879 159.69V148.26C262.879 146.44 263.389 145.06 264.409 144.12C265.449 143.18 266.799 142.71 268.459 142.71H272.869C274.729 142.71 276.089 143.22 276.949 144.24C277.829 145.24 278.269 146.58 278.269 148.26V159.69C278.269 161.51 277.779 162.87 276.799 163.77C275.839 164.65 274.519 165.09 272.839 165.09H268.459ZM269.089 162.36H272.119C273.219 162.36 274.009 162.09 274.489 161.55C274.989 161.01 275.239 160.25 275.239 159.27V148.53C275.239 147.47 274.979 146.69 274.459 146.19C273.939 145.67 273.199 145.41 272.239 145.41H268.999C268.039 145.41 267.279 145.68 266.719 146.22C266.159 146.76 265.879 147.53 265.879 148.53V159.27C265.879 160.31 266.159 161.09 266.719 161.61C267.299 162.11 268.089 162.36 269.089 162.36ZM286.979 165L300.329 143.04H302.339L289.079 165H286.979ZM285.599 154.53C284.119 154.53 283.089 154.2 282.509 153.54C281.929 152.88 281.639 151.91 281.639 150.63V146.91C281.639 145.65 281.929 144.69 282.509 144.03C283.089 143.37 284.139 143.04 285.659 143.04H288.689C290.149 143.04 291.169 143.37 291.749 144.03C292.329 144.69 292.619 145.65 292.619 146.91V150.63C292.619 151.91 292.329 152.88 291.749 153.54C291.169 154.2 290.129 154.53 288.629 154.53H285.599ZM285.929 152.58H288.269C289.149 152.58 289.769 152.41 290.129 152.07C290.489 151.73 290.669 151.12 290.669 150.24V147.33C290.669 146.47 290.499 145.87 290.159 145.53C289.819 145.17 289.209 144.99 288.329 144.99H285.989C285.189 144.99 284.589 145.14 284.189 145.44C283.789 145.74 283.589 146.37 283.589 147.33V150.24C283.589 151.1 283.759 151.71 284.099 152.07C284.459 152.41 285.069 152.58 285.929 152.58ZM300.899 164.91C299.439 164.91 298.419 164.58 297.839 163.92C297.259 163.26 296.969 162.29 296.969 161.01V157.29C296.969 156.03 297.249 155.07 297.809 154.41C298.389 153.75 299.439 153.42 300.959 153.42H304.019C305.479 153.42 306.499 153.75 307.079 154.41C307.659 155.07 307.949 156.03 307.949 157.29V161.01C307.949 162.29 307.659 163.26 307.079 163.92C306.499 164.58 305.459 164.91 303.959 164.91H300.899ZM301.259 162.96H303.599C304.459 162.96 305.069 162.79 305.429 162.45C305.809 162.11 305.999 161.5 305.999 160.62V157.71C305.999 156.85 305.829 156.25 305.489 155.91C305.149 155.55 304.539 155.37 303.659 155.37H301.319C300.519 155.37 299.919 155.52 299.519 155.82C299.119 156.12 298.919 156.75 298.919 157.71V160.62C298.919 161.48 299.089 162.09 299.429 162.45C299.789 162.79 300.399 162.96 301.259 162.96Z" fill="#D267D2"/>
<path d="M93.0445 254.98V232.87H101.894C102.654 232.87 103.384 232.96 104.084 233.14C104.804 233.32 105.444 233.65 106.004 234.13C106.564 234.59 107.004 235.26 107.324 236.14C107.644 237.02 107.804 238.16 107.804 239.56C107.804 241.08 107.594 242.27 107.174 243.13C106.774 243.97 106.264 244.58 105.644 244.96C105.024 245.34 104.414 245.61 103.814 245.77L108.224 254.98H105.164L101.084 246.19C100.684 246.19 100.174 246.19 99.5545 246.19C98.9545 246.17 98.3345 246.16 97.6945 246.16C97.0745 246.14 96.5345 246.12 96.0745 246.1V254.98H93.0445ZM96.0745 243.76H101.414C102.034 243.76 102.594 243.65 103.094 243.43C103.614 243.21 104.024 242.8 104.324 242.2C104.644 241.6 104.804 240.72 104.804 239.56C104.804 238.44 104.644 237.6 104.324 237.04C104.024 236.46 103.614 236.07 103.094 235.87C102.574 235.67 102.014 235.57 101.414 235.57H96.0745V243.76ZM117.419 255.16C115.719 255.16 114.359 254.91 113.339 254.41C112.339 253.91 111.619 253.07 111.179 251.89C110.759 250.69 110.549 249.04 110.549 246.94C110.549 244.8 110.759 243.14 111.179 241.96C111.619 240.76 112.339 239.92 113.339 239.44C114.339 238.96 115.689 238.72 117.389 238.72C118.849 238.72 120.039 238.88 120.959 239.2C121.879 239.52 122.549 240.07 122.969 240.85C123.409 241.63 123.629 242.71 123.629 244.09C123.629 245.59 123.199 246.64 122.339 247.24C121.479 247.82 120.319 248.11 118.859 248.11H113.549C113.569 249.27 113.699 250.2 113.939 250.9C114.199 251.58 114.649 252.08 115.289 252.4C115.949 252.7 116.909 252.85 118.169 252.85H123.179V254.65C122.319 254.77 121.439 254.88 120.539 254.98C119.659 255.1 118.619 255.16 117.419 255.16ZM113.519 246.22H118.589C119.389 246.22 119.979 246.07 120.359 245.77C120.739 245.45 120.929 244.9 120.929 244.12C120.929 242.9 120.659 242.07 120.119 241.63C119.579 241.17 118.669 240.94 117.389 240.94C116.389 240.94 115.609 241.09 115.049 241.39C114.489 241.69 114.089 242.23 113.849 243.01C113.629 243.77 113.519 244.84 113.519 246.22ZM130.087 254.98L125.407 238.93H128.497L132.007 252.19L135.787 238.93H138.337L142.117 252.19L145.477 238.93H148.567L143.947 254.98H140.617L137.017 243.07L133.357 254.98H130.087ZM153.791 255.16C152.611 255.16 151.631 254.81 150.851 254.11C150.091 253.39 149.711 252.4 149.711 251.14V249.88C149.711 248.64 150.131 247.63 150.971 246.85C151.831 246.05 153.121 245.65 154.841 245.65H159.851V243.97C159.851 243.35 159.741 242.83 159.521 242.41C159.321 241.97 158.931 241.64 158.351 241.42C157.791 241.2 156.971 241.09 155.891 241.09H150.971V239.32C151.691 239.16 152.531 239.02 153.491 238.9C154.471 238.78 155.611 238.71 156.911 238.69C158.891 238.69 160.381 239.08 161.381 239.86C162.381 240.62 162.881 241.92 162.881 243.76V254.98H160.511L160.001 253.18C159.901 253.28 159.651 253.44 159.251 253.66C158.871 253.86 158.381 254.08 157.781 254.32C157.201 254.54 156.561 254.74 155.861 254.92C155.181 255.08 154.491 255.16 153.791 255.16ZM155.171 252.97C155.571 252.99 156.021 252.94 156.521 252.82C157.041 252.7 157.551 252.57 158.051 252.43C158.551 252.27 158.971 252.13 159.311 252.01C159.651 251.87 159.831 251.79 159.851 251.77V247.15L155.651 247.33C154.611 247.39 153.861 247.66 153.401 248.14C152.961 248.6 152.741 249.19 152.741 249.91V250.63C152.741 251.51 152.991 252.12 153.491 252.46C154.011 252.8 154.571 252.97 155.171 252.97ZM166.958 254.98V238.93H169.268L169.958 241.63C170.638 240.81 171.398 240.12 172.238 239.56C173.078 239 174.058 238.72 175.178 238.72C175.738 238.72 176.218 238.78 176.618 238.9V241.99C176.338 241.95 176.038 241.92 175.718 241.9C175.418 241.86 175.118 241.84 174.818 241.84C173.798 241.84 172.918 242.03 172.178 242.41C171.458 242.77 170.718 243.31 169.958 244.03V254.98H166.958ZM184.659 255.16C182.719 255.16 181.269 254.52 180.309 253.24C179.369 251.96 178.899 249.91 178.899 247.09C178.899 245.11 179.089 243.51 179.469 242.29C179.869 241.05 180.509 240.15 181.389 239.59C182.269 239.01 183.459 238.72 184.959 238.72C185.799 238.72 186.629 238.81 187.449 238.99C188.269 239.17 188.999 239.37 189.639 239.59V232.09H192.639V254.98H190.179L189.639 253.39C189.319 253.67 188.879 253.95 188.319 254.23C187.759 254.49 187.159 254.71 186.519 254.89C185.879 255.07 185.259 255.16 184.659 255.16ZM185.619 252.7C186.439 252.7 187.179 252.57 187.839 252.31C188.519 252.05 189.119 251.78 189.639 251.5V241.75C189.019 241.57 188.409 241.41 187.809 241.27C187.229 241.11 186.579 241.03 185.859 241.03C184.899 241.03 184.129 241.2 183.549 241.54C182.989 241.88 182.579 242.48 182.319 243.34C182.059 244.2 181.929 245.4 181.929 246.94C181.929 249.08 182.209 250.58 182.769 251.44C183.329 252.28 184.279 252.7 185.619 252.7ZM211.231 255.16C210.591 255.16 209.841 255.13 208.981 255.07C208.141 255.03 207.311 254.97 206.491 254.89C205.691 254.79 205.021 254.68 204.481 254.56V252.22C205.261 252.28 206.261 252.34 207.481 252.4C208.721 252.44 209.931 252.46 211.111 252.46C211.971 252.46 212.731 252.38 213.391 252.22C214.071 252.06 214.601 251.76 214.981 251.32C215.381 250.88 215.581 250.26 215.581 249.46V248.17C215.581 247.27 215.331 246.58 214.831 246.1C214.351 245.62 213.611 245.38 212.611 245.38H210.361C208.461 245.38 206.981 244.96 205.921 244.12C204.861 243.28 204.331 241.84 204.331 239.8V238.57C204.331 236.47 204.901 234.97 206.041 234.07C207.201 233.15 208.841 232.69 210.961 232.69C211.661 232.69 212.411 232.73 213.211 232.81C214.011 232.87 214.781 232.95 215.521 233.05C216.281 233.15 216.921 233.25 217.441 233.35V235.69C216.541 235.63 215.531 235.57 214.411 235.51C213.311 235.43 212.271 235.39 211.291 235.39C210.031 235.39 209.031 235.62 208.291 236.08C207.571 236.52 207.211 237.4 207.211 238.72V239.62C207.211 240.7 207.491 241.45 208.051 241.87C208.631 242.29 209.451 242.5 210.511 242.5H212.941C214.821 242.5 216.211 243 217.111 244C218.011 245 218.461 246.27 218.461 247.81V249.37C218.461 250.95 218.141 252.16 217.501 253C216.861 253.82 215.991 254.39 214.891 254.71C213.811 255.01 212.591 255.16 211.231 255.16ZM226.449 262.09L228.399 254.98C227.439 254.98 226.559 254.69 225.759 254.11C224.959 253.51 224.349 252.49 223.929 251.05L220.329 238.93H223.479L226.719 250.42C226.959 251.14 227.239 251.64 227.559 251.92C227.879 252.18 228.179 252.34 228.459 252.4C228.739 252.44 228.909 252.46 228.969 252.46L232.719 238.93H235.809L230.289 259.12L228.849 262.09H226.449ZM244.023 255.16C243.463 255.16 242.763 255.14 241.923 255.1C241.103 255.06 240.313 255 239.553 254.92C238.793 254.84 238.223 254.75 237.843 254.65V252.85H244.593C245.453 252.85 246.133 252.73 246.633 252.49C247.153 252.25 247.413 251.69 247.413 250.81V250.15C247.413 249.55 247.213 249.08 246.813 248.74C246.413 248.4 245.753 248.23 244.833 248.23H242.493C241.553 248.23 240.713 248.11 239.973 247.87C239.253 247.61 238.683 247.18 238.263 246.58C237.863 245.98 237.663 245.17 237.663 244.15V243.28C237.663 241.76 238.103 240.63 238.983 239.89C239.883 239.15 241.403 238.78 243.543 238.78C244.143 238.78 244.813 238.81 245.553 238.87C246.293 238.91 247.003 238.97 247.683 239.05C248.383 239.13 248.943 239.22 249.363 239.32V241.12H243.003C242.123 241.12 241.443 241.27 240.963 241.57C240.503 241.87 240.273 242.44 240.273 243.28V243.88C240.273 244.68 240.513 245.19 240.993 245.41C241.493 245.63 242.163 245.74 243.003 245.74H245.403C246.903 245.74 248.043 246.1 248.823 246.82C249.623 247.52 250.023 248.51 250.023 249.79V251.02C250.023 252.1 249.773 252.94 249.273 253.54C248.793 254.14 248.103 254.56 247.203 254.8C246.303 255.04 245.243 255.16 244.023 255.16ZM258.993 254.98C257.353 254.98 256.143 254.58 255.363 253.78C254.603 252.98 254.243 251.6 254.283 249.64L254.403 241.39H251.853V239.44L254.463 238.93L254.913 234.43H257.283V238.93H261.633V241.39H257.283V249.61C257.283 250.43 257.393 251.05 257.613 251.47C257.833 251.87 258.113 252.15 258.453 252.31C258.793 252.45 259.123 252.54 259.443 252.58L261.423 252.76V254.98H258.993ZM270.993 255.16C269.293 255.16 267.933 254.91 266.913 254.41C265.913 253.91 265.193 253.07 264.753 251.89C264.333 250.69 264.123 249.04 264.123 246.94C264.123 244.8 264.333 243.14 264.753 241.96C265.193 240.76 265.913 239.92 266.913 239.44C267.913 238.96 269.263 238.72 270.963 238.72C272.423 238.72 273.613 238.88 274.533 239.2C275.453 239.52 276.123 240.07 276.543 240.85C276.983 241.63 277.203 242.71 277.203 244.09C277.203 245.59 276.773 246.64 275.913 247.24C275.053 247.82 273.893 248.11 272.433 248.11H267.123C267.143 249.27 267.273 250.2 267.513 250.9C267.773 251.58 268.223 252.08 268.863 252.4C269.523 252.7 270.483 252.85 271.743 252.85H276.753V254.65C275.893 254.77 275.013 254.88 274.113 254.98C273.233 255.1 272.193 255.16 270.993 255.16ZM267.093 246.22H272.163C272.963 246.22 273.553 246.07 273.933 245.77C274.313 245.45 274.503 244.9 274.503 244.12C274.503 242.9 274.233 242.07 273.693 241.63C273.153 241.17 272.243 240.94 270.963 240.94C269.963 240.94 269.183 241.09 268.623 241.39C268.063 241.69 267.663 242.23 267.423 243.01C267.203 243.77 267.093 244.84 267.093 246.22ZM280.865 254.98V238.93H283.265L283.865 240.67C284.645 240.13 285.505 239.66 286.445 239.26C287.385 238.86 288.465 238.66 289.685 238.66C290.705 238.66 291.555 238.88 292.235 239.32C292.915 239.76 293.445 240.32 293.825 241C294.305 240.64 294.885 240.28 295.565 239.92C296.245 239.56 296.975 239.26 297.755 239.02C298.535 238.78 299.285 238.66 300.005 238.66C301.205 238.66 302.175 238.91 302.915 239.41C303.655 239.89 304.195 240.56 304.535 241.42C304.875 242.26 305.045 243.21 305.045 244.27V254.98H302.045V244.54C302.045 243.6 301.775 242.84 301.235 242.26C300.695 241.68 299.945 241.39 298.985 241.39C298.185 241.39 297.365 241.55 296.525 241.87C295.685 242.17 294.915 242.54 294.215 242.98C294.375 243.52 294.455 244.05 294.455 244.57V254.98H291.455V244.54C291.455 243.6 291.185 242.84 290.645 242.26C290.105 241.68 289.365 241.39 288.425 241.39C287.525 241.39 286.725 241.52 286.025 241.78C285.325 242.04 284.605 242.39 283.865 242.83V254.98H280.865ZM180.467 294.98L187.847 275.9H177.257V272.87H190.817L191.687 274.31L183.857 294.98H180.467ZM199.364 294.98L212.714 273.02H214.724L201.464 294.98H199.364ZM197.984 284.51C196.504 284.51 195.474 284.18 194.894 283.52C194.314 282.86 194.024 281.89 194.024 280.61V276.89C194.024 275.63 194.314 274.67 194.894 274.01C195.474 273.35 196.524 273.02 198.044 273.02H201.074C202.534 273.02 203.554 273.35 204.134 274.01C204.714 274.67 205.004 275.63 205.004 276.89V280.61C205.004 281.89 204.714 282.86 204.134 283.52C203.554 284.18 202.514 284.51 201.014 284.51H197.984ZM198.314 282.56H200.654C201.534 282.56 202.154 282.39 202.514 282.05C202.874 281.71 203.054 281.1 203.054 280.22V277.31C203.054 276.45 202.884 275.85 202.544 275.51C202.204 275.15 201.594 274.97 200.714 274.97H198.374C197.574 274.97 196.974 275.12 196.574 275.42C196.174 275.72 195.974 276.35 195.974 277.31V280.22C195.974 281.08 196.144 281.69 196.484 282.05C196.844 282.39 197.454 282.56 198.314 282.56ZM213.284 294.89C211.824 294.89 210.804 294.56 210.224 293.9C209.644 293.24 209.354 292.27 209.354 290.99V287.27C209.354 286.01 209.634 285.05 210.194 284.39C210.774 283.73 211.824 283.4 213.344 283.4H216.404C217.864 283.4 218.884 283.73 219.464 284.39C220.044 285.05 220.334 286.01 220.334 287.27V290.99C220.334 292.27 220.044 293.24 219.464 293.9C218.884 294.56 217.844 294.89 216.344 294.89H213.284ZM213.644 292.94H215.984C216.844 292.94 217.454 292.77 217.814 292.43C218.194 292.09 218.384 291.48 218.384 290.6V287.69C218.384 286.83 218.214 286.23 217.874 285.89C217.534 285.53 216.924 285.35 216.044 285.35H213.704C212.904 285.35 212.304 285.5 211.904 285.8C211.504 286.1 211.304 286.73 211.304 287.69V290.6C211.304 291.46 211.474 292.07 211.814 292.43C212.174 292.77 212.784 292.94 213.644 292.94Z" fill="#FE98CB"/>
<path d="M15.8515 425.18C15.2115 425.18 14.4615 425.15 13.6015 425.09C12.7615 425.05 11.9315 424.99 11.1115 424.91C10.3115 424.81 9.64148 424.7 9.10148 424.58V422.24C9.88148 422.3 10.8815 422.36 12.1015 422.42C13.3415 422.46 14.5515 422.48 15.7315 422.48C16.5915 422.48 17.3515 422.4 18.0115 422.24C18.6915 422.08 19.2215 421.78 19.6015 421.34C20.0015 420.9 20.2015 420.28 20.2015 419.48V418.19C20.2015 417.29 19.9515 416.6 19.4515 416.12C18.9715 415.64 18.2315 415.4 17.2315 415.4H14.9815C13.0815 415.4 11.6015 414.98 10.5415 414.14C9.48148 413.3 8.95148 411.86 8.95148 409.82V408.59C8.95148 406.49 9.52148 404.99 10.6615 404.09C11.8215 403.17 13.4615 402.71 15.5815 402.71C16.2815 402.71 17.0315 402.75 17.8315 402.83C18.6315 402.89 19.4015 402.97 20.1415 403.07C20.9015 403.17 21.5415 403.27 22.0615 403.37V405.71C21.1615 405.65 20.1515 405.59 19.0315 405.53C17.9315 405.45 16.8915 405.41 15.9115 405.41C14.6515 405.41 13.6515 405.64 12.9115 406.1C12.1915 406.54 11.8315 407.42 11.8315 408.74V409.64C11.8315 410.72 12.1115 411.47 12.6715 411.89C13.2515 412.31 14.0715 412.52 15.1315 412.52H17.5615C19.4415 412.52 20.8315 413.02 21.7315 414.02C22.6315 415.02 23.0815 416.29 23.0815 417.83V419.39C23.0815 420.97 22.7615 422.18 22.1215 423.02C21.4815 423.84 20.6115 424.41 19.5115 424.73C18.4315 425.03 17.2115 425.18 15.8515 425.18ZM32.3824 425C30.7424 425 29.5324 424.6 28.7524 423.8C27.9924 423 27.6324 421.62 27.6724 419.66L27.7924 411.41H25.2424V409.46L27.8524 408.95L28.3024 404.45H30.6724V408.95H35.0224V411.41H30.6724V419.63C30.6724 420.45 30.7824 421.07 31.0024 421.49C31.2224 421.89 31.5024 422.17 31.8424 422.33C32.1824 422.47 32.5124 422.56 32.8324 422.6L34.8124 422.78V425H32.3824ZM38.0531 425V408.95H40.3631L41.0531 411.65C41.7331 410.83 42.4931 410.14 43.3331 409.58C44.1731 409.02 45.1531 408.74 46.2731 408.74C46.8331 408.74 47.3131 408.8 47.7131 408.92V412.01C47.4331 411.97 47.1331 411.94 46.8131 411.92C46.5131 411.88 46.2131 411.86 45.9131 411.86C44.8931 411.86 44.0131 412.05 43.2731 412.43C42.5531 412.79 41.8131 413.33 41.0531 414.05V425H38.0531ZM56.8636 425.18C55.1636 425.18 53.8036 424.93 52.7836 424.43C51.7836 423.93 51.0636 423.09 50.6236 421.91C50.2036 420.71 49.9936 419.06 49.9936 416.96C49.9936 414.82 50.2036 413.16 50.6236 411.98C51.0636 410.78 51.7836 409.94 52.7836 409.46C53.7836 408.98 55.1336 408.74 56.8336 408.74C58.2936 408.74 59.4836 408.9 60.4036 409.22C61.3236 409.54 61.9936 410.09 62.4136 410.87C62.8536 411.65 63.0736 412.73 63.0736 414.11C63.0736 415.61 62.6436 416.66 61.7836 417.26C60.9236 417.84 59.7636 418.13 58.3036 418.13H52.9936C53.0136 419.29 53.1436 420.22 53.3836 420.92C53.6436 421.6 54.0936 422.1 54.7336 422.42C55.3936 422.72 56.3536 422.87 57.6136 422.87H62.6236V424.67C61.7636 424.79 60.8836 424.9 59.9836 425C59.1036 425.12 58.0636 425.18 56.8636 425.18ZM52.9636 416.24H58.0336C58.8336 416.24 59.4236 416.09 59.8036 415.79C60.1836 415.47 60.3736 414.92 60.3736 414.14C60.3736 412.92 60.1036 412.09 59.5636 411.65C59.0236 411.19 58.1136 410.96 56.8336 410.96C55.8336 410.96 55.0536 411.11 54.4936 411.41C53.9336 411.71 53.5336 412.25 53.2936 413.03C53.0736 413.79 52.9636 414.86 52.9636 416.24ZM69.9448 425.18C68.7648 425.18 67.7848 424.83 67.0048 424.13C66.2448 423.41 65.8648 422.42 65.8648 421.16V419.9C65.8648 418.66 66.2848 417.65 67.1248 416.87C67.9848 416.07 69.2748 415.67 70.9948 415.67H76.0048V413.99C76.0048 413.37 75.8948 412.85 75.6748 412.43C75.4748 411.99 75.0848 411.66 74.5048 411.44C73.9448 411.22 73.1248 411.11 72.0448 411.11H67.1248V409.34C67.8448 409.18 68.6848 409.04 69.6448 408.92C70.6248 408.8 71.7648 408.73 73.0648 408.71C75.0448 408.71 76.5348 409.1 77.5348 409.88C78.5348 410.64 79.0348 411.94 79.0348 413.78V425H76.6648L76.1548 423.2C76.0548 423.3 75.8048 423.46 75.4048 423.68C75.0248 423.88 74.5348 424.1 73.9348 424.34C73.3548 424.56 72.7148 424.76 72.0148 424.94C71.3348 425.1 70.6448 425.18 69.9448 425.18ZM71.3248 422.99C71.7248 423.01 72.1748 422.96 72.6748 422.84C73.1948 422.72 73.7048 422.59 74.2048 422.45C74.7048 422.29 75.1248 422.15 75.4648 422.03C75.8048 421.89 75.9848 421.81 76.0048 421.79V417.17L71.8048 417.35C70.7648 417.41 70.0148 417.68 69.5548 418.16C69.1148 418.62 68.8948 419.21 68.8948 419.93V420.65C68.8948 421.53 69.1448 422.14 69.6448 422.48C70.1648 422.82 70.7248 422.99 71.3248 422.99ZM83.1117 425V408.95H85.5117L86.1117 410.69C86.8917 410.15 87.7517 409.68 88.6917 409.28C89.6317 408.88 90.7117 408.68 91.9317 408.68C92.9517 408.68 93.8017 408.9 94.4817 409.34C95.1617 409.78 95.6917 410.34 96.0717 411.02C96.5517 410.66 97.1317 410.3 97.8117 409.94C98.4917 409.58 99.2217 409.28 100.002 409.04C100.782 408.8 101.532 408.68 102.252 408.68C103.452 408.68 104.422 408.93 105.162 409.43C105.902 409.91 106.442 410.58 106.782 411.44C107.122 412.28 107.292 413.23 107.292 414.29V425H104.292V414.56C104.292 413.62 104.022 412.86 103.482 412.28C102.942 411.7 102.192 411.41 101.232 411.41C100.432 411.41 99.6117 411.57 98.7717 411.89C97.9317 412.19 97.1617 412.56 96.4617 413C96.6217 413.54 96.7017 414.07 96.7017 414.59V425H93.7017V414.56C93.7017 413.62 93.4317 412.86 92.8917 412.28C92.3517 411.7 91.6117 411.41 90.6717 411.41C89.7717 411.41 88.9717 411.54 88.2717 411.8C87.5717 412.06 86.8517 412.41 86.1117 412.85V425H83.1117ZM111.833 406.25C111.473 406.25 111.292 406.08 111.292 405.74V403.22C111.292 402.86 111.473 402.68 111.833 402.68H114.053C114.373 402.68 114.533 402.86 114.533 403.22V405.74C114.533 406.08 114.373 406.25 114.053 406.25H111.833ZM111.413 425V408.95H114.413V425H111.413ZM118.62 425V408.95H121.02L121.62 410.69C122.32 410.17 123.17 409.71 124.17 409.31C125.17 408.89 126.2 408.68 127.26 408.68C128.46 408.68 129.42 408.94 130.14 409.46C130.88 409.96 131.41 410.63 131.73 411.47C132.05 412.31 132.21 413.22 132.21 414.2V425H129.21V414.56C129.21 413.62 128.94 412.86 128.4 412.28C127.86 411.7 127.12 411.41 126.18 411.41C125.28 411.41 124.48 411.54 123.78 411.8C123.08 412.06 122.36 412.41 121.62 412.85V425H118.62ZM140.305 432.38C138.765 432.38 137.495 432.05 136.495 431.39C135.515 430.73 135.025 429.75 135.025 428.45V427.79C135.025 426.91 135.275 426.16 135.775 425.54C136.275 424.94 136.885 424.48 137.605 424.16C136.565 423.62 136.045 422.8 136.045 421.7C136.045 420.9 136.275 420.26 136.735 419.78C137.215 419.28 137.885 418.94 138.745 418.76C137.665 418.28 136.925 417.61 136.525 416.75C136.145 415.89 135.955 415.01 135.955 414.11C135.955 412.29 136.505 410.97 137.605 410.15C138.725 409.33 140.285 408.92 142.285 408.92H150.925V410.63L147.655 410.96C147.895 411.14 148.155 411.38 148.435 411.68C148.715 411.96 148.955 412.35 149.155 412.85C149.355 413.35 149.455 414.01 149.455 414.83C149.455 415.69 149.265 416.49 148.885 417.23C148.525 417.97 147.925 418.57 147.085 419.03C146.265 419.49 145.145 419.72 143.725 419.72H141.085C140.325 419.72 139.725 419.83 139.285 420.05C138.845 420.27 138.625 420.66 138.625 421.22C138.625 421.68 138.795 422 139.135 422.18C139.475 422.36 139.835 422.45 140.215 422.45H145.285C147.125 422.45 148.515 422.81 149.455 423.53C150.395 424.25 150.865 425.4 150.865 426.98V427.55C150.865 429.07 150.365 430.25 149.365 431.09C148.385 431.95 146.895 432.38 144.895 432.38H140.305ZM141.625 417.41H143.395C144.275 417.41 144.955 417.28 145.435 417.02C145.915 416.74 146.245 416.38 146.425 415.94C146.605 415.48 146.695 414.99 146.695 414.47C146.695 413.27 146.415 412.43 145.855 411.95C145.295 411.47 144.545 411.23 143.605 411.23H141.925C140.905 411.23 140.105 411.46 139.525 411.92C138.965 412.38 138.685 413.17 138.685 414.29C138.685 415.39 138.945 416.19 139.465 416.69C139.985 417.17 140.705 417.41 141.625 417.41ZM141.085 430.22H144.595C145.655 430.22 146.495 430.01 147.115 429.59C147.735 429.19 148.045 428.56 148.045 427.7V427.13C148.045 426.41 147.805 425.83 147.325 425.39C146.865 424.97 146.035 424.76 144.835 424.76H140.965C140.145 424.76 139.425 424.96 138.805 425.36C138.185 425.76 137.875 426.39 137.875 427.25V427.82C137.875 428.66 138.155 429.27 138.715 429.65C139.295 430.03 140.085 430.22 141.085 430.22ZM161.747 425V402.89H170.717C171.377 402.89 172.057 402.98 172.757 403.16C173.457 403.32 174.097 403.65 174.677 404.15C175.277 404.65 175.757 405.38 176.117 406.34C176.477 407.28 176.657 408.54 176.657 410.12C176.657 411.7 176.467 412.98 176.087 413.96C175.727 414.94 175.247 415.69 174.647 416.21C174.047 416.73 173.397 417.08 172.697 417.26C171.997 417.44 171.327 417.53 170.687 417.53C170.367 417.53 169.927 417.52 169.367 417.5C168.827 417.48 168.257 417.45 167.657 417.41C167.057 417.37 166.497 417.33 165.977 417.29C165.457 417.25 165.057 417.21 164.777 417.17V425H161.747ZM164.777 414.83H170.267C170.907 414.83 171.477 414.69 171.977 414.41C172.497 414.13 172.897 413.65 173.177 412.97C173.477 412.27 173.627 411.33 173.627 410.15C173.627 408.97 173.477 408.05 173.177 407.39C172.897 406.73 172.517 406.27 172.037 406.01C171.557 405.73 171.027 405.59 170.447 405.59H164.777V414.83ZM179.938 425V408.95H182.248L182.938 411.65C183.618 410.83 184.378 410.14 185.218 409.58C186.058 409.02 187.038 408.74 188.158 408.74C188.718 408.74 189.198 408.8 189.598 408.92V412.01C189.318 411.97 189.018 411.94 188.698 411.92C188.398 411.88 188.098 411.86 187.798 411.86C186.778 411.86 185.898 412.05 185.158 412.43C184.438 412.79 183.698 413.33 182.938 414.05V425H179.938ZM198.958 425.18C197.318 425.18 195.978 424.95 194.938 424.49C193.898 424.01 193.128 423.18 192.628 422C192.128 420.8 191.878 419.12 191.878 416.96C191.878 414.72 192.128 413.01 192.628 411.83C193.148 410.65 193.928 409.84 194.968 409.4C196.008 408.96 197.338 408.74 198.958 408.74C200.558 408.74 201.878 408.97 202.918 409.43C203.978 409.87 204.758 410.68 205.258 411.86C205.778 413.04 206.038 414.74 206.038 416.96C206.038 419.16 205.788 420.85 205.288 422.03C204.788 423.21 204.018 424.03 202.978 424.49C201.938 424.95 200.598 425.18 198.958 425.18ZM198.958 422.72C199.618 422.72 200.198 422.66 200.698 422.54C201.218 422.42 201.648 422.17 201.988 421.79C202.348 421.39 202.608 420.81 202.768 420.05C202.948 419.27 203.038 418.23 203.038 416.93C203.038 415.65 202.948 414.63 202.768 413.87C202.608 413.09 202.348 412.51 201.988 412.13C201.648 411.75 201.218 411.5 200.698 411.38C200.198 411.24 199.618 411.17 198.958 411.17C198.278 411.17 197.678 411.24 197.158 411.38C196.658 411.5 196.238 411.75 195.898 412.13C195.558 412.51 195.308 413.09 195.148 413.87C194.988 414.63 194.908 415.65 194.908 416.93C194.908 418.23 194.988 419.27 195.148 420.05C195.308 420.81 195.558 421.39 195.898 421.79C196.238 422.17 196.658 422.42 197.158 422.54C197.678 422.66 198.278 422.72 198.958 422.72ZM214.924 425.18C212.984 425.18 211.534 424.54 210.574 423.26C209.634 421.98 209.164 419.93 209.164 417.11C209.164 415.13 209.354 413.53 209.734 412.31C210.134 411.07 210.774 410.17 211.654 409.61C212.534 409.03 213.724 408.74 215.224 408.74C216.064 408.74 216.894 408.83 217.714 409.01C218.534 409.19 219.264 409.39 219.904 409.61V402.11H222.904V425H220.444L219.904 423.41C219.584 423.69 219.144 423.97 218.584 424.25C218.024 424.51 217.424 424.73 216.784 424.91C216.144 425.09 215.524 425.18 214.924 425.18ZM215.884 422.72C216.704 422.72 217.444 422.59 218.104 422.33C218.784 422.07 219.384 421.8 219.904 421.52V411.77C219.284 411.59 218.674 411.43 218.074 411.29C217.494 411.13 216.844 411.05 216.124 411.05C215.164 411.05 214.394 411.22 213.814 411.56C213.254 411.9 212.844 412.5 212.584 413.36C212.324 414.22 212.194 415.42 212.194 416.96C212.194 419.1 212.474 420.6 213.034 421.46C213.594 422.3 214.544 422.72 215.884 422.72ZM231.728 425.18C230.208 425.18 229.038 424.78 228.218 423.98C227.398 423.16 226.988 421.92 226.988 420.26V408.95H229.988V419.45C229.988 420.65 230.258 421.46 230.798 421.88C231.358 422.3 232.138 422.51 233.138 422.51C233.938 422.51 234.698 422.39 235.418 422.15C236.138 421.91 236.858 421.56 237.578 421.1V408.95H240.578V425H238.178L237.578 423.26C236.798 423.78 235.898 424.23 234.878 424.61C233.878 424.99 232.828 425.18 231.728 425.18ZM250.683 425.18C249.443 425.18 248.323 424.95 247.323 424.49C246.343 424.03 245.573 423.21 245.013 422.03C244.453 420.85 244.173 419.18 244.173 417.02C244.173 414.82 244.433 413.13 244.953 411.95C245.493 410.75 246.253 409.92 247.233 409.46C248.233 409 249.413 408.77 250.773 408.77C251.613 408.77 252.493 408.81 253.413 408.89C254.333 408.97 255.243 409.1 256.143 409.28V411.05H251.613C250.633 411.05 249.813 411.21 249.153 411.53C248.493 411.83 248.003 412.42 247.683 413.3C247.363 414.16 247.203 415.41 247.203 417.05C247.203 418.65 247.363 419.87 247.683 420.71C248.023 421.53 248.523 422.1 249.183 422.42C249.843 422.72 250.663 422.87 251.643 422.87H256.383V424.58C255.663 424.74 254.793 424.88 253.773 425C252.773 425.12 251.743 425.18 250.683 425.18ZM264.97 425C263.33 425 262.12 424.6 261.34 423.8C260.58 423 260.22 421.62 260.26 419.66L260.38 411.41H257.83V409.46L260.44 408.95L260.89 404.45H263.26V408.95H267.61V411.41H263.26V419.63C263.26 420.45 263.37 421.07 263.59 421.49C263.81 421.89 264.09 422.17 264.43 422.33C264.77 422.47 265.1 422.56 265.42 422.6L267.4 422.78V425H264.97ZM271.061 406.25C270.701 406.25 270.521 406.08 270.521 405.74V403.22C270.521 402.86 270.701 402.68 271.061 402.68H273.281C273.601 402.68 273.761 402.86 273.761 403.22V405.74C273.761 406.08 273.601 406.25 273.281 406.25H271.061ZM270.641 425V408.95H273.641V425H270.641ZM284.388 425.18C282.748 425.18 281.408 424.95 280.368 424.49C279.328 424.01 278.558 423.18 278.058 422C277.558 420.8 277.308 419.12 277.308 416.96C277.308 414.72 277.558 413.01 278.058 411.83C278.578 410.65 279.358 409.84 280.398 409.4C281.438 408.96 282.768 408.74 284.388 408.74C285.988 408.74 287.308 408.97 288.348 409.43C289.408 409.87 290.188 410.68 290.688 411.86C291.208 413.04 291.468 414.74 291.468 416.96C291.468 419.16 291.218 420.85 290.718 422.03C290.218 423.21 289.448 424.03 288.408 424.49C287.368 424.95 286.028 425.18 284.388 425.18ZM284.388 422.72C285.048 422.72 285.628 422.66 286.128 422.54C286.648 422.42 287.078 422.17 287.418 421.79C287.778 421.39 288.038 420.81 288.198 420.05C288.378 419.27 288.468 418.23 288.468 416.93C288.468 415.65 288.378 414.63 288.198 413.87C288.038 413.09 287.778 412.51 287.418 412.13C287.078 411.75 286.648 411.5 286.128 411.38C285.628 411.24 285.048 411.17 284.388 411.17C283.708 411.17 283.108 411.24 282.588 411.38C282.088 411.5 281.668 411.75 281.328 412.13C280.988 412.51 280.738 413.09 280.578 413.87C280.418 414.63 280.338 415.65 280.338 416.93C280.338 418.23 280.418 419.27 280.578 420.05C280.738 420.81 280.988 421.39 281.328 421.79C281.668 422.17 282.088 422.42 282.588 422.54C283.108 422.66 283.708 422.72 284.388 422.72ZM295.133 425V408.95H297.533L298.133 410.69C298.833 410.17 299.683 409.71 300.683 409.31C301.683 408.89 302.713 408.68 303.773 408.68C304.973 408.68 305.933 408.94 306.653 409.46C307.393 409.96 307.923 410.63 308.243 411.47C308.563 412.31 308.723 413.22 308.723 414.2V425H305.723V414.56C305.723 413.62 305.453 412.86 304.913 412.28C304.373 411.7 303.633 411.41 302.693 411.41C301.793 411.41 300.993 411.54 300.293 411.8C299.593 412.06 298.873 412.41 298.133 412.85V425H295.133ZM142.775 465.09C141.735 465.09 140.795 464.95 139.955 464.67C139.135 464.39 138.475 463.92 137.975 463.26C137.495 462.6 137.255 461.7 137.255 460.56V457.44C137.255 456.42 137.535 455.6 138.095 454.98C138.675 454.34 139.305 453.94 139.985 453.78C139.045 453.36 138.425 452.81 138.125 452.13C137.845 451.43 137.705 450.68 137.705 449.88V447.33C137.705 446.23 137.925 445.34 138.365 444.66C138.805 443.98 139.395 443.49 140.135 443.19C140.895 442.89 141.735 442.74 142.655 442.74H146.825C148.205 442.74 149.335 443.09 150.215 443.79C151.095 444.49 151.535 445.67 151.535 447.33V449.88C151.535 450.3 151.455 450.77 151.295 451.29C151.155 451.79 150.925 452.25 150.605 452.67C150.285 453.07 149.875 453.33 149.375 453.45C150.015 453.59 150.525 453.87 150.905 454.29C151.285 454.69 151.555 455.16 151.715 455.7C151.875 456.24 151.955 456.77 151.955 457.29V460.56C151.955 461.7 151.735 462.6 151.295 463.26C150.855 463.92 150.245 464.39 149.465 464.67C148.705 464.95 147.825 465.09 146.825 465.09H142.775ZM143.255 452.43H146.075C147.035 452.43 147.695 452.17 148.055 451.65C148.415 451.11 148.595 450.53 148.595 449.91V448.02C148.595 446.98 148.385 446.27 147.965 445.89C147.565 445.49 146.975 445.29 146.195 445.29H143.255C142.335 445.29 141.665 445.5 141.245 445.92C140.845 446.34 140.645 447.04 140.645 448.02V449.91C140.645 450.69 140.855 451.31 141.275 451.77C141.695 452.21 142.355 452.43 143.255 452.43ZM143.255 462.51H146.195C147.195 462.51 147.905 462.31 148.325 461.91C148.745 461.49 148.955 460.88 148.955 460.08V457.56C148.955 456.66 148.735 456.01 148.295 455.61C147.855 455.21 147.125 455.01 146.105 455.01H143.255C142.855 455.01 142.425 455.1 141.965 455.28C141.505 455.44 141.105 455.71 140.765 456.09C140.445 456.45 140.285 456.94 140.285 457.56V460.08C140.285 460.96 140.555 461.59 141.095 461.97C141.655 462.33 142.375 462.51 143.255 462.51ZM160.766 465L174.116 443.04H176.126L162.866 465H160.766ZM159.386 454.53C157.906 454.53 156.876 454.2 156.296 453.54C155.716 452.88 155.426 451.91 155.426 450.63V446.91C155.426 445.65 155.716 444.69 156.296 444.03C156.876 443.37 157.926 443.04 159.446 443.04H162.476C163.936 443.04 164.956 443.37 165.536 444.03C166.116 444.69 166.406 445.65 166.406 446.91V450.63C166.406 451.91 166.116 452.88 165.536 453.54C164.956 454.2 163.916 454.53 162.416 454.53H159.386ZM159.716 452.58H162.056C162.936 452.58 163.556 452.41 163.916 452.07C164.276 451.73 164.456 451.12 164.456 450.24V447.33C164.456 446.47 164.286 445.87 163.946 445.53C163.606 445.17 162.996 444.99 162.116 444.99H159.776C158.976 444.99 158.376 445.14 157.976 445.44C157.576 445.74 157.376 446.37 157.376 447.33V450.24C157.376 451.1 157.546 451.71 157.886 452.07C158.246 452.41 158.856 452.58 159.716 452.58ZM174.686 464.91C173.226 464.91 172.206 464.58 171.626 463.92C171.046 463.26 170.756 462.29 170.756 461.01V457.29C170.756 456.03 171.036 455.07 171.596 454.41C172.176 453.75 173.226 453.42 174.746 453.42H177.806C179.266 453.42 180.286 453.75 180.866 454.41C181.446 455.07 181.736 456.03 181.736 457.29V461.01C181.736 462.29 181.446 463.26 180.866 463.92C180.286 464.58 179.246 464.91 177.746 464.91H174.686ZM175.046 462.96H177.386C178.246 462.96 178.856 462.79 179.216 462.45C179.596 462.11 179.786 461.5 179.786 460.62V457.71C179.786 456.85 179.616 456.25 179.276 455.91C178.936 455.55 178.326 455.37 177.446 455.37H175.106C174.306 455.37 173.706 455.52 173.306 455.82C172.906 456.12 172.706 456.75 172.706 457.71V460.62C172.706 461.48 172.876 462.09 173.216 462.45C173.576 462.79 174.186 462.96 175.046 462.96Z" fill="#5ECFE8"/>
<path d="M969.531 424V401.89H978.501C979.161 401.89 979.841 401.98 980.541 402.16C981.241 402.32 981.881 402.65 982.461 403.15C983.061 403.65 983.541 404.38 983.901 405.34C984.261 406.28 984.441 407.54 984.441 409.12C984.441 410.7 984.251 411.98 983.871 412.96C983.511 413.94 983.031 414.69 982.431 415.21C981.831 415.73 981.181 416.08 980.481 416.26C979.781 416.44 979.111 416.53 978.471 416.53C978.151 416.53 977.711 416.52 977.151 416.5C976.611 416.48 976.041 416.45 975.441 416.41C974.841 416.37 974.281 416.33 973.761 416.29C973.241 416.25 972.841 416.21 972.561 416.17V424H969.531ZM972.561 413.83H978.051C978.691 413.83 979.261 413.69 979.761 413.41C980.281 413.13 980.681 412.65 980.961 411.97C981.261 411.27 981.411 410.33 981.411 409.15C981.411 407.97 981.261 407.05 980.961 406.39C980.681 405.73 980.301 405.27 979.821 405.01C979.341 404.73 978.811 404.59 978.231 404.59H972.561V413.83ZM992.432 424.18C990.912 424.18 989.742 423.78 988.922 422.98C988.102 422.16 987.692 420.92 987.692 419.26V407.95H990.692V418.45C990.692 419.65 990.962 420.46 991.502 420.88C992.062 421.3 992.842 421.51 993.842 421.51C994.642 421.51 995.402 421.39 996.122 421.15C996.842 420.91 997.562 420.56 998.282 420.1V407.95H1001.28V424H998.882L998.282 422.26C997.502 422.78 996.602 423.23 995.582 423.61C994.582 423.99 993.532 424.18 992.432 424.18ZM1013.58 424.18C1012.46 424.18 1011.47 423.99 1010.61 423.61C1009.75 423.23 1009.02 422.83 1008.42 422.41L1007.88 424H1005.42V401.11H1008.42V409.3C1009.16 408.88 1009.98 408.52 1010.88 408.22C1011.8 407.9 1012.65 407.74 1013.43 407.74C1015.41 407.74 1016.86 408.38 1017.78 409.66C1018.7 410.92 1019.16 413.07 1019.16 416.11C1019.16 418.67 1018.72 420.66 1017.84 422.08C1016.96 423.48 1015.54 424.18 1013.58 424.18ZM1012.53 421.69C1013.69 421.69 1014.58 421.24 1015.2 420.34C1015.84 419.44 1016.16 417.98 1016.16 415.96C1016.16 414.34 1016 413.12 1015.68 412.3C1015.36 411.46 1014.92 410.9 1014.36 410.62C1013.82 410.34 1013.21 410.2 1012.53 410.2C1011.73 410.2 1011 410.32 1010.34 410.56C1009.7 410.78 1009.06 411.06 1008.42 411.4V420.55C1008.96 420.83 1009.56 421.09 1010.22 421.33C1010.9 421.57 1011.67 421.69 1012.53 421.69ZM1027.29 424.03C1025.81 424.03 1024.69 423.64 1023.93 422.86C1023.19 422.08 1022.82 420.74 1022.82 418.84V401.11H1025.82V418.45C1025.82 419.71 1026 420.55 1026.36 420.97C1026.72 421.37 1027.23 421.61 1027.89 421.69L1029.39 421.87V424.03H1027.29ZM1032.23 405.25C1031.87 405.25 1031.69 405.08 1031.69 404.74V402.22C1031.69 401.86 1031.87 401.68 1032.23 401.68H1034.45C1034.77 401.68 1034.93 401.86 1034.93 402.22V404.74C1034.93 405.08 1034.77 405.25 1034.45 405.25H1032.23ZM1031.81 424V407.95H1034.81V424H1031.81ZM1044.99 424.18C1043.75 424.18 1042.63 423.95 1041.63 423.49C1040.65 423.03 1039.88 422.21 1039.32 421.03C1038.76 419.85 1038.48 418.18 1038.48 416.02C1038.48 413.82 1038.74 412.13 1039.26 410.95C1039.8 409.75 1040.56 408.92 1041.54 408.46C1042.54 408 1043.72 407.77 1045.08 407.77C1045.92 407.77 1046.8 407.81 1047.72 407.89C1048.64 407.97 1049.55 408.1 1050.45 408.28V410.05H1045.92C1044.94 410.05 1044.12 410.21 1043.46 410.53C1042.8 410.83 1042.31 411.42 1041.99 412.3C1041.67 413.16 1041.51 414.41 1041.51 416.05C1041.51 417.65 1041.67 418.87 1041.99 419.71C1042.33 420.53 1042.83 421.1 1043.49 421.42C1044.15 421.72 1044.97 421.87 1045.95 421.87H1050.69V423.58C1049.97 423.74 1049.1 423.88 1048.08 424C1047.08 424.12 1046.05 424.18 1044.99 424.18ZM1068.21 424.18C1067.57 424.18 1066.82 424.15 1065.96 424.09C1065.12 424.05 1064.29 423.99 1063.47 423.91C1062.67 423.81 1062 423.7 1061.46 423.58V421.24C1062.24 421.3 1063.24 421.36 1064.46 421.42C1065.7 421.46 1066.91 421.48 1068.09 421.48C1068.95 421.48 1069.71 421.4 1070.37 421.24C1071.05 421.08 1071.58 420.78 1071.96 420.34C1072.36 419.9 1072.56 419.28 1072.56 418.48V417.19C1072.56 416.29 1072.31 415.6 1071.81 415.12C1071.33 414.64 1070.59 414.4 1069.59 414.4H1067.34C1065.44 414.4 1063.96 413.98 1062.9 413.14C1061.84 412.3 1061.31 410.86 1061.31 408.82V407.59C1061.31 405.49 1061.88 403.99 1063.02 403.09C1064.18 402.17 1065.82 401.71 1067.94 401.71C1068.64 401.71 1069.39 401.75 1070.19 401.83C1070.99 401.89 1071.76 401.97 1072.5 402.07C1073.26 402.17 1073.9 402.27 1074.42 402.37V404.71C1073.52 404.65 1072.51 404.59 1071.39 404.53C1070.29 404.45 1069.25 404.41 1068.27 404.41C1067.01 404.41 1066.01 404.64 1065.27 405.1C1064.55 405.54 1064.19 406.42 1064.19 407.74V408.64C1064.19 409.72 1064.47 410.47 1065.03 410.89C1065.61 411.31 1066.43 411.52 1067.49 411.52H1069.92C1071.8 411.52 1073.19 412.02 1074.09 413.02C1074.99 414.02 1075.44 415.29 1075.44 416.83V418.39C1075.44 419.97 1075.12 421.18 1074.48 422.02C1073.84 422.84 1072.97 423.41 1071.87 423.73C1070.79 424.03 1069.57 424.18 1068.21 424.18ZM1082.4 424.18C1081.22 424.18 1080.24 423.83 1079.46 423.13C1078.7 422.41 1078.32 421.42 1078.32 420.16V418.9C1078.32 417.66 1078.74 416.65 1079.58 415.87C1080.44 415.07 1081.73 414.67 1083.45 414.67H1088.46V412.99C1088.46 412.37 1088.35 411.85 1088.13 411.43C1087.93 410.99 1087.54 410.66 1086.96 410.44C1086.4 410.22 1085.58 410.11 1084.5 410.11H1079.58V408.34C1080.3 408.18 1081.14 408.04 1082.1 407.92C1083.08 407.8 1084.22 407.73 1085.52 407.71C1087.5 407.71 1088.99 408.1 1089.99 408.88C1090.99 409.64 1091.49 410.94 1091.49 412.78V424H1089.12L1088.61 422.2C1088.51 422.3 1088.26 422.46 1087.86 422.68C1087.48 422.88 1086.99 423.1 1086.39 423.34C1085.81 423.56 1085.17 423.76 1084.47 423.94C1083.79 424.1 1083.1 424.18 1082.4 424.18ZM1083.78 421.99C1084.18 422.01 1084.63 421.96 1085.13 421.84C1085.65 421.72 1086.16 421.59 1086.66 421.45C1087.16 421.29 1087.58 421.15 1087.92 421.03C1088.26 420.89 1088.44 420.81 1088.46 420.79V416.17L1084.26 416.35C1083.22 416.41 1082.47 416.68 1082.01 417.16C1081.57 417.62 1081.35 418.21 1081.35 418.93V419.65C1081.35 420.53 1081.6 421.14 1082.1 421.48C1082.62 421.82 1083.18 421.99 1083.78 421.99ZM1100.03 424.03C1098.55 424.03 1097.43 423.64 1096.67 422.86C1095.93 422.08 1095.56 420.74 1095.56 418.84V401.11H1098.56V418.45C1098.56 419.71 1098.74 420.55 1099.1 420.97C1099.46 421.37 1099.97 421.61 1100.63 421.69L1102.13 421.87V424.03H1100.03ZM1110.89 424.18C1109.19 424.18 1107.83 423.93 1106.81 423.43C1105.81 422.93 1105.09 422.09 1104.65 420.91C1104.23 419.71 1104.02 418.06 1104.02 415.96C1104.02 413.82 1104.23 412.16 1104.65 410.98C1105.09 409.78 1105.81 408.94 1106.81 408.46C1107.81 407.98 1109.16 407.74 1110.86 407.74C1112.32 407.74 1113.51 407.9 1114.43 408.22C1115.35 408.54 1116.02 409.09 1116.44 409.87C1116.88 410.65 1117.1 411.73 1117.1 413.11C1117.1 414.61 1116.67 415.66 1115.81 416.26C1114.95 416.84 1113.79 417.13 1112.33 417.13H1107.02C1107.04 418.29 1107.17 419.22 1107.41 419.92C1107.67 420.6 1108.12 421.1 1108.76 421.42C1109.42 421.72 1110.38 421.87 1111.64 421.87H1116.65V423.67C1115.79 423.79 1114.91 423.9 1114.01 424C1113.13 424.12 1112.09 424.18 1110.89 424.18ZM1106.99 415.24H1112.06C1112.86 415.24 1113.45 415.09 1113.83 414.79C1114.21 414.47 1114.4 413.92 1114.4 413.14C1114.4 411.92 1114.13 411.09 1113.59 410.65C1113.05 410.19 1112.14 409.96 1110.86 409.96C1109.86 409.96 1109.08 410.11 1108.52 410.41C1107.96 410.71 1107.56 411.25 1107.32 412.03C1107.1 412.79 1106.99 413.86 1106.99 415.24ZM1019.36 464.15C1018.06 464.15 1016.74 464.11 1015.4 464.03C1014.06 463.97 1012.84 463.89 1011.74 463.79V461.42H1019.45C1020.71 461.42 1021.68 461.12 1022.36 460.52C1023.06 459.9 1023.41 459.11 1023.41 458.15V455.99C1023.41 455.07 1023.14 454.35 1022.6 453.83C1022.08 453.29 1021.26 453.02 1020.14 453.02H1017.98C1016.34 453.02 1015.38 453.76 1015.1 455.24H1012.25L1012.88 441.89H1025.66V444.59H1015.49L1015.16 451.85C1015.42 451.47 1015.84 451.14 1016.42 450.86C1017 450.58 1017.72 450.44 1018.58 450.44H1021.13C1022.87 450.44 1024.19 450.92 1025.09 451.88C1025.99 452.84 1026.44 454.04 1026.44 455.48V458.75C1026.44 460.59 1025.8 461.95 1024.52 462.83C1023.24 463.71 1021.52 464.15 1019.36 464.15ZM1035.83 464.09C1034.15 464.09 1032.8 463.65 1031.78 462.77C1030.76 461.89 1030.25 460.53 1030.25 458.69V447.26C1030.25 445.44 1030.76 444.06 1031.78 443.12C1032.82 442.18 1034.17 441.71 1035.83 441.71H1040.24C1042.1 441.71 1043.46 442.22 1044.32 443.24C1045.2 444.24 1045.64 445.58 1045.64 447.26V458.69C1045.64 460.51 1045.15 461.87 1044.17 462.77C1043.21 463.65 1041.89 464.09 1040.21 464.09H1035.83ZM1036.46 461.36H1039.49C1040.59 461.36 1041.38 461.09 1041.86 460.55C1042.36 460.01 1042.61 459.25 1042.61 458.27V447.53C1042.61 446.47 1042.35 445.69 1041.83 445.19C1041.31 444.67 1040.57 444.41 1039.61 444.41H1036.37C1035.41 444.41 1034.65 444.68 1034.09 445.22C1033.53 445.76 1033.25 446.53 1033.25 447.53V458.27C1033.25 459.31 1033.53 460.09 1034.09 460.61C1034.67 461.11 1035.46 461.36 1036.46 461.36ZM1054.35 464L1067.7 442.04H1069.71L1056.45 464H1054.35ZM1052.97 453.53C1051.49 453.53 1050.46 453.2 1049.88 452.54C1049.3 451.88 1049.01 450.91 1049.01 449.63V445.91C1049.01 444.65 1049.3 443.69 1049.88 443.03C1050.46 442.37 1051.51 442.04 1053.03 442.04H1056.06C1057.52 442.04 1058.54 442.37 1059.12 443.03C1059.7 443.69 1059.99 444.65 1059.99 445.91V449.63C1059.99 450.91 1059.7 451.88 1059.12 452.54C1058.54 453.2 1057.5 453.53 1056 453.53H1052.97ZM1053.3 451.58H1055.64C1056.52 451.58 1057.14 451.41 1057.5 451.07C1057.86 450.73 1058.04 450.12 1058.04 449.24V446.33C1058.04 445.47 1057.87 444.87 1057.53 444.53C1057.19 444.17 1056.58 443.99 1055.7 443.99H1053.36C1052.56 443.99 1051.96 444.14 1051.56 444.44C1051.16 444.74 1050.96 445.37 1050.96 446.33V449.24C1050.96 450.1 1051.13 450.71 1051.47 451.07C1051.83 451.41 1052.44 451.58 1053.3 451.58ZM1068.27 463.91C1066.81 463.91 1065.79 463.58 1065.21 462.92C1064.63 462.26 1064.34 461.29 1064.34 460.01V456.29C1064.34 455.03 1064.62 454.07 1065.18 453.41C1065.76 452.75 1066.81 452.42 1068.33 452.42H1071.39C1072.85 452.42 1073.87 452.75 1074.45 453.41C1075.03 454.07 1075.32 455.03 1075.32 456.29V460.01C1075.32 461.29 1075.03 462.26 1074.45 462.92C1073.87 463.58 1072.83 463.91 1071.33 463.91H1068.27ZM1068.63 461.96H1070.97C1071.83 461.96 1072.44 461.79 1072.8 461.45C1073.18 461.11 1073.37 460.5 1073.37 459.62V456.71C1073.37 455.85 1073.2 455.25 1072.86 454.91C1072.52 454.55 1071.91 454.37 1071.03 454.37H1068.69C1067.89 454.37 1067.29 454.52 1066.89 454.82C1066.49 455.12 1066.29 455.75 1066.29 456.71V459.62C1066.29 460.48 1066.46 461.09 1066.8 461.45C1067.16 461.79 1067.77 461.96 1068.63 461.96Z" fill="#591CF5"/>
<path d="M161.579 674V656.51C161.579 655.33 161.809 654.4 162.269 653.72C162.729 653.04 163.309 652.57 164.009 652.31C164.709 652.03 165.429 651.89 166.169 651.89C166.989 651.91 167.919 651.93 168.959 651.95C169.999 651.95 171.079 651.97 172.199 652.01C173.319 652.05 174.419 652.12 175.499 652.22V654.68H166.919C166.179 654.68 165.609 654.88 165.209 655.28C164.809 655.68 164.609 656.26 164.609 657.02V662.15L174.149 662.33V664.67L164.609 664.85V674H161.579ZM184.435 674.18C182.795 674.18 181.455 673.95 180.415 673.49C179.375 673.01 178.605 672.18 178.105 671C177.605 669.8 177.355 668.12 177.355 665.96C177.355 663.72 177.605 662.01 178.105 660.83C178.625 659.65 179.405 658.84 180.445 658.4C181.485 657.96 182.815 657.74 184.435 657.74C186.035 657.74 187.355 657.97 188.395 658.43C189.455 658.87 190.235 659.68 190.735 660.86C191.255 662.04 191.515 663.74 191.515 665.96C191.515 668.16 191.265 669.85 190.765 671.03C190.265 672.21 189.495 673.03 188.455 673.49C187.415 673.95 186.075 674.18 184.435 674.18ZM184.435 671.72C185.095 671.72 185.675 671.66 186.175 671.54C186.695 671.42 187.125 671.17 187.465 670.79C187.825 670.39 188.085 669.81 188.245 669.05C188.425 668.27 188.515 667.23 188.515 665.93C188.515 664.65 188.425 663.63 188.245 662.87C188.085 662.09 187.825 661.51 187.465 661.13C187.125 660.75 186.695 660.5 186.175 660.38C185.675 660.24 185.095 660.17 184.435 660.17C183.755 660.17 183.155 660.24 182.635 660.38C182.135 660.5 181.715 660.75 181.375 661.13C181.035 661.51 180.785 662.09 180.625 662.87C180.465 663.63 180.385 664.65 180.385 665.93C180.385 667.23 180.465 668.27 180.625 669.05C180.785 669.81 181.035 670.39 181.375 670.79C181.715 671.17 182.135 671.42 182.635 671.54C183.155 671.66 183.755 671.72 184.435 671.72ZM199.89 674.18C198.37 674.18 197.2 673.78 196.38 672.98C195.56 672.16 195.15 670.92 195.15 669.26V657.95H198.15V668.45C198.15 669.65 198.42 670.46 198.96 670.88C199.52 671.3 200.3 671.51 201.3 671.51C202.1 671.51 202.86 671.39 203.58 671.15C204.3 670.91 205.02 670.56 205.74 670.1V657.95H208.74V674H206.34L205.74 672.26C204.96 672.78 204.06 673.23 203.04 673.61C202.04 673.99 200.99 674.18 199.89 674.18ZM212.875 674V657.95H215.275L215.875 659.69C216.575 659.17 217.425 658.71 218.425 658.31C219.425 657.89 220.455 657.68 221.515 657.68C222.715 657.68 223.675 657.94 224.395 658.46C225.135 658.96 225.665 659.63 225.985 660.47C226.305 661.31 226.465 662.22 226.465 663.2V674H223.465V663.56C223.465 662.62 223.195 661.86 222.655 661.28C222.115 660.7 221.375 660.41 220.435 660.41C219.535 660.41 218.735 660.54 218.035 660.8C217.335 661.06 216.615 661.41 215.875 661.85V674H212.875ZM235.791 674.18C233.851 674.18 232.401 673.54 231.441 672.26C230.501 670.98 230.031 668.93 230.031 666.11C230.031 664.13 230.221 662.53 230.601 661.31C231.001 660.07 231.641 659.17 232.521 658.61C233.401 658.03 234.591 657.74 236.091 657.74C236.931 657.74 237.761 657.83 238.581 658.01C239.401 658.19 240.131 658.39 240.771 658.61V651.11H243.771V674H241.311L240.771 672.41C240.451 672.69 240.011 672.97 239.451 673.25C238.891 673.51 238.291 673.73 237.651 673.91C237.011 674.09 236.391 674.18 235.791 674.18ZM236.751 671.72C237.571 671.72 238.311 671.59 238.971 671.33C239.651 671.07 240.251 670.8 240.771 670.52V660.77C240.151 660.59 239.541 660.43 238.941 660.29C238.361 660.13 237.711 660.05 236.991 660.05C236.031 660.05 235.261 660.22 234.681 660.56C234.121 660.9 233.711 661.5 233.451 662.36C233.191 663.22 233.061 664.42 233.061 665.96C233.061 668.1 233.341 669.6 233.901 670.46C234.461 671.3 235.411 671.72 236.751 671.72ZM248.305 655.25C247.945 655.25 247.765 655.08 247.765 654.74V652.22C247.765 651.86 247.945 651.68 248.305 651.68H250.525C250.845 651.68 251.005 651.86 251.005 652.22V654.74C251.005 655.08 250.845 655.25 250.525 655.25H248.305ZM247.885 674V657.95H250.885V674H247.885ZM255.092 674V657.95H257.492L258.092 659.69C258.792 659.17 259.642 658.71 260.642 658.31C261.642 657.89 262.672 657.68 263.732 657.68C264.932 657.68 265.892 657.94 266.612 658.46C267.352 658.96 267.882 659.63 268.202 660.47C268.522 661.31 268.682 662.22 268.682 663.2V674H265.682V663.56C265.682 662.62 265.412 661.86 264.872 661.28C264.332 660.7 263.592 660.41 262.652 660.41C261.752 660.41 260.952 660.54 260.252 660.8C259.552 661.06 258.832 661.41 258.092 661.85V674H255.092ZM276.778 681.38C275.238 681.38 273.968 681.05 272.968 680.39C271.988 679.73 271.498 678.75 271.498 677.45V676.79C271.498 675.91 271.748 675.16 272.248 674.54C272.748 673.94 273.358 673.48 274.078 673.16C273.038 672.62 272.518 671.8 272.518 670.7C272.518 669.9 272.748 669.26 273.208 668.78C273.688 668.28 274.358 667.94 275.218 667.76C274.138 667.28 273.398 666.61 272.998 665.75C272.618 664.89 272.428 664.01 272.428 663.11C272.428 661.29 272.978 659.97 274.078 659.15C275.198 658.33 276.758 657.92 278.758 657.92H287.398V659.63L284.128 659.96C284.368 660.14 284.628 660.38 284.908 660.68C285.188 660.96 285.428 661.35 285.628 661.85C285.828 662.35 285.928 663.01 285.928 663.83C285.928 664.69 285.738 665.49 285.358 666.23C284.998 666.97 284.398 667.57 283.558 668.03C282.738 668.49 281.618 668.72 280.198 668.72H277.558C276.798 668.72 276.198 668.83 275.758 669.05C275.318 669.27 275.097 669.66 275.097 670.22C275.097 670.68 275.268 671 275.608 671.18C275.948 671.36 276.308 671.45 276.688 671.45H281.758C283.598 671.45 284.988 671.81 285.928 672.53C286.868 673.25 287.338 674.4 287.338 675.98V676.55C287.338 678.07 286.838 679.25 285.837 680.09C284.858 680.95 283.368 681.38 281.368 681.38H276.778ZM278.098 666.41H279.868C280.748 666.41 281.428 666.28 281.908 666.02C282.388 665.74 282.718 665.38 282.898 664.94C283.078 664.48 283.168 663.99 283.168 663.47C283.168 662.27 282.888 661.43 282.328 660.95C281.768 660.47 281.018 660.23 280.078 660.23H278.397C277.378 660.23 276.578 660.46 275.998 660.92C275.438 661.38 275.158 662.17 275.158 663.29C275.158 664.39 275.418 665.19 275.938 665.69C276.458 666.17 277.178 666.41 278.098 666.41ZM277.558 679.22H281.068C282.128 679.22 282.968 679.01 283.588 678.59C284.208 678.19 284.518 677.56 284.518 676.7V676.13C284.518 675.41 284.278 674.83 283.798 674.39C283.338 673.97 282.508 673.76 281.308 673.76H277.438C276.618 673.76 275.898 673.96 275.278 674.36C274.658 674.76 274.348 675.39 274.348 676.25V676.82C274.348 677.66 274.628 678.27 275.188 678.65C275.768 679.03 276.558 679.22 277.558 679.22ZM303.109 674V654.59H296.509V651.89H312.739V654.59H306.139V674H303.109ZM320.162 674.18C318.462 674.18 317.102 673.93 316.082 673.43C315.082 672.93 314.362 672.09 313.922 670.91C313.502 669.71 313.292 668.06 313.292 665.96C313.292 663.82 313.502 662.16 313.922 660.98C314.362 659.78 315.082 658.94 316.082 658.46C317.082 657.98 318.432 657.74 320.132 657.74C321.592 657.74 322.782 657.9 323.702 658.22C324.622 658.54 325.292 659.09 325.712 659.87C326.152 660.65 326.372 661.73 326.372 663.11C326.372 664.61 325.942 665.66 325.082 666.26C324.222 666.84 323.062 667.13 321.602 667.13H316.292C316.312 668.29 316.442 669.22 316.682 669.92C316.942 670.6 317.392 671.1 318.032 671.42C318.692 671.72 319.652 671.87 320.912 671.87H325.922V673.67C325.062 673.79 324.182 673.9 323.282 674C322.402 674.12 321.362 674.18 320.162 674.18ZM316.262 665.24H321.332C322.132 665.24 322.722 665.09 323.102 664.79C323.482 664.47 323.672 663.92 323.672 663.14C323.672 661.92 323.402 661.09 322.862 660.65C322.322 660.19 321.412 659.96 320.132 659.96C319.132 659.96 318.352 660.11 317.792 660.41C317.232 660.71 316.832 661.25 316.592 662.03C316.372 662.79 316.262 663.86 316.262 665.24ZM333.244 674.18C332.064 674.18 331.084 673.83 330.304 673.13C329.544 672.41 329.164 671.42 329.164 670.16V668.9C329.164 667.66 329.584 666.65 330.424 665.87C331.284 665.07 332.574 664.67 334.294 664.67H339.304V662.99C339.304 662.37 339.194 661.85 338.974 661.43C338.774 660.99 338.384 660.66 337.804 660.44C337.244 660.22 336.424 660.11 335.344 660.11H330.424V658.34C331.144 658.18 331.984 658.04 332.944 657.92C333.924 657.8 335.064 657.73 336.364 657.71C338.344 657.71 339.834 658.1 340.834 658.88C341.834 659.64 342.334 660.94 342.334 662.78V674H339.964L339.454 672.2C339.354 672.3 339.104 672.46 338.704 672.68C338.324 672.88 337.834 673.1 337.234 673.34C336.654 673.56 336.014 673.76 335.314 673.94C334.634 674.1 333.944 674.18 333.244 674.18ZM334.624 671.99C335.024 672.01 335.474 671.96 335.974 671.84C336.494 671.72 337.004 671.59 337.504 671.45C338.004 671.29 338.424 671.15 338.764 671.03C339.104 670.89 339.284 670.81 339.304 670.79V666.17L335.104 666.35C334.064 666.41 333.314 666.68 332.854 667.16C332.414 667.62 332.194 668.21 332.194 668.93V669.65C332.194 670.53 332.444 671.14 332.944 671.48C333.464 671.82 334.024 671.99 334.624 671.99ZM346.411 674V657.95H348.811L349.411 659.69C350.191 659.15 351.051 658.68 351.991 658.28C352.931 657.88 354.011 657.68 355.231 657.68C356.251 657.68 357.101 657.9 357.781 658.34C358.461 658.78 358.991 659.34 359.371 660.02C359.851 659.66 360.431 659.3 361.111 658.94C361.791 658.58 362.521 658.28 363.301 658.04C364.081 657.8 364.831 657.68 365.551 657.68C366.751 657.68 367.721 657.93 368.461 658.43C369.201 658.91 369.741 659.58 370.081 660.44C370.421 661.28 370.591 662.23 370.591 663.29V674H367.591V663.56C367.591 662.62 367.321 661.86 366.781 661.28C366.241 660.7 365.491 660.41 364.531 660.41C363.731 660.41 362.911 660.57 362.071 660.89C361.231 661.19 360.461 661.56 359.761 662C359.921 662.54 360.001 663.07 360.001 663.59V674H357.001V663.56C357.001 662.62 356.731 661.86 356.191 661.28C355.651 660.7 354.911 660.41 353.971 660.41C353.071 660.41 352.271 660.54 351.571 660.8C350.871 661.06 350.151 661.41 349.411 661.85V674H346.411ZM234.498 714V711.57L242.418 703.86C243.558 702.8 244.368 701.83 244.848 700.95C245.328 700.05 245.568 699.04 245.568 697.92C245.568 697.26 245.438 696.68 245.178 696.18C244.938 695.66 244.508 695.26 243.888 694.98C243.268 694.7 242.388 694.56 241.248 694.56H235.188V692.22C236.108 692.1 237.128 691.99 238.248 691.89C239.388 691.77 240.598 691.71 241.878 691.71C243.578 691.71 244.908 691.95 245.868 692.43C246.848 692.91 247.538 693.59 247.938 694.47C248.358 695.33 248.568 696.34 248.568 697.5C248.568 699.04 248.258 700.4 247.638 701.58C247.038 702.74 246.078 703.96 244.758 705.24L238.548 711.24H249.348V714H234.498ZM258.343 714.09C256.663 714.09 255.313 713.65 254.293 712.77C253.273 711.89 252.763 710.53 252.763 708.69V697.26C252.763 695.44 253.273 694.06 254.293 693.12C255.333 692.18 256.683 691.71 258.343 691.71H262.753C264.613 691.71 265.973 692.22 266.833 693.24C267.713 694.24 268.153 695.58 268.153 697.26V708.69C268.153 710.51 267.663 711.87 266.683 712.77C265.723 713.65 264.403 714.09 262.723 714.09H258.343ZM258.973 711.36H262.003C263.103 711.36 263.893 711.09 264.373 710.55C264.873 710.01 265.123 709.25 265.123 708.27V697.53C265.123 696.47 264.863 695.69 264.343 695.19C263.823 694.67 263.083 694.41 262.123 694.41H258.883C257.923 694.41 257.163 694.68 256.603 695.22C256.043 695.76 255.763 696.53 255.763 697.53V708.27C255.763 709.31 256.043 710.09 256.603 710.61C257.183 711.11 257.973 711.36 258.973 711.36ZM276.863 714L290.213 692.04H292.223L278.963 714H276.863ZM275.483 703.53C274.003 703.53 272.973 703.2 272.393 702.54C271.813 701.88 271.523 700.91 271.523 699.63V695.91C271.523 694.65 271.813 693.69 272.393 693.03C272.973 692.37 274.023 692.04 275.543 692.04H278.573C280.033 692.04 281.053 692.37 281.633 693.03C282.213 693.69 282.503 694.65 282.503 695.91V699.63C282.503 700.91 282.213 701.88 281.633 702.54C281.053 703.2 280.013 703.53 278.513 703.53H275.483ZM275.813 701.58H278.153C279.033 701.58 279.653 701.41 280.013 701.07C280.373 700.73 280.553 700.12 280.553 699.24V696.33C280.553 695.47 280.383 694.87 280.043 694.53C279.703 694.17 279.093 693.99 278.213 693.99H275.873C275.073 693.99 274.473 694.14 274.073 694.44C273.673 694.74 273.473 695.37 273.473 696.33V699.24C273.473 700.1 273.643 700.71 273.983 701.07C274.343 701.41 274.953 701.58 275.813 701.58ZM290.783 713.91C289.323 713.91 288.303 713.58 287.723 712.92C287.143 712.26 286.853 711.29 286.853 710.01V706.29C286.853 705.03 287.133 704.07 287.693 703.41C288.273 702.75 289.323 702.42 290.843 702.42H293.903C295.363 702.42 296.383 702.75 296.963 703.41C297.543 704.07 297.833 705.03 297.833 706.29V710.01C297.833 711.29 297.543 712.26 296.963 712.92C296.383 713.58 295.343 713.91 293.843 713.91H290.783ZM291.143 711.96H293.483C294.343 711.96 294.953 711.79 295.313 711.45C295.693 711.11 295.883 710.5 295.883 709.62V706.71C295.883 705.85 295.713 705.25 295.373 704.91C295.033 704.55 294.423 704.37 293.543 704.37H291.203C290.403 704.37 289.803 704.52 289.403 704.82C289.003 705.12 288.803 705.75 288.803 706.71V709.62C288.803 710.48 288.973 711.09 289.313 711.45C289.673 711.79 290.283 711.96 291.143 711.96Z" fill="#3382E8"/>
<path d="M550.543 42.18C549.223 42.18 548.073 42.03 547.093 41.73C546.113 41.43 545.293 40.89 544.633 40.11C543.973 39.31 543.483 38.17 543.163 36.69C542.843 35.19 542.683 33.25 542.683 30.87C542.683 28.63 542.843 26.78 543.163 25.32C543.503 23.86 544.003 22.72 544.663 21.9C545.343 21.08 546.183 20.51 547.183 20.19C548.183 19.87 549.343 19.71 550.663 19.71C551.783 19.71 552.933 19.8 554.113 19.98C555.313 20.14 556.343 20.34 557.203 20.58V22.86C556.683 22.78 555.863 22.69 554.743 22.59C553.623 22.47 552.443 22.41 551.203 22.41C550.203 22.41 549.353 22.53 548.653 22.77C547.953 22.99 547.383 23.41 546.943 24.03C546.503 24.63 546.183 25.49 545.983 26.61C545.783 27.71 545.683 29.14 545.683 30.9C545.683 32.7 545.773 34.16 545.953 35.28C546.153 36.4 546.463 37.27 546.883 37.89C547.303 38.49 547.863 38.91 548.563 39.15C549.263 39.37 550.133 39.48 551.173 39.48C552.673 39.48 553.903 39.44 554.863 39.36C555.823 39.28 556.603 39.2 557.203 39.12V41.43C556.303 41.65 555.273 41.83 554.113 41.97C552.973 42.11 551.783 42.18 550.543 42.18ZM560.594 42V19.11H563.594V27.69C564.274 27.17 565.114 26.71 566.114 26.31C567.134 25.89 568.174 25.68 569.234 25.68C570.394 25.68 571.334 25.93 572.054 26.43C572.794 26.91 573.334 27.56 573.674 28.38C574.014 29.2 574.184 30.13 574.184 31.17V42H571.184V31.53C571.184 30.59 570.904 29.84 570.344 29.28C569.804 28.7 569.074 28.41 568.154 28.41C567.254 28.41 566.454 28.54 565.754 28.8C565.054 29.06 564.334 29.41 563.594 29.85V42H560.594ZM581.499 42.18C580.319 42.18 579.339 41.83 578.559 41.13C577.799 40.41 577.419 39.42 577.419 38.16V36.9C577.419 35.66 577.839 34.65 578.679 33.87C579.539 33.07 580.829 32.67 582.549 32.67H587.559V30.99C587.559 30.37 587.449 29.85 587.229 29.43C587.029 28.99 586.639 28.66 586.059 28.44C585.499 28.22 584.679 28.11 583.599 28.11H578.679V26.34C579.399 26.18 580.239 26.04 581.199 25.92C582.179 25.8 583.319 25.73 584.619 25.71C586.599 25.71 588.089 26.1 589.089 26.88C590.089 27.64 590.589 28.94 590.589 30.78V42H588.219L587.709 40.2C587.609 40.3 587.359 40.46 586.959 40.68C586.579 40.88 586.089 41.1 585.489 41.34C584.909 41.56 584.269 41.76 583.569 41.94C582.889 42.1 582.199 42.18 581.499 42.18ZM582.879 39.99C583.279 40.01 583.729 39.96 584.229 39.84C584.749 39.72 585.259 39.59 585.759 39.45C586.259 39.29 586.679 39.15 587.019 39.03C587.359 38.89 587.539 38.81 587.559 38.79V34.17L583.359 34.35C582.319 34.41 581.569 34.68 581.109 35.16C580.669 35.62 580.449 36.21 580.449 36.93V37.65C580.449 38.53 580.699 39.14 581.199 39.48C581.719 39.82 582.279 39.99 582.879 39.99ZM594.666 42V25.95H596.976L597.666 28.65C598.346 27.83 599.106 27.14 599.946 26.58C600.786 26.02 601.766 25.74 602.886 25.74C603.446 25.74 603.926 25.8 604.326 25.92V29.01C604.046 28.97 603.746 28.94 603.426 28.92C603.126 28.88 602.826 28.86 602.526 28.86C601.506 28.86 600.626 29.05 599.886 29.43C599.166 29.79 598.426 30.33 597.666 31.05V42H594.666ZM607.567 23.25C607.207 23.25 607.027 23.08 607.027 22.74V20.22C607.027 19.86 607.207 19.68 607.567 19.68H609.787C610.107 19.68 610.267 19.86 610.267 20.22V22.74C610.267 23.08 610.107 23.25 609.787 23.25H607.567ZM607.147 42V25.95H610.147V42H607.147ZM619.904 42C618.264 42 617.054 41.6 616.274 40.8C615.514 40 615.154 38.62 615.194 36.66L615.314 28.41H612.764V26.46L615.374 25.95L615.824 21.45H618.194V25.95H622.544V28.41H618.194V36.63C618.194 37.45 618.304 38.07 618.524 38.49C618.744 38.89 619.024 39.17 619.364 39.33C619.704 39.47 620.034 39.56 620.354 39.6L622.334 39.78V42H619.904ZM630.105 49.11L632.055 42C631.095 42 630.215 41.71 629.415 41.13C628.615 40.53 628.005 39.51 627.585 38.07L623.985 25.95H627.135L630.375 37.44C630.615 38.16 630.895 38.66 631.215 38.94C631.535 39.2 631.835 39.36 632.115 39.42C632.395 39.46 632.565 39.48 632.625 39.48L636.375 25.95H639.465L633.945 46.14L632.505 49.11H630.105ZM580.655 82.15C579.355 82.15 578.035 82.11 576.695 82.03C575.355 81.97 574.135 81.89 573.035 81.79V79.42H580.745C582.005 79.42 582.975 79.12 583.655 78.52C584.355 77.9 584.705 77.11 584.705 76.15V73.99C584.705 73.07 584.435 72.35 583.895 71.83C583.375 71.29 582.555 71.02 581.435 71.02H579.275C577.635 71.02 576.675 71.76 576.395 73.24H573.545L574.175 59.89H586.955V62.59H576.785L576.455 69.85C576.715 69.47 577.135 69.14 577.715 68.86C578.295 68.58 579.015 68.44 579.875 68.44H582.425C584.165 68.44 585.485 68.92 586.385 69.88C587.285 70.84 587.735 72.04 587.735 73.48V76.75C587.735 78.59 587.095 79.95 585.815 80.83C584.535 81.71 582.815 82.15 580.655 82.15ZM596.046 82L609.396 60.04H611.406L598.146 82H596.046ZM594.666 71.53C593.186 71.53 592.156 71.2 591.576 70.54C590.996 69.88 590.706 68.91 590.706 67.63V63.91C590.706 62.65 590.996 61.69 591.576 61.03C592.156 60.37 593.206 60.04 594.726 60.04H597.756C599.216 60.04 600.236 60.37 600.816 61.03C601.396 61.69 601.686 62.65 601.686 63.91V67.63C601.686 68.91 601.396 69.88 600.816 70.54C600.236 71.2 599.196 71.53 597.696 71.53H594.666ZM594.996 69.58H597.336C598.216 69.58 598.836 69.41 599.196 69.07C599.556 68.73 599.736 68.12 599.736 67.24V64.33C599.736 63.47 599.566 62.87 599.226 62.53C598.886 62.17 598.276 61.99 597.396 61.99H595.056C594.256 61.99 593.656 62.14 593.256 62.44C592.856 62.74 592.656 63.37 592.656 64.33V67.24C592.656 68.1 592.826 68.71 593.166 69.07C593.526 69.41 594.136 69.58 594.996 69.58ZM609.966 81.91C608.506 81.91 607.486 81.58 606.906 80.92C606.326 80.26 606.036 79.29 606.036 78.01V74.29C606.036 73.03 606.316 72.07 606.876 71.41C607.456 70.75 608.506 70.42 610.026 70.42H613.086C614.546 70.42 615.566 70.75 616.146 71.41C616.726 72.07 617.016 73.03 617.016 74.29V78.01C617.016 79.29 616.726 80.26 616.146 80.92C615.566 81.58 614.526 81.91 613.026 81.91H609.966ZM610.326 79.96H612.666C613.526 79.96 614.136 79.79 614.496 79.45C614.876 79.11 615.066 78.5 615.066 77.62V74.71C615.066 73.85 614.896 73.25 614.556 72.91C614.216 72.55 613.606 72.37 612.726 72.37H610.386C609.586 72.37 608.986 72.52 608.586 72.82C608.186 73.12 607.986 73.75 607.986 74.71V77.62C607.986 78.48 608.156 79.09 608.496 79.45C608.856 79.79 609.466 79.96 610.326 79.96Z" fill="#BB32B6"/>
</svg>
