<svg id="Layer_1" data-name="Layer 1" xmlns="http://www.w3.org/2000/svg" viewBox="0 0 806.49 962.46"><defs><style>.cls-1{fill:#eee;}.cls-2{fill:#66dae9;}.cls-3{fill:#3587e9;}.cls-4{fill:#ccc;}.cls-5{fill:#919faa;}.cls-6{fill:#b757ed;}</style></defs><path class="cls-1" d="M1054.41-1037.17c15.11,5.07,22.89,15.74,24.9,31.42,1.07,8.34,3.31,16.54,5.11,24.79,6.91,31.48,25.84,51.28,57.36,58.63,12.18,2.84,24.7,4.47,36.61,8.13,19.71,6.05,27,27.85,15.82,44.64-5,7.53-12.61,11-21,12.83-11.28,2.52-22.71,4.42-33.91,7.25-29.91,7.56-47.75,27.07-54.65,56.81-2.4,10.35-3.93,20.91-6.36,31.25-3,12.7-9.72,22.42-23.46,25-12.53,2.37-23-1.54-30.29-12.15-5.1-7.4-5.77-16.4-7.63-24.91-2.86-13.1-4.29-26.6-10.67-38.72C995-833.53,977.14-846,953.73-850.83c-9.8-2-19.65-3.8-29.43-5.91-16-3.46-25.75-14.23-26.13-28.72-.39-14.73,8.42-25.71,24.64-29.78,10.91-2.74,22.05-4.56,33-7.09,31.16-7.21,50-26.79,57.2-57.73,2-8.53,4.13-17.07,5.26-25.72,2-15.63,9.76-26.31,24.84-31.39Z" transform="translate(-739.66 1037.17)"/><path class="cls-2" d="M876.39-405.86c2.74-7.26.46-14.86,1.5-22.24,5.52-3.13,10.29.37,15,2.08,15.79,5.69,31.57,11.44,47.46,16.83,15.29,5.18,17.52,4.24,25.32-9.63,10.23-.79,19.09,2.83,27.3,8.53a2.45,2.45,0,0,1,.26.89c-1.12,18.53-.46,19.71,17.48,25.65,11.87,3.93,23.77,7.92,35.24,12.74,12.21,5.13,20.55,2.64,29.83-6.73,23.51-23.76,45.42-49.06,69.71-72.05a78,78,0,0,1,6.86-6.38c4.31-3.21,6.83-1.88,7.84,3.18.06,15.43,2.67,30.94-1.66,46.2-10.74,5.3-13.07,14.22-13,25.61q.54,109,0,218c-.06,11.63,2,21,13.08,26.51,3.45,10.43,2.87,20.93.56,31.46-4.44,4.85-9.36,2-13.85.44q-71.64-25.74-143.42-51.12c-32.19-11.4-64.28-23.06-96.5-34.4C891.32-195.26,890-196.85,890-212c0-54.84-.24-109.68.16-164.51C890.23-389,889.91-400.23,876.39-405.86Z" transform="translate(-739.66 1037.17)"/><path class="cls-3" d="M1157.71-104.5q0-15.78,0-31.55c9.94-7.92,10.58-18.7,10.53-30.38q-.43-105.27,0-210.54c0-11.68-.64-22.44-10.53-30.37q.18-24.65.38-49.29c5.05.1,7.44,4.22,10.54,7.13,24.83,23.4,47,49.38,71.24,73.38,7.66,7.59,14.63,9.67,25,5.95q76.86-27.57,153.78-54.93c5.35-1.9,10.56-6,16.86-2.89.83,7.36-1.37,14.94,1.53,22.16-12.63,5.87-13.36,16.64-13.26,28.86.43,54.7.21,109.41.17,164.11,0,16.17-1.15,17.87-16.31,22.88-10.1,3.33-19.91,7.44-30,10.72-11.84,3.85-24,7.3-30.49,19.51-1.48-1.88-3.06-2.11-5.41-1.19-8.26,3.22-17,5.19-24.82,9.61-21.56-4-39.36,8.11-58.31,14.33-29.73,9.76-59.13,20.61-88.5,31.44C1166.22-104.14,1162.13-101.22,1157.71-104.5Z" transform="translate(-739.66 1037.17)"/><path class="cls-1" d="M1435.51-428q-55.2,19.39-110.39,38.82c-20.61,7.27-41.31,14.32-61.74,22.07-9.52,3.62-16.58,1.82-23.5-5.46-24.8-26.1-49.91-51.9-74.93-77.78-2.16-2.23-4.58-4.2-6.87-6.29-4.37-1.34-5.56,2.76-7.57,4.82-25.35,26-50.77,52-75.61,78.45-7.83,8.34-15.52,10-25.9,5.83-15.07-6-30.51-11.06-45.77-16.61C989-389.33,986.29-395.57,992.42-409c4.14-8.52,11.41-6.42,18-4.73,12.14,3.13,23.82,7.81,35.47,12.41,7.58,3,13.19,1.57,18.15-4.71,13.44-17,30-31.14,45-46.7,4.13-4.3,7.9-8.9,11.87-13.32,4.13-4.58,3.87-6.87-2.18-9.17-11.72-4.46-23.59-8.48-35.39-12.68-62.87-22.4-125.82-44.55-188.51-67.44-7.73-2.82-13.08-2.08-19.24,3.91-20,19.47-37.8,41-58.06,60.18-4.94,4.67-3.57,6.76,2.19,8.85,33,11.94,66.11,23.58,99.11,35.49,12.38,4.47,25,8.21,37,13.57,5.94,2.65,13.3,5.53,10.68,14.88-2.47,13.81-9.21,17.86-22.54,13.28-22-7.57-44-15.26-66.05-22.9l-92.11-33.53c-2-.74-4.16-1.31-6.18-2.12C766.52-469,764-479.89,773.77-490.3c11.33-12.09,23-23.91,34.47-35.84,18.46-19.13,37-38.21,55.36-57.43a40.19,40.19,0,0,1,16.28-10.51Q917-607,953.82-620.52c6.86-2.52,13.22-3.27,19.54,1,7.46,6.34,8.2,13.89,2.11,20.89-3.86,4.45-9.16,6.41-14.41,8.43-10.17,3.92-20.77,6.72-31.51,11.66,11.8,5.75,23.77,9,35.35,13.17,62.08,22.23,124.27,44.12,186.3,66.48,2.36.85,4.7,1.73,7.28,1.25,75.06-26,149.56-53.56,226.36-80.43a148.14,148.14,0,0,0-19.15-7.56c-7.41-2.48-15-4.54-21.8-8.56-10.17-6.06-10.75-18.59-1.44-25.2,5.8-3.57,11.65-3.2,17.89-.94q37.8,13.71,75.77,27a33.46,33.46,0,0,1,13.11,8.7q44.91,46.67,89.89,93.27c11.45,11.91,8.79,22.45-7,28.23Q1483.82-445.52,1435.51-428Z" transform="translate(-739.66 1037.17)"/><path class="cls-4" d="M1157.87-495.43c-2.6,1.33-4.78-.31-7-1.1q-111.09-39.62-222.17-79.31c-1.7-.61-3.82-.46-5.41-3.42,13.9-5,27.72-9.76,41.42-14.86,13.47-5,16.09-13,8.66-25.43,9.17-4.89,20.46-4.69,28.67-11.91,3.84,0,5.21,3.07,6.72,5.75,7.53,13.35,16.16,26.11,21.48,40.63a51.77,51.77,0,0,0,3.72,7.59c4.11,7.23,10.11,9.84,16.21,6.76,7-3.56,7.52-9.81,5-16.12-4-10.18-8-20.43-13.64-29.84-2.91-4.83-5.43-9.87-8.37-14.69-1.59-2.62-3.54-5.31-1.9-8.71,18.16-6.57,36.25-13.39,54.54-19.59,6-2,8.31-4.84,8.2-11.36-.4-22.82-.2-45.66-.1-68.49,0-3.32-1.12-6.94,1.53-9.89,4.31,4,3.11,9.28,3.13,14.13.13,35.38.06,70.76.07,106.15a79.74,79.74,0,0,0,.4,11.25c.85,6,4.11,10,10.28,10.32,6.73.3,10.17-4,11.32-10.24a57.31,57.31,0,0,0,.46-10.31c0-11.59-.1-23.18.07-34.76.06-4-.51-8.27,3.12-11.32,8.27-2.65,16.53-5.36,24.83-7.92,2.81-.87,5.43-3.19,8.71-1.52,3.16,3.63,3,8.09,3,12.46q.09,81.64,0,163.28C1160.88-503.53,1161-499.06,1157.87-495.43Z" transform="translate(-739.66 1037.17)"/><path class="cls-5" d="M1157.87-495.43q0-94.11,0-188.21c14.22,3.16,27,10.92,41.45,13.28,3.28,3.49,2.08,7.59,1.56,11.59-1.46,11.18-2.58,22.4-4.25,33.55a26.42,26.42,0,0,0-.25,2.81c-.36,9,2.84,14.51,8.92,15.48,6.37,1,12-4,13.77-12.51,1.93-9.52,2.52-19.25,4-28.84.64-4,.79-8.19,4.54-10.9l57.45,20.63c2.72,3.85-.74,6.5-2.26,9.08-7,11.88-12.81,24.33-18.36,36.93-1.52,3.43-3.28,6.79-3.72,10.57a10.73,10.73,0,0,0,5.6,11c4.18,2.48,8.44,1.85,12.26-1.11,3.59-2.78,5.4-6.75,7.21-10.79,6-13.41,12.41-26.65,20.26-39.12,1.9-3,3.08-7.07,7.71-7.33,9,4.87,18.68,7.82,28.66,9.86-8.37,12.27-5.71,20.75,8.34,25.91,13.17,4.82,26.42,9.41,39.6,14.1-.76,3.44-3.86,3.12-6,3.89Q1273.86-536,1163.26-496.66A46.29,46.29,0,0,1,1157.87-495.43Z" transform="translate(-739.66 1037.17)"/><path class="cls-1" d="M1157.71-104.5Q1207-121.73,1256.3-139c13.8-4.84,27.63-9.62,41.33-14.73,7-2.62,13.33-2.33,19.27,2.38,6,12.86,3.34,19.69-10.09,24.51-47,16.89-94.11,33.62-141.12,50.56-6.28,2.26-12,1.93-18.22-.28q-134.1-48-268.26-95.72c-12.48-4.46-14.81-7.68-14.81-20.5q0-97.33-.08-194.66c0-9.08,2.21-16.09,12.06-18.44,12.46,1,16.33,5.09,16.35,17.83q.07,91.13-.12,182.24c0,5.89,1.5,8.76,7.28,10.81q125,44.21,249.74,88.81C1152.2-105.25,1154.7-103.49,1157.71-104.5Z" transform="translate(-739.66 1037.17)"/><path class="cls-1" d="M1362.45-970.68c10.7.29,19.53,6.66,23.59,17,3.69,9.39,4.55,19.44,6.74,29.17,5.35,23.77,19.66,38.4,43.5,43.6,7.32,1.59,14.72,2.9,22,4.61,15.78,3.71,24.64,13.42,24.47,26.53-.17,13.27-9,22.64-24.87,26.26-7.31,1.66-14.73,2.84-22.05,4.5q-35,7.95-42.93,43.06c-2,8.84-3.32,17.85-5.72,26.57-3.4,12.34-13.57,20.13-25.16,20.17s-21.87-7.83-25.25-20.1c-2.4-8.72-3.8-17.72-5.74-26.57-5.25-23.85-19.91-38.21-43.76-43.27-8.25-1.75-16.59-3.19-24.74-5.35-13.29-3.52-21.06-13-21.23-25.22-.18-12.36,7.92-22.31,21.62-25.84,8.47-2.18,17.14-3.54,25.66-5.51,23-5.3,37.15-19.48,42.36-42.49,2-8.83,3.37-17.83,5.71-26.57C1340.1-963,1350.58-971,1362.45-970.68Z" transform="translate(-739.66 1037.17)"/><path class="cls-1" d="M1347.12-159.75c-.28-8.95,4.8-13.46,12.72-16.18,17.7-6.1,35.2-12.77,53-18.64,6.29-2.07,8.56-4.94,8.52-11.84-.32-60.37-.2-120.75-.16-181.13,0-13,3.6-17.08,15.87-18.28,8.85,1.69,12.43,7.42,12.43,16q0,100,0,200.09c0,7.91-3.37,13.16-10.68,15.79-23.77,8.57-47.53,17.2-71.41,25.45C1356.78-144.77,1350.58-148.56,1347.12-159.75Z" transform="translate(-739.66 1037.17)"/><path class="cls-1" d="M1031.29-640.09c8.87,16.82,18.67,33.15,25.73,50.91,2.94,7.38,3.43,14.07-3.13,19.52-7.65,6.35-17.85,3-22.58-7.6-8.37-18.84-17.52-37.22-29.28-54.2-12.81-23-29.09-43.65-45.54-64.11-13.15-16.36-27.32-31.83-42-46.89-7.95-8.17-7.54-18.19.48-23.41,7.69-5,14.19-2.21,20.07,3.72a671.57,671.57,0,0,1,70.69,84C1014.6-665.72,1022.8-652.8,1031.29-640.09Z" transform="translate(-739.66 1037.17)"/><path class="cls-1" d="M1227.64-659.18c-1.92,13.25-3.89,26.49-5.75,39.75-1.47,10.51-7.59,16.73-15.85,15.91-8.42-.83-13.46-7.9-12.39-18.63,1.61-16.1,3.74-32.14,5.65-48.21q5.57-40.42,11.13-80.87c1.86-13.64,3.54-27.31,5.45-40.95,1.65-11.79,7.37-17.07,16.67-15.72,8.57,1.24,12.94,8.3,11.5,19.3-5.29,40.66-10.72,81.3-16,122C1227.68-664.18,1227.75-661.67,1227.64-659.18Z" transform="translate(-739.66 1037.17)"/><path class="cls-1" d="M1313.79-629.28c-10.27,14.53-18.15,30.35-25.43,46.51a87.65,87.65,0,0,1-3.95,8.44c-4.17,7.11-11.5,9.6-18.34,6.46a13.77,13.77,0,0,1-7-18.07,318.49,318.49,0,0,1,19.38-40.33c2.35-4,4.46-8.19,6.67-12.28a694.88,694.88,0,0,1,46.76-66.73c1.17-1.46,2.2-3,3.46-4.42,6-6.66,13.76-7.91,20-3.31,6.59,4.83,7.72,13.06,2.21,20.77-11.44,16-23.29,31.73-34.73,47.75C1319.39-639.72,1316.78-634.36,1313.79-629.28Z" transform="translate(-739.66 1037.17)"/><path class="cls-1" d="M1124.31-674.2c-.1,17.49-.17,35-.32,52.47-.1,11.56-5.44,18.28-14.32,18.19s-14-6.65-14-18.42q-.17-63.74-.21-127.46c2-8.68,6.87-14,16.37-13,7.85.84,12.07,7,12.14,17.19C1124.15-721.56,1124.21-697.88,1124.31-674.2Z" transform="translate(-739.66 1037.17)"/><path class="cls-1" d="M837.15-865.43c0,6.55.47,13.13-.12,19.62-.75,8.3-6,13.32-14.21,13.15-7.66-.16-13.17-4.8-13.45-12.85-.46-13.37-.5-26.79.07-40.16.33-7.92,5.51-12.43,13.53-12.53s13.06,4.36,13.84,12.25c.67,6.78.14,13.68.14,20.52Z" transform="translate(-739.66 1037.17)"/><path class="cls-1" d="M809.31-764.58c0-6.53-.45-13.11.11-19.6.7-8,5.61-12.38,13.63-12.46,7.54-.07,12.73,3.87,13.57,11.42a183.41,183.41,0,0,1,0,42.86c-.94,7.66-6.67,11.47-13.83,11.26s-12.6-4.27-13.19-12c-.54-7.12-.11-14.31-.11-21.46Z" transform="translate(-739.66 1037.17)"/><path class="cls-1" d="M773-828.57c6.54,0,13.11-.35,19.62.09,7.65.52,11.9,5.4,12.46,12.73s-3.11,13.36-10.48,14.36a158.57,158.57,0,0,1-44.64-.08c-7.36-1.1-10.84-7.08-10.17-14.54s5.08-12,12.65-12.5c6.82-.43,13.7-.09,20.56-.09Z" transform="translate(-739.66 1037.17)"/><path class="cls-1" d="M874.39-828.59c6.55,0,13.11-.32,19.63.09,7.64.49,11.94,5.28,12.55,12.63s-3,13.39-10.35,14.44a158.94,158.94,0,0,1-44.64,0c-7.36-1.05-10.91-7-10.29-14.46s5-12.11,12.54-12.61C860.66-828.94,867.54-828.59,874.39-828.59Z" transform="translate(-739.66 1037.17)"/><path class="cls-6" d="M1171-885.73c-74.91,6.19-115.38,46.12-121.47,121.55-8-31.31-12.28-62.59-36-86.31-24-24-55.21-28.8-86.52-35.71,30.66-7.24,62.07-11.55,86-35.26s28.67-54.85,35.83-85.75c7.26,30.89,11.93,62.11,35.91,85.77C1108.47-898,1139.39-893.18,1171-885.73Z" transform="translate(-739.66 1037.17)"/><path class="cls-5" d="M966.48-418.48c-1.44-8.78-8.08-11.94-15.43-14.54q-66.66-23.66-133.28-47.43c-3.17-1.13-6.29-2.39-10.25-3.9,24.38-25.27,48.14-49.72,71.63-74.43,4-4.2,7.38-1.8,11-.52Q994.25-522.21,1098.35-485c8.82,3.15,17.57,6.53,26.49,9.38,4.9,1.56,6.34,2.75,2.05,7.14q-33.48,34.29-66.51,69c-3.07,3.22-5.56,3.72-9.76,2.11-12.82-4.92-26-9-38.8-13.9-7.06-2.67-13.36-2.38-19.4,2.19C984.25-413.49,975.17-415.45,966.48-418.48Z" transform="translate(-739.66 1037.17)"/><path class="cls-1" d="M1157.7-407.34c10.23,2.54,13.55,9.32,13.52,19.5q-.33,116.13,0,232.25c0,10.21-3.37,16.92-13.52,19.54-12.35-3.47-14.91-6.57-14.92-18.93q-.06-116.73,0-233.46C1142.79-400.84,1145.41-404,1157.7-407.34Z" transform="translate(-739.66 1037.17)"/><path class="cls-4" d="M1506.49-484.22c-24.76,8.89-48.48,17.46-72.23,25.94-56.16,20.07-112.38,40-168.44,60.33-6.44,2.34-10,1-14.4-3.64q-31.29-33.15-63.25-65.67c-4.56-4.66-5.1-6.4,1.89-8.86q117.48-41.49,234.77-83.49c3.14-1.12,6-3.15,9.31.32C1457.91-534.47,1481.82-509.78,1506.49-484.22Z" transform="translate(-739.66 1037.17)"/><path class="cls-6" d="M1362-929.79c7.49,45.91,33.86,72.33,79.8,79.82-46.09,7.36-72.28,34-79.83,79.77-7.43-46.11-34-72.3-79.81-79.82C1328.08-857.51,1354.53-883.8,1362-929.79Z" transform="translate(-739.66 1037.17)"/></svg>